%
M48
M72
T01C0.0118
T02C0.0197
T03C0.0236
T04C0.0315
T05C0.0400
T06C0.0520
T07C0.0551
T08C0.1260
%
T01
X28422Y9993
X15422Y17930
X16422Y19368
X14172Y20680
X13172Y20430
X12860Y20180
X12485Y20868
X11547Y21430
X11860Y21618
X11110Y22180
X10360Y22868
X10360Y23493
X12360Y23118
X12360Y22493
X13360Y21993
X14735Y22805
X14610Y23493
X14610Y24055
X14922Y24743
X14891Y25118
X14047Y25055
X13735Y25305
X13422Y25555
X12610Y26055
X12297Y25805
X11985Y25555
X11422Y25805
X11297Y25430
X11735Y26055
X9235Y25368
X8922Y25118
X9485Y24618
X7110Y23618
X6860Y25180
X6860Y25805
X9047Y27743
X9556Y27743
X10735Y27805
X11360Y27805
X11797Y27805
X12985Y27743
X13493Y27743
X14735Y27805
X15360Y27805
X15797Y27805
X16985Y27743
X17493Y27743
X17047Y28305
X18610Y27805
X19235Y27805
X19672Y27805
X20860Y27743
X21368Y27743
X22547Y27805
X23172Y27805
X23610Y27805
X24797Y27743
X25306Y27743
X26485Y27805
X27110Y27805
X27547Y27805
X28735Y27743
X29243Y27743
X30485Y27805
X31110Y27805
X31547Y27805
X32735Y27743
X33243Y27743
X34360Y27805
X34985Y27805
X35422Y27805
X36610Y27743
X37118Y27743
X38297Y27805
X38922Y27805
X39360Y27805
X40547Y27743
X41056Y27743
X42235Y27805
X42860Y27805
X43297Y27805
X44485Y27743
X44993Y27743
X46110Y27805
X46735Y27805
X47172Y27805
X48360Y27743
X48868Y27743
X50110Y27805
X50735Y27805
X51172Y27805
X52360Y27743
X52868Y27743
X51985Y26055
X51672Y25805
X51110Y26055
X50797Y25805
X47985Y26055
X47672Y25805
X47110Y26055
X46860Y25805
X44110Y26055
X43797Y25805
X43297Y26055
X42985Y25805
X40172Y26055
X39860Y25805
X39360Y26055
X39047Y25805
X38672Y24430
X40172Y24055
X40172Y23743
X40172Y23430
X41547Y22305
X41860Y22305
X43172Y22493
X43172Y22805
X43172Y23118
X45860Y23430
X45860Y23743
X45860Y24055
X48797Y23118
X48797Y22805
X48797Y22493
X47485Y22305
X47172Y22305
X45610Y21305
X39985Y21305
X35922Y25805
X36235Y26055
X35422Y26055
X35172Y25805
X32360Y26055
X32047Y25805
X31547Y26055
X31297Y25805
X28360Y26055
X28047Y25805
X27547Y26055
X27235Y25805
X24422Y26055
X24110Y25805
X23547Y26055
X23297Y25805
X20422Y26055
X20172Y25805
X19547Y26055
X19297Y25805
X16610Y26055
X16297Y25805
X15735Y25805
X15454Y26055
X13047Y24118
X15797Y22805
X16297Y22180
X16297Y21805
X16297Y21430
X16297Y21055
X14985Y20993
X18235Y22930
X21360Y21305
X22235Y21305
X23235Y21930
X24610Y22493
X25110Y23305
X20860Y19930
X20485Y19868
X20047Y19993
X21735Y19618
X22235Y19493
X23735Y19493
X23735Y18305
X22735Y18305
X11110Y19055
X9735Y19055
X7860Y27805
X7422Y27805
X6797Y27805
X6735Y29368
X7422Y29368
X7860Y29368
X9547Y29368
X10672Y29368
X11360Y29368
X11797Y29368
X13485Y29368
X14672Y29368
X15360Y29368
X15797Y29368
X17485Y29368
X18547Y29368
X19235Y29368
X19672Y29368
X21360Y29368
X22485Y29368
X23172Y29368
X23610Y29368
X25297Y29368
X26422Y29368
X27110Y29368
X27547Y29368
X29235Y29368
X30422Y29368
X31110Y29368
X31547Y29368
X33235Y29368
X34297Y29368
X34985Y29368
X35422Y29368
X37110Y29368
X38235Y29368
X38922Y29368
X39360Y29368
X41047Y29368
X42172Y29368
X42860Y29368
X43297Y29368
X44985Y29368
X46047Y29368
X46735Y29368
X47172Y29368
X48860Y29368
X50047Y29368
X50735Y29368
X51172Y29368
X52860Y29368
X54360Y18180
T02
X53422Y17618
X56360Y20868
X56422Y22493
X56422Y24680
X52172Y25493
X49360Y28805
X45422Y28805
X41547Y28805
X37610Y28805
X33672Y28805
X29797Y28805
X25797Y28805
X21860Y28805
X17922Y28805
X14047Y28805
X10047Y28805
X6110Y28180
X5172Y25368
X9422Y23055
X12610Y23930
X13547Y23993
X13235Y22618
X14235Y22368
X17860Y21055
X19547Y20930
X18985Y22993
X26672Y20868
X26797Y18930
X24297Y17680
X34860Y17680
X44610Y17618
X29297Y23555
X12860Y17680
X7922Y20618
X5235Y20868
X6422Y17618
T03
X39547Y19993
X45610Y22368
X51172Y19993
X53485Y24180
X43797Y28805
T04
X52860Y25430
T05
X5172Y2368
X5172Y3368
X5172Y4368
X5172Y11368
X5172Y12368
X5172Y13368
X5235Y17680
X5235Y18680
X5235Y19680
X5235Y22055
X6235Y22055
X6235Y23055
X5235Y23055
X5235Y24055
X6235Y24055
X5235Y26680
X5235Y27680
X5235Y28680
X30672Y22555
X56422Y19680
X56422Y18680
X56422Y17680
X56360Y13368
X56360Y12368
X56360Y11368
X56360Y4368
X56360Y3368
X56360Y2368
X30610Y7243
X56422Y26680
X56422Y27680
X56422Y28680
T06
X53735Y13368
X53735Y12368
T07
X34110Y8680
X33110Y8680
X32110Y8680
X31110Y8680
X30110Y8680
X29110Y8680
X28110Y8680
X27110Y8680
X27110Y5680
X28110Y5680
X29110Y5680
X30110Y5680
X31110Y5680
X32110Y5680
X33110Y5680
X34110Y5680
T08
X60097Y10430
X1632Y8068
M30
