G75*
%MOIN*%
%OFA0B0*%
%FSLAX24Y24*%
%IPPOS*%
%LPD*%
%AMOC8*
5,1,8,0,0,1.08239X$1,22.5*
%
%ADD10C,0.0120*%
%ADD11C,0.0050*%
%ADD12C,0.0060*%
D10*
X004191Y001375D02*
X004191Y014368D01*
X057341Y014368D01*
X057341Y001375D01*
X004191Y001375D01*
D11*
X030105Y008063D02*
X030180Y007988D01*
X030255Y007988D01*
X030330Y008063D01*
X030330Y008438D01*
X030255Y008438D02*
X030405Y008438D01*
X030565Y008438D02*
X030790Y008438D01*
X030865Y008363D01*
X030865Y008213D01*
X030790Y008138D01*
X030565Y008138D01*
X030565Y007988D02*
X030565Y008438D01*
X031026Y008438D02*
X031326Y008438D01*
X031326Y008363D01*
X031026Y008063D01*
X031026Y007988D01*
X052409Y012043D02*
X052409Y012343D01*
X052409Y012193D02*
X052860Y012193D01*
X052860Y012503D02*
X052409Y012503D01*
X052409Y012728D01*
X052485Y012803D01*
X052635Y012803D01*
X052710Y012728D01*
X052710Y012503D01*
X052860Y012963D02*
X052560Y013264D01*
X052485Y013264D01*
X052409Y013188D01*
X052409Y013038D01*
X052485Y012963D01*
X052409Y013043D02*
X052409Y013343D01*
X052409Y013193D02*
X052860Y013193D01*
X052860Y013264D02*
X052860Y012963D01*
X052860Y013503D02*
X052409Y013503D01*
X052409Y013728D01*
X052485Y013803D01*
X052635Y013803D01*
X052710Y013728D01*
X052710Y013503D01*
X052860Y013963D02*
X052860Y014264D01*
X052860Y014113D02*
X052409Y014113D01*
X052560Y013963D01*
D12*
X031110Y007493D02*
X031110Y006993D01*
X030860Y006743D01*
X030360Y006743D01*
X030110Y006993D01*
X030110Y007493D01*
X030360Y007743D01*
X030860Y007743D01*
X031110Y007493D01*
M02*
