G75*
%MOIN*%
%OFA0B0*%
%FSLAX24Y24*%
%IPPOS*%
%LPD*%
%AMOC8*
5,1,8,0,0,1.08239X$1,22.5*
%
%ADD10C,0.1340*%
%ADD11R,0.0356X0.0434*%
%ADD12R,0.0580X0.0300*%
%ADD13R,0.0300X0.0580*%
%ADD14R,0.0434X0.0356*%
%ADD15OC8,0.0680*%
%ADD16R,0.0280X0.0280*%
%ADD17R,0.0749X0.0474*%
%ADD18C,0.0680*%
%ADD19R,0.0352X0.0474*%
%ADD20R,0.0631X0.0828*%
%ADD21R,0.0789X0.0749*%
%ADD22R,0.0671X0.0907*%
%ADD23R,0.0710X0.0907*%
%ADD24R,0.0907X0.0671*%
%ADD25R,0.0631X0.1576*%
%ADD26C,0.0860*%
%ADD27R,0.0470X0.0352*%
%ADD28R,0.0316X0.0946*%
%ADD29R,0.0907X0.0907*%
%ADD30C,0.0907*%
%ADD31C,0.0555*%
%ADD32C,0.0476*%
D10*
X001632Y008068D03*
X060097Y010430D03*
D11*
X055535Y018680D03*
X054935Y018680D03*
X047660Y020743D03*
X047060Y020743D03*
X047060Y021305D03*
X046535Y021305D03*
X045935Y021305D03*
X047660Y021305D03*
X042035Y021305D03*
X041435Y021305D03*
X040910Y021305D03*
X040310Y021305D03*
X041435Y020743D03*
X042035Y020743D03*
X016410Y017930D03*
X015810Y017930D03*
X010660Y019055D03*
X010060Y019055D03*
X010685Y022868D03*
X011285Y022868D03*
X011285Y023493D03*
X010685Y023493D03*
X007785Y025180D03*
X007185Y025180D03*
X007185Y025805D03*
X007785Y025805D03*
D12*
X011857Y024095D03*
X011857Y023780D03*
X011857Y023465D03*
X011857Y023150D03*
X011857Y022835D03*
X011857Y022520D03*
X011857Y022205D03*
X011857Y021890D03*
X015237Y021890D03*
X015237Y022205D03*
X015237Y022520D03*
X015237Y022835D03*
X015237Y023150D03*
X015237Y023465D03*
X015237Y023780D03*
X015237Y024095D03*
D13*
X014650Y024683D03*
X014335Y024683D03*
X014020Y024683D03*
X013705Y024683D03*
X013390Y024683D03*
X013075Y024683D03*
X012760Y024683D03*
X012445Y024683D03*
X012445Y021303D03*
X012760Y021303D03*
X013075Y021303D03*
X013390Y021303D03*
X013705Y021303D03*
X014020Y021303D03*
X014335Y021303D03*
X014650Y021303D03*
D14*
X015860Y023193D03*
X015860Y023793D03*
X007110Y023293D03*
X007110Y022693D03*
X007422Y028130D03*
X007422Y028730D03*
X009547Y028730D03*
X009547Y028130D03*
X011360Y028130D03*
X011360Y028730D03*
X013485Y028730D03*
X013485Y028130D03*
X015360Y028130D03*
X015360Y028730D03*
X017485Y028730D03*
X017485Y028130D03*
X019235Y028130D03*
X019235Y028730D03*
X021360Y028730D03*
X021360Y028130D03*
X023172Y028130D03*
X023172Y028730D03*
X025297Y028730D03*
X025297Y028130D03*
X027110Y028130D03*
X027110Y028730D03*
X029235Y028730D03*
X029235Y028130D03*
X031110Y028130D03*
X031110Y028730D03*
X033235Y028730D03*
X033235Y028130D03*
X034985Y028130D03*
X034985Y028730D03*
X037110Y028730D03*
X037110Y028130D03*
X038922Y028130D03*
X038922Y028730D03*
X041047Y028730D03*
X041047Y028130D03*
X042860Y028130D03*
X042860Y028730D03*
X044985Y028730D03*
X044985Y028130D03*
X046735Y028130D03*
X046735Y028730D03*
X048860Y028730D03*
X048860Y028130D03*
X050735Y028130D03*
X050735Y028730D03*
X052860Y028730D03*
X052860Y028130D03*
X048297Y022855D03*
X048297Y022255D03*
X046422Y022380D03*
X046422Y022980D03*
X042672Y022855D03*
X042672Y022255D03*
X039735Y022943D03*
X039735Y023543D03*
X018860Y018105D03*
X018860Y017505D03*
D15*
X030672Y022555D03*
X006235Y022055D03*
X005235Y022055D03*
X005235Y023055D03*
X006235Y023055D03*
X006235Y024055D03*
X005235Y024055D03*
X030610Y007243D03*
D16*
X031547Y028073D03*
X031547Y028413D03*
X035422Y028413D03*
X035422Y028073D03*
X039360Y028073D03*
X039360Y028413D03*
X043297Y028413D03*
X043297Y028073D03*
X047172Y028073D03*
X047172Y028413D03*
X051172Y028413D03*
X051172Y028073D03*
X027547Y028073D03*
X027547Y028413D03*
X023610Y028413D03*
X023610Y028073D03*
X019672Y028073D03*
X019672Y028413D03*
X015797Y028413D03*
X015797Y028073D03*
X011797Y028073D03*
X011797Y028413D03*
X007860Y028413D03*
X007860Y028073D03*
D17*
X006735Y028155D03*
X006735Y028955D03*
X010672Y028955D03*
X010672Y028155D03*
X014672Y028155D03*
X014672Y028955D03*
X018547Y028955D03*
X018547Y028155D03*
X022485Y028155D03*
X022485Y028955D03*
X026422Y028955D03*
X026422Y028155D03*
X030422Y028155D03*
X030422Y028955D03*
X034297Y028955D03*
X034297Y028155D03*
X038235Y028155D03*
X038235Y028955D03*
X042172Y028955D03*
X042172Y028155D03*
X046047Y028155D03*
X046047Y028955D03*
X050047Y028955D03*
X050047Y028155D03*
D18*
X005472Y002368D02*
X004872Y002368D01*
X004872Y003368D02*
X005472Y003368D01*
X005472Y004368D02*
X004872Y004368D01*
X004872Y011368D02*
X005472Y011368D01*
X005472Y012368D02*
X004872Y012368D01*
X004872Y013368D02*
X005472Y013368D01*
X005535Y017680D02*
X004935Y017680D01*
X004935Y018680D02*
X005535Y018680D01*
X005535Y019680D02*
X004935Y019680D01*
X004935Y026680D02*
X005535Y026680D01*
X005535Y027680D02*
X004935Y027680D01*
X004935Y028680D02*
X005535Y028680D01*
X056122Y028680D02*
X056722Y028680D01*
X056722Y027680D02*
X056122Y027680D01*
X056122Y026680D02*
X056722Y026680D01*
X056722Y019680D02*
X056122Y019680D01*
X056122Y018680D02*
X056722Y018680D01*
X056722Y017680D02*
X056122Y017680D01*
X056060Y013368D02*
X056660Y013368D01*
X056660Y012368D02*
X056060Y012368D01*
X056060Y011368D02*
X056660Y011368D01*
X056660Y004368D02*
X056060Y004368D01*
X056060Y003368D02*
X056660Y003368D01*
X056660Y002368D02*
X056060Y002368D01*
D19*
X047734Y021918D03*
X047360Y021918D03*
X046986Y021918D03*
X046986Y022942D03*
X047360Y022942D03*
X047734Y022942D03*
X042109Y022942D03*
X041735Y022942D03*
X041361Y022942D03*
X041361Y021918D03*
X041735Y021918D03*
X042109Y021918D03*
D20*
X042304Y024743D03*
X044666Y024743D03*
X047991Y024743D03*
X050353Y024743D03*
D21*
X050042Y021555D03*
X048428Y021555D03*
X044417Y021555D03*
X042803Y021555D03*
D22*
X042069Y023743D03*
X040651Y023743D03*
X046339Y023743D03*
X047756Y023743D03*
D23*
X049310Y022805D03*
X050410Y022805D03*
X044785Y022805D03*
X043685Y022805D03*
D24*
X051485Y022096D03*
X052422Y022096D03*
X053360Y022096D03*
X054297Y022096D03*
X054297Y023514D03*
X053360Y023514D03*
X052422Y023514D03*
X051485Y023514D03*
D25*
X051985Y020674D03*
X051985Y018311D03*
D26*
X053345Y013368D02*
X054125Y013368D01*
X054125Y012368D02*
X053345Y012368D01*
D27*
X018122Y017931D03*
X018122Y018679D03*
X017102Y018679D03*
X017102Y018305D03*
X017102Y017931D03*
D28*
X020735Y018869D03*
X021235Y018869D03*
X021735Y018869D03*
X022235Y018869D03*
X022735Y018869D03*
X023235Y018869D03*
X023735Y018869D03*
X024235Y018869D03*
X024235Y022491D03*
X023735Y022491D03*
X023235Y022491D03*
X022735Y022491D03*
X022235Y022491D03*
X021735Y022491D03*
X021235Y022491D03*
X020735Y022491D03*
D29*
X034110Y005680D03*
D30*
X033110Y005680D03*
X032110Y005680D03*
X031110Y005680D03*
X030110Y005680D03*
X029110Y005680D03*
X028110Y005680D03*
X027110Y005680D03*
X027110Y008680D03*
X028110Y008680D03*
X029110Y008680D03*
X030110Y008680D03*
X031110Y008680D03*
X032110Y008680D03*
X033110Y008680D03*
X034110Y008680D03*
D31*
X052860Y025430D03*
D32*
X053485Y024180D03*
X045610Y022368D03*
X051172Y019993D03*
X039547Y019993D03*
X043797Y028805D03*
M02*
