G75*
%MOIN*%
%OFA0B0*%
%FSLAX24Y24*%
%IPPOS*%
%LPD*%
%AMOC8*
5,1,8,0,0,1.08239X$1,22.5*
%
%ADD10OC8,0.0600*%
%ADD11R,0.0126X0.1181*%
%ADD12C,0.0600*%
%ADD13C,0.0780*%
%ADD14R,0.0827X0.0827*%
%ADD15C,0.0827*%
%ADD16C,0.0278*%
%ADD17C,0.0120*%
%ADD18C,0.0079*%
%ADD19C,0.0357*%
%ADD20C,0.0320*%
%ADD21C,0.0475*%
%ADD22C,0.0240*%
%ADD23C,0.0396*%
%ADD24C,0.0160*%
D10*
X030610Y007243D03*
X006235Y022055D03*
X005235Y022055D03*
X005235Y023055D03*
X006235Y023055D03*
X006235Y024055D03*
X005235Y024055D03*
X030672Y022555D03*
D11*
X031046Y026885D03*
X031290Y026885D03*
X031535Y026885D03*
X031779Y026885D03*
X032023Y026885D03*
X032267Y026885D03*
X032511Y026885D03*
X032755Y026885D03*
X032999Y026885D03*
X033243Y026885D03*
X033487Y026885D03*
X033731Y026885D03*
X033975Y026885D03*
X034220Y026885D03*
X034921Y026885D03*
X035165Y026885D03*
X035410Y026885D03*
X035654Y026885D03*
X035898Y026885D03*
X036142Y026885D03*
X036386Y026885D03*
X036630Y026885D03*
X036874Y026885D03*
X037118Y026885D03*
X037362Y026885D03*
X037606Y026885D03*
X037850Y026885D03*
X038095Y026885D03*
X038859Y026885D03*
X039103Y026885D03*
X039347Y026885D03*
X039591Y026885D03*
X039835Y026885D03*
X040079Y026885D03*
X040323Y026885D03*
X040568Y026885D03*
X040812Y026885D03*
X041056Y026885D03*
X041300Y026885D03*
X041544Y026885D03*
X041788Y026885D03*
X042032Y026885D03*
X042796Y026885D03*
X043040Y026885D03*
X043285Y026885D03*
X043529Y026885D03*
X043773Y026885D03*
X044017Y026885D03*
X044261Y026885D03*
X044505Y026885D03*
X044749Y026885D03*
X044993Y026885D03*
X045237Y026885D03*
X045481Y026885D03*
X045725Y026885D03*
X045970Y026885D03*
X046671Y026885D03*
X046915Y026885D03*
X047160Y026885D03*
X047404Y026885D03*
X047648Y026885D03*
X047892Y026885D03*
X048136Y026885D03*
X048380Y026885D03*
X048624Y026885D03*
X048868Y026885D03*
X049112Y026885D03*
X049356Y026885D03*
X049600Y026885D03*
X049845Y026885D03*
X050671Y026885D03*
X050915Y026885D03*
X051160Y026885D03*
X051404Y026885D03*
X051648Y026885D03*
X051892Y026885D03*
X052136Y026885D03*
X052380Y026885D03*
X052624Y026885D03*
X052868Y026885D03*
X053112Y026885D03*
X053356Y026885D03*
X053600Y026885D03*
X053845Y026885D03*
X030220Y026885D03*
X029975Y026885D03*
X029731Y026885D03*
X029487Y026885D03*
X029243Y026885D03*
X028999Y026885D03*
X028755Y026885D03*
X028511Y026885D03*
X028267Y026885D03*
X028023Y026885D03*
X027779Y026885D03*
X027535Y026885D03*
X027290Y026885D03*
X027046Y026885D03*
X026282Y026885D03*
X026038Y026885D03*
X025794Y026885D03*
X025550Y026885D03*
X025306Y026885D03*
X025062Y026885D03*
X024818Y026885D03*
X024573Y026885D03*
X024329Y026885D03*
X024085Y026885D03*
X023841Y026885D03*
X023597Y026885D03*
X023353Y026885D03*
X023109Y026885D03*
X022345Y026885D03*
X022100Y026885D03*
X021856Y026885D03*
X021612Y026885D03*
X021368Y026885D03*
X021124Y026885D03*
X020880Y026885D03*
X020636Y026885D03*
X020392Y026885D03*
X020148Y026885D03*
X019904Y026885D03*
X019660Y026885D03*
X019415Y026885D03*
X019171Y026885D03*
X018470Y026885D03*
X018225Y026885D03*
X017981Y026885D03*
X017737Y026885D03*
X017493Y026885D03*
X017249Y026885D03*
X017005Y026885D03*
X016761Y026885D03*
X016517Y026885D03*
X016273Y026885D03*
X016029Y026885D03*
X015785Y026885D03*
X015540Y026885D03*
X015296Y026885D03*
X014470Y026885D03*
X014225Y026885D03*
X013981Y026885D03*
X013737Y026885D03*
X013493Y026885D03*
X013249Y026885D03*
X013005Y026885D03*
X012761Y026885D03*
X012517Y026885D03*
X012273Y026885D03*
X012029Y026885D03*
X011785Y026885D03*
X011540Y026885D03*
X011296Y026885D03*
X010532Y026885D03*
X010288Y026885D03*
X010044Y026885D03*
X009800Y026885D03*
X009556Y026885D03*
X009312Y026885D03*
X009068Y026885D03*
X008823Y026885D03*
X008579Y026885D03*
X008335Y026885D03*
X008091Y026885D03*
X007847Y026885D03*
X007603Y026885D03*
X007359Y026885D03*
D12*
X005535Y026680D02*
X004935Y026680D01*
X004935Y027680D02*
X005535Y027680D01*
X005535Y028680D02*
X004935Y028680D01*
X004935Y019680D02*
X005535Y019680D01*
X005535Y018680D02*
X004935Y018680D01*
X004935Y017680D02*
X005535Y017680D01*
X005472Y013368D02*
X004872Y013368D01*
X004872Y012368D02*
X005472Y012368D01*
X005472Y011368D02*
X004872Y011368D01*
X004872Y004368D02*
X005472Y004368D01*
X005472Y003368D02*
X004872Y003368D01*
X004872Y002368D02*
X005472Y002368D01*
X056060Y002368D02*
X056660Y002368D01*
X056660Y003368D02*
X056060Y003368D01*
X056060Y004368D02*
X056660Y004368D01*
X056660Y011368D02*
X056060Y011368D01*
X056060Y012368D02*
X056660Y012368D01*
X056660Y013368D02*
X056060Y013368D01*
X056122Y017680D02*
X056722Y017680D01*
X056722Y018680D02*
X056122Y018680D01*
X056122Y019680D02*
X056722Y019680D01*
X056722Y026680D02*
X056122Y026680D01*
X056122Y027680D02*
X056722Y027680D01*
X056722Y028680D02*
X056122Y028680D01*
D13*
X054125Y013368D02*
X053345Y013368D01*
X053345Y012368D02*
X054125Y012368D01*
D14*
X034110Y005680D03*
D15*
X033110Y005680D03*
X032110Y005680D03*
X031110Y005680D03*
X030110Y005680D03*
X029110Y005680D03*
X028110Y005680D03*
X027110Y005680D03*
X027110Y008680D03*
X028110Y008680D03*
X029110Y008680D03*
X030110Y008680D03*
X031110Y008680D03*
X032110Y008680D03*
X033110Y008680D03*
X034110Y008680D03*
D16*
X028422Y009993D03*
X015422Y017930D03*
X016422Y019368D03*
X014172Y020680D03*
X013172Y020430D03*
X012860Y020180D03*
X012485Y020868D03*
X011547Y021430D03*
X011860Y021618D03*
X011110Y022180D03*
X010360Y022868D03*
X010360Y023493D03*
X012360Y023118D03*
X012360Y022493D03*
X013360Y021993D03*
X014735Y022805D03*
X014610Y023493D03*
X014610Y024055D03*
X014922Y024743D03*
X014891Y025118D03*
X014047Y025055D03*
X013735Y025305D03*
X013422Y025555D03*
X012610Y026055D03*
X012297Y025805D03*
X011985Y025555D03*
X011422Y025805D03*
X011297Y025430D03*
X011735Y026055D03*
X009235Y025368D03*
X008922Y025118D03*
X009485Y024618D03*
X007110Y023618D03*
X006860Y025180D03*
X006860Y025805D03*
X009047Y027743D03*
X009556Y027743D03*
X010735Y027805D03*
X011360Y027805D03*
X011797Y027805D03*
X012985Y027743D03*
X013493Y027743D03*
X014735Y027805D03*
X015360Y027805D03*
X015797Y027805D03*
X016985Y027743D03*
X017493Y027743D03*
X017047Y028305D03*
X018610Y027805D03*
X019235Y027805D03*
X019672Y027805D03*
X020860Y027743D03*
X021368Y027743D03*
X022547Y027805D03*
X023172Y027805D03*
X023610Y027805D03*
X024797Y027743D03*
X025306Y027743D03*
X026485Y027805D03*
X027110Y027805D03*
X027547Y027805D03*
X028735Y027743D03*
X029243Y027743D03*
X030485Y027805D03*
X031110Y027805D03*
X031547Y027805D03*
X032735Y027743D03*
X033243Y027743D03*
X034360Y027805D03*
X034985Y027805D03*
X035422Y027805D03*
X036610Y027743D03*
X037118Y027743D03*
X038297Y027805D03*
X038922Y027805D03*
X039360Y027805D03*
X040547Y027743D03*
X041056Y027743D03*
X042235Y027805D03*
X042860Y027805D03*
X043297Y027805D03*
X044485Y027743D03*
X044993Y027743D03*
X046110Y027805D03*
X046735Y027805D03*
X047172Y027805D03*
X048360Y027743D03*
X048868Y027743D03*
X050110Y027805D03*
X050735Y027805D03*
X051172Y027805D03*
X052360Y027743D03*
X052868Y027743D03*
X051985Y026055D03*
X051672Y025805D03*
X051110Y026055D03*
X050797Y025805D03*
X047985Y026055D03*
X047672Y025805D03*
X047110Y026055D03*
X046860Y025805D03*
X044110Y026055D03*
X043797Y025805D03*
X043297Y026055D03*
X042985Y025805D03*
X040172Y026055D03*
X039860Y025805D03*
X039360Y026055D03*
X039047Y025805D03*
X038672Y024430D03*
X040172Y024055D03*
X040172Y023743D03*
X040172Y023430D03*
X041547Y022305D03*
X041860Y022305D03*
X043172Y022493D03*
X043172Y022805D03*
X043172Y023118D03*
X045860Y023430D03*
X045860Y023743D03*
X045860Y024055D03*
X048797Y023118D03*
X048797Y022805D03*
X048797Y022493D03*
X047485Y022305D03*
X047172Y022305D03*
X045610Y021305D03*
X039985Y021305D03*
X035922Y025805D03*
X036235Y026055D03*
X035422Y026055D03*
X035172Y025805D03*
X032360Y026055D03*
X032047Y025805D03*
X031547Y026055D03*
X031297Y025805D03*
X028360Y026055D03*
X028047Y025805D03*
X027547Y026055D03*
X027235Y025805D03*
X024422Y026055D03*
X024110Y025805D03*
X023547Y026055D03*
X023297Y025805D03*
X020422Y026055D03*
X020172Y025805D03*
X019547Y026055D03*
X019297Y025805D03*
X016610Y026055D03*
X016297Y025805D03*
X015735Y025805D03*
X015454Y026055D03*
X013047Y024118D03*
X015797Y022805D03*
X016297Y022180D03*
X016297Y021805D03*
X016297Y021430D03*
X016297Y021055D03*
X014985Y020993D03*
X018235Y022930D03*
X021360Y021305D03*
X022235Y021305D03*
X023235Y021930D03*
X024610Y022493D03*
X025110Y023305D03*
X020860Y019930D03*
X020485Y019868D03*
X020047Y019993D03*
X021735Y019618D03*
X022235Y019493D03*
X023735Y019493D03*
X023735Y018305D03*
X022735Y018305D03*
X011110Y019055D03*
X009735Y019055D03*
X007860Y027805D03*
X007422Y027805D03*
X006797Y027805D03*
X006735Y029368D03*
X007422Y029368D03*
X007860Y029368D03*
X009547Y029368D03*
X010672Y029368D03*
X011360Y029368D03*
X011797Y029368D03*
X013485Y029368D03*
X014672Y029368D03*
X015360Y029368D03*
X015797Y029368D03*
X017485Y029368D03*
X018547Y029368D03*
X019235Y029368D03*
X019672Y029368D03*
X021360Y029368D03*
X022485Y029368D03*
X023172Y029368D03*
X023610Y029368D03*
X025297Y029368D03*
X026422Y029368D03*
X027110Y029368D03*
X027547Y029368D03*
X029235Y029368D03*
X030422Y029368D03*
X031110Y029368D03*
X031547Y029368D03*
X033235Y029368D03*
X034297Y029368D03*
X034985Y029368D03*
X035422Y029368D03*
X037110Y029368D03*
X038235Y029368D03*
X038922Y029368D03*
X039360Y029368D03*
X041047Y029368D03*
X042172Y029368D03*
X042860Y029368D03*
X043297Y029368D03*
X044985Y029368D03*
X046047Y029368D03*
X046735Y029368D03*
X047172Y029368D03*
X048860Y029368D03*
X050047Y029368D03*
X050735Y029368D03*
X051172Y029368D03*
X052860Y029368D03*
X054360Y018180D03*
D17*
X052868Y025438D02*
X052868Y027743D01*
X052868Y026885D01*
X052380Y026885D02*
X052380Y027722D01*
X052360Y027743D01*
X051172Y027805D02*
X051160Y027792D01*
X051160Y026885D01*
X050915Y026885D02*
X050915Y027624D01*
X050735Y027805D01*
X050485Y027680D02*
X050235Y027680D01*
X050110Y027805D01*
X050485Y027680D02*
X050671Y027493D01*
X050671Y026885D01*
X048868Y026885D02*
X048868Y027743D01*
X048380Y027722D02*
X048360Y027743D01*
X048380Y027722D02*
X048380Y026885D01*
X047160Y026885D02*
X047160Y027792D01*
X047172Y027805D01*
X046915Y027624D02*
X046735Y027805D01*
X046915Y027624D02*
X046915Y026885D01*
X046671Y026885D02*
X046671Y027493D01*
X046485Y027680D01*
X046235Y027680D01*
X046110Y027805D01*
X044993Y027743D02*
X044993Y026885D01*
X044505Y026885D02*
X044505Y027722D01*
X044485Y027743D01*
X043297Y027805D02*
X043285Y027792D01*
X043285Y026885D01*
X043040Y026885D02*
X043040Y027624D01*
X042860Y027805D01*
X042610Y027680D02*
X042360Y027680D01*
X042235Y027805D01*
X042610Y027680D02*
X042796Y027493D01*
X042796Y026885D01*
X041056Y026885D02*
X041056Y027743D01*
X040568Y027722D02*
X040547Y027743D01*
X040568Y027722D02*
X040568Y026885D01*
X039347Y026885D02*
X039347Y027792D01*
X039360Y027805D01*
X039103Y027624D02*
X038922Y027805D01*
X039103Y027624D02*
X039103Y026885D01*
X038859Y026885D02*
X038859Y027493D01*
X038672Y027680D01*
X038422Y027680D01*
X038297Y027805D01*
X037118Y027743D02*
X037118Y026885D01*
X036630Y026885D02*
X036630Y027722D01*
X036610Y027743D01*
X035422Y027805D02*
X035410Y027792D01*
X035410Y026885D01*
X035165Y026885D02*
X035165Y027624D01*
X034985Y027805D01*
X034735Y027680D02*
X034485Y027680D01*
X034360Y027805D01*
X034735Y027680D02*
X034921Y027493D01*
X034921Y026885D01*
X033243Y026885D02*
X033243Y027743D01*
X032755Y027722D02*
X032735Y027743D01*
X032755Y027722D02*
X032755Y026885D01*
X031535Y026885D02*
X031535Y027792D01*
X031547Y027805D01*
X031290Y027624D02*
X031110Y027805D01*
X031290Y027624D02*
X031290Y026885D01*
X031046Y026885D02*
X031046Y027493D01*
X030860Y027680D01*
X030610Y027680D01*
X030485Y027805D01*
X029243Y027743D02*
X029243Y026885D01*
X028755Y026885D02*
X028755Y027722D01*
X028735Y027743D01*
X027547Y027805D02*
X027535Y027792D01*
X027535Y026885D01*
X027290Y026885D02*
X027290Y027624D01*
X027110Y027805D01*
X026860Y027680D02*
X026610Y027680D01*
X026485Y027805D01*
X026860Y027680D02*
X027046Y027493D01*
X027046Y026885D01*
X025306Y026885D02*
X025306Y027743D01*
X024818Y027722D02*
X024797Y027743D01*
X024818Y027722D02*
X024818Y026885D01*
X023597Y026885D02*
X023597Y027792D01*
X023610Y027805D01*
X023353Y027624D02*
X023172Y027805D01*
X023353Y027624D02*
X023353Y026885D01*
X023109Y026885D02*
X023109Y027493D01*
X022922Y027680D01*
X022672Y027680D01*
X022547Y027805D01*
X021368Y027743D02*
X021368Y026885D01*
X020880Y026885D02*
X020880Y027722D01*
X020860Y027743D01*
X019672Y027805D02*
X019660Y027792D01*
X019660Y026885D01*
X019415Y026885D02*
X019415Y027624D01*
X019235Y027805D01*
X018985Y027680D02*
X018735Y027680D01*
X018610Y027805D01*
X018985Y027680D02*
X019171Y027493D01*
X019171Y026885D01*
X017493Y026885D02*
X017493Y027743D01*
X017005Y027722D02*
X016985Y027743D01*
X017005Y027722D02*
X017005Y026885D01*
X015785Y026885D02*
X015785Y027792D01*
X015797Y027805D01*
X015540Y027624D02*
X015360Y027805D01*
X015540Y027624D02*
X015540Y026885D01*
X015296Y026885D02*
X015296Y027493D01*
X015110Y027680D01*
X014860Y027680D01*
X014735Y027805D01*
X013493Y027743D02*
X013493Y026885D01*
X013005Y026885D02*
X013005Y027722D01*
X012985Y027743D01*
X011797Y027805D02*
X011785Y027792D01*
X011785Y026885D01*
X011540Y026885D02*
X011540Y027624D01*
X011360Y027805D01*
X011110Y027680D02*
X010860Y027680D01*
X010735Y027805D01*
X011110Y027680D02*
X011296Y027493D01*
X011296Y026885D01*
X009556Y026885D02*
X009556Y027743D01*
X009068Y027722D02*
X009047Y027743D01*
X009068Y027722D02*
X009068Y026885D01*
X007847Y026885D02*
X007847Y027792D01*
X007860Y027805D01*
X007603Y027624D02*
X007422Y027805D01*
X007603Y027624D02*
X007603Y026885D01*
X007359Y026885D02*
X007359Y027493D01*
X007172Y027680D01*
X006922Y027680D01*
X006797Y027805D01*
D18*
X006786Y027507D02*
X006831Y027461D01*
X007081Y027461D01*
X007136Y027406D01*
X007136Y026228D01*
X007230Y026135D01*
X007892Y026135D01*
X007892Y025991D01*
X008349Y025535D01*
X008465Y025419D01*
X008936Y025419D01*
X008936Y025416D01*
X008863Y025416D01*
X008753Y025370D01*
X008669Y025287D01*
X008624Y025177D01*
X008624Y025058D01*
X008669Y024948D01*
X008753Y024865D01*
X008863Y024819D01*
X008982Y024819D01*
X009091Y024865D01*
X009146Y024919D01*
X009528Y024919D01*
X009530Y024916D01*
X009425Y024916D01*
X009316Y024870D01*
X009232Y024787D01*
X009186Y024677D01*
X009186Y024600D01*
X008403Y023816D01*
X007333Y023816D01*
X007279Y023870D01*
X007169Y023916D01*
X007050Y023916D01*
X006941Y023870D01*
X006887Y023816D01*
X006646Y023816D01*
X006694Y023865D01*
X006694Y024245D01*
X006425Y024514D01*
X006045Y024514D01*
X005775Y024245D01*
X005775Y023865D01*
X005824Y023816D01*
X005755Y023816D01*
X005694Y023877D01*
X005694Y024245D01*
X005425Y024514D01*
X005045Y024514D01*
X004775Y024245D01*
X004775Y023865D01*
X005045Y023596D01*
X005413Y023596D01*
X005590Y023419D01*
X005949Y023419D01*
X005775Y023245D01*
X005775Y022865D01*
X006045Y022596D01*
X006425Y022596D01*
X006694Y022865D01*
X006694Y023245D01*
X006521Y023419D01*
X006887Y023419D01*
X006941Y023365D01*
X007050Y023319D01*
X007169Y023319D01*
X007279Y023365D01*
X007333Y023419D01*
X008567Y023419D01*
X009467Y024319D01*
X009536Y024319D01*
X009536Y020910D01*
X009786Y020660D01*
X009903Y020544D01*
X010965Y020544D01*
X011286Y020223D01*
X011286Y019535D01*
X011693Y019129D01*
X011402Y019129D01*
X011363Y019224D01*
X011279Y019308D01*
X011169Y019353D01*
X011050Y019353D01*
X010941Y019308D01*
X010857Y019224D01*
X010811Y019114D01*
X010811Y018996D01*
X010857Y018886D01*
X010864Y018879D01*
X009981Y018879D01*
X009988Y018886D01*
X010033Y018996D01*
X010033Y019114D01*
X009988Y019224D01*
X009904Y019308D01*
X009794Y019353D01*
X009717Y019353D01*
X009192Y019879D01*
X005950Y019879D01*
X005924Y019940D01*
X005795Y020069D01*
X005626Y020139D01*
X004843Y020139D01*
X004724Y020090D01*
X004724Y026270D01*
X004843Y026221D01*
X005626Y026221D01*
X005795Y026291D01*
X005924Y026420D01*
X005933Y026441D01*
X006073Y026441D01*
X006120Y026393D01*
X006120Y025632D01*
X006157Y025544D01*
X006561Y025140D01*
X006561Y025121D01*
X006607Y025011D01*
X006691Y024927D01*
X006800Y024882D01*
X006919Y024882D01*
X007029Y024927D01*
X007113Y025011D01*
X007158Y025121D01*
X007158Y025239D01*
X007113Y025349D01*
X007029Y025433D01*
X006919Y025478D01*
X006900Y025478D01*
X006872Y025507D01*
X006919Y025507D01*
X007029Y025552D01*
X007113Y025636D01*
X007158Y025746D01*
X007158Y025864D01*
X007113Y025974D01*
X007029Y026058D01*
X006919Y026103D01*
X006912Y026103D01*
X006912Y027228D01*
X006875Y027316D01*
X006808Y027383D01*
X006646Y027545D01*
X006738Y027507D01*
X006786Y027507D01*
X006712Y027517D02*
X006674Y027517D01*
X006751Y027440D02*
X007102Y027440D01*
X007136Y027363D02*
X006828Y027363D01*
X006888Y027286D02*
X007136Y027286D01*
X007136Y027208D02*
X006912Y027208D01*
X006912Y027131D02*
X007136Y027131D01*
X007136Y027054D02*
X006912Y027054D01*
X006912Y026977D02*
X007136Y026977D01*
X007136Y026899D02*
X006912Y026899D01*
X006912Y026822D02*
X007136Y026822D01*
X007136Y026745D02*
X006912Y026745D01*
X006912Y026668D02*
X007136Y026668D01*
X007136Y026590D02*
X006912Y026590D01*
X006912Y026513D02*
X007136Y026513D01*
X007136Y026436D02*
X006912Y026436D01*
X006912Y026359D02*
X007136Y026359D01*
X007136Y026281D02*
X006912Y026281D01*
X006912Y026204D02*
X007160Y026204D01*
X007037Y026050D02*
X007892Y026050D01*
X007892Y026127D02*
X006912Y026127D01*
X007113Y025972D02*
X007911Y025972D01*
X007989Y025895D02*
X007145Y025895D01*
X007158Y025818D02*
X008066Y025818D01*
X008143Y025741D02*
X007156Y025741D01*
X007124Y025663D02*
X008220Y025663D01*
X008298Y025586D02*
X007063Y025586D01*
X007030Y025432D02*
X008452Y025432D01*
X008375Y025509D02*
X006925Y025509D01*
X007107Y025355D02*
X008737Y025355D01*
X008666Y025277D02*
X007143Y025277D01*
X007158Y025200D02*
X008634Y025200D01*
X008624Y025123D02*
X007158Y025123D01*
X007127Y025046D02*
X008629Y025046D01*
X008661Y024968D02*
X007070Y024968D01*
X006942Y024891D02*
X008727Y024891D01*
X008922Y025118D02*
X009610Y025118D01*
X009735Y024993D01*
X009735Y020993D01*
X009985Y020743D01*
X011047Y020743D01*
X011485Y020305D01*
X011485Y019618D01*
X011985Y019118D01*
X019422Y019118D01*
X020422Y018118D01*
X022547Y018118D01*
X022735Y018305D01*
X023047Y018180D02*
X023047Y019305D01*
X022860Y019493D01*
X022235Y019493D01*
X021985Y019868D02*
X021735Y019618D01*
X021985Y019868D02*
X036547Y019868D01*
X038172Y018243D01*
X054297Y018243D01*
X054360Y018180D01*
X054547Y018368D02*
X055047Y018368D01*
X055172Y018493D01*
X055172Y019055D01*
X055797Y019680D01*
X056422Y019680D01*
X056031Y019221D02*
X056814Y019221D01*
X056983Y019291D01*
X057112Y019420D01*
X057182Y019589D01*
X057182Y019771D01*
X057112Y019940D01*
X056983Y020069D01*
X056814Y020139D01*
X056031Y020139D01*
X055862Y020069D01*
X055733Y019940D01*
X055702Y019866D01*
X055599Y019762D01*
X054974Y019137D01*
X054974Y018575D01*
X054965Y018566D01*
X054630Y018566D01*
X054567Y018629D01*
X038380Y018629D01*
X036630Y020379D01*
X020380Y020379D01*
X020317Y020441D01*
X020215Y020441D01*
X021061Y021288D01*
X021061Y021246D01*
X021107Y021136D01*
X021191Y021052D01*
X021300Y021007D01*
X021419Y021007D01*
X021529Y021052D01*
X021583Y021106D01*
X022012Y021106D01*
X022066Y021052D01*
X022175Y021007D01*
X022294Y021007D01*
X022404Y021052D01*
X022488Y021136D01*
X022533Y021246D01*
X022533Y021364D01*
X022488Y021474D01*
X022418Y021544D01*
X023130Y021544D01*
X023217Y021632D01*
X023294Y021632D01*
X023404Y021677D01*
X023488Y021761D01*
X023533Y021871D01*
X023533Y021989D01*
X023488Y022099D01*
X023404Y022183D01*
X023294Y022228D01*
X023175Y022228D01*
X023066Y022183D01*
X022982Y022099D01*
X022936Y021989D01*
X022936Y021941D01*
X021153Y021941D01*
X021036Y021825D01*
X019778Y020566D01*
X016840Y020566D01*
X018067Y021794D01*
X018184Y021910D01*
X018184Y022632D01*
X018294Y022632D01*
X018404Y022677D01*
X018488Y022761D01*
X018533Y022871D01*
X018533Y022947D01*
X018755Y023169D01*
X024630Y023169D01*
X024746Y023285D01*
X024811Y023351D01*
X024811Y023246D01*
X024830Y023200D01*
X024830Y023108D01*
X024487Y022765D01*
X024441Y022745D01*
X024357Y022662D01*
X024311Y022552D01*
X024311Y022433D01*
X024357Y022323D01*
X024441Y022240D01*
X024550Y022194D01*
X024669Y022194D01*
X024779Y022240D01*
X024863Y022323D01*
X024882Y022369D01*
X025268Y022756D01*
X025347Y022834D01*
X025389Y022937D01*
X025389Y023200D01*
X025408Y023246D01*
X025408Y023364D01*
X025386Y023419D01*
X028630Y023419D01*
X028746Y023535D01*
X028942Y023731D01*
X032567Y023731D01*
X032684Y023848D01*
X032817Y023981D01*
X036192Y023981D01*
X036309Y024098D01*
X036442Y024231D01*
X038449Y024231D01*
X038503Y024177D01*
X038613Y024132D01*
X038732Y024132D01*
X038841Y024177D01*
X038925Y024261D01*
X038971Y024371D01*
X038971Y024481D01*
X039880Y024481D01*
X040130Y024731D01*
X043692Y024731D01*
X043942Y024981D01*
X047442Y024981D01*
X047692Y025231D01*
X051255Y025231D01*
X051486Y025463D01*
X051554Y025531D01*
X051613Y025507D01*
X051732Y025507D01*
X051841Y025552D01*
X051925Y025636D01*
X051971Y025746D01*
X051971Y025757D01*
X052044Y025757D01*
X052154Y025802D01*
X052238Y025886D01*
X052283Y025996D01*
X052283Y026114D01*
X052272Y026142D01*
X052288Y026158D01*
X052299Y026155D01*
X052380Y026155D01*
X052380Y026885D01*
X052380Y027615D01*
X052331Y027615D01*
X052246Y027700D01*
X052246Y027785D01*
X052255Y027794D01*
X052482Y027794D01*
X052549Y027727D01*
X052549Y027679D01*
X052567Y027635D01*
X052495Y027635D01*
X052472Y027612D01*
X052461Y027615D01*
X052380Y027615D01*
X052380Y026885D01*
X052380Y026885D01*
X052380Y026155D01*
X052461Y026155D01*
X052472Y026158D01*
X052495Y026135D01*
X052649Y026135D01*
X052649Y025772D01*
X052635Y025766D01*
X052523Y025655D01*
X052463Y025509D01*
X051738Y025509D01*
X051607Y025509D02*
X051532Y025509D01*
X051455Y025432D02*
X052463Y025432D01*
X052463Y025509D02*
X052463Y025351D01*
X052523Y025205D01*
X052635Y025094D01*
X052781Y025033D01*
X052939Y025033D01*
X053085Y025094D01*
X053196Y025205D01*
X053257Y025351D01*
X053257Y025509D01*
X053196Y025655D01*
X053088Y025763D01*
X053088Y026135D01*
X053974Y026135D01*
X054067Y026228D01*
X054067Y027541D01*
X053974Y027635D01*
X053169Y027635D01*
X053188Y027679D01*
X053188Y027923D01*
X053139Y028040D01*
X053049Y028130D01*
X052603Y028576D01*
X052486Y028624D01*
X049651Y028624D01*
X049698Y028738D01*
X049698Y028872D01*
X049646Y028996D01*
X049551Y029091D01*
X049427Y029143D01*
X049293Y029143D01*
X049248Y029124D01*
X045534Y029124D01*
X045490Y029143D01*
X045355Y029143D01*
X045311Y029124D01*
X043960Y029124D01*
X043868Y029162D01*
X043726Y029162D01*
X043634Y029124D01*
X041659Y029124D01*
X041615Y029143D01*
X041480Y029143D01*
X041436Y029124D01*
X037722Y029124D01*
X037677Y029143D01*
X037543Y029143D01*
X037498Y029124D01*
X033784Y029124D01*
X033740Y029143D01*
X033605Y029143D01*
X033561Y029124D01*
X029909Y029124D01*
X029865Y029143D01*
X029730Y029143D01*
X029686Y029124D01*
X025909Y029124D01*
X025865Y029143D01*
X025730Y029143D01*
X025686Y029124D01*
X021972Y029124D01*
X021927Y029143D01*
X021793Y029143D01*
X021748Y029124D01*
X018034Y029124D01*
X017990Y029143D01*
X017855Y029143D01*
X017811Y029124D01*
X014159Y029124D01*
X014115Y029143D01*
X013980Y029143D01*
X013936Y029124D01*
X010159Y029124D01*
X010115Y029143D01*
X009980Y029143D01*
X009936Y029124D01*
X006671Y029124D01*
X006554Y029076D01*
X005963Y028485D01*
X005949Y028479D01*
X005994Y028589D01*
X005994Y028771D01*
X005924Y028940D01*
X005795Y029069D01*
X005626Y029139D01*
X004843Y029139D01*
X004434Y029139D01*
X004434Y029062D02*
X004667Y029062D01*
X004675Y029069D02*
X004545Y028940D01*
X004532Y028907D01*
X004532Y028908D02*
X004434Y028908D01*
X004474Y028883D02*
X004434Y028842D01*
X004434Y029481D01*
X057224Y029481D01*
X057224Y016680D01*
X004434Y016680D01*
X004434Y017018D01*
X004532Y016919D01*
X004599Y016852D01*
X004687Y016816D01*
X022532Y016816D01*
X022620Y016852D01*
X023775Y018007D01*
X023794Y018007D01*
X023904Y018052D01*
X023988Y018136D01*
X024033Y018246D01*
X024033Y018364D01*
X023988Y018474D01*
X023904Y018558D01*
X023794Y018603D01*
X023675Y018603D01*
X023566Y018558D01*
X023482Y018474D01*
X023436Y018364D01*
X023436Y018345D01*
X023246Y018155D01*
X023246Y018262D01*
X023246Y019387D01*
X023059Y019575D01*
X022965Y019669D01*
X023489Y019669D01*
X023482Y019662D01*
X023436Y019552D01*
X023436Y019433D01*
X023482Y019323D01*
X023566Y019240D01*
X023675Y019194D01*
X023794Y019194D01*
X023904Y019240D01*
X023918Y019253D01*
X036448Y019253D01*
X037844Y017857D01*
X037912Y017790D01*
X038000Y017753D01*
X053886Y017753D01*
X054157Y017482D01*
X054224Y017415D01*
X054312Y017378D01*
X055775Y017378D01*
X055862Y017291D01*
X056031Y017221D01*
X056814Y017221D01*
X056983Y017291D01*
X057112Y017420D01*
X057182Y017589D01*
X057182Y017771D01*
X057112Y017940D01*
X056983Y018069D01*
X056814Y018139D01*
X056031Y018139D01*
X055862Y018069D01*
X055733Y017940D01*
X055698Y017857D01*
X054459Y017857D01*
X054430Y017886D01*
X054529Y017927D01*
X054613Y018011D01*
X054658Y018121D01*
X054658Y018169D01*
X055130Y018169D01*
X055255Y018294D01*
X055371Y018410D01*
X055371Y018973D01*
X055776Y019377D01*
X055862Y019291D01*
X056031Y019221D01*
X056031Y019139D02*
X055862Y019069D01*
X055733Y018940D01*
X055663Y018771D01*
X055663Y018589D01*
X055733Y018420D01*
X055862Y018291D01*
X056031Y018221D01*
X056814Y018221D01*
X056983Y018291D01*
X057112Y018420D01*
X057182Y018589D01*
X057182Y018771D01*
X057112Y018940D01*
X056983Y019069D01*
X056814Y019139D01*
X056031Y019139D01*
X055931Y019098D02*
X055496Y019098D01*
X055419Y019021D02*
X055814Y019021D01*
X055736Y018944D02*
X055371Y018944D01*
X055371Y018866D02*
X055702Y018866D01*
X055670Y018789D02*
X055371Y018789D01*
X055371Y018712D02*
X055663Y018712D01*
X055663Y018635D02*
X055371Y018635D01*
X055371Y018557D02*
X055676Y018557D01*
X055708Y018480D02*
X055371Y018480D01*
X055364Y018403D02*
X055750Y018403D01*
X055827Y018326D02*
X055287Y018326D01*
X055209Y018248D02*
X055964Y018248D01*
X055921Y018094D02*
X054647Y018094D01*
X054615Y018017D02*
X055809Y018017D01*
X055733Y017939D02*
X054541Y017939D01*
X054454Y017862D02*
X055701Y017862D01*
X055132Y018171D02*
X057224Y018171D01*
X057224Y018094D02*
X056923Y018094D01*
X057035Y018017D02*
X057224Y018017D01*
X057224Y017939D02*
X057112Y017939D01*
X057144Y017862D02*
X057224Y017862D01*
X057224Y017785D02*
X057176Y017785D01*
X057182Y017708D02*
X057224Y017708D01*
X057224Y017630D02*
X057182Y017630D01*
X057167Y017553D02*
X057224Y017553D01*
X057224Y017476D02*
X057135Y017476D01*
X057091Y017399D02*
X057224Y017399D01*
X057224Y017322D02*
X057014Y017322D01*
X056871Y017244D02*
X057224Y017244D01*
X057224Y017167D02*
X022935Y017167D01*
X022858Y017090D02*
X057224Y017090D01*
X057224Y017013D02*
X022781Y017013D01*
X022704Y016935D02*
X057224Y016935D01*
X057224Y016858D02*
X022626Y016858D01*
X022386Y017294D02*
X005799Y017294D01*
X005924Y017420D01*
X005994Y017589D01*
X005994Y017771D01*
X005924Y017940D01*
X005795Y018069D01*
X005626Y018139D01*
X004843Y018139D01*
X004724Y018090D01*
X004724Y018270D01*
X004843Y018221D01*
X005626Y018221D01*
X005795Y018291D01*
X005924Y018420D01*
X005950Y018481D01*
X014590Y018481D01*
X015124Y017947D01*
X015124Y017871D01*
X015169Y017761D01*
X015253Y017677D01*
X015363Y017632D01*
X015482Y017632D01*
X015591Y017677D01*
X015675Y017761D01*
X015721Y017871D01*
X015721Y017989D01*
X015675Y018099D01*
X015591Y018183D01*
X015482Y018228D01*
X015405Y018228D01*
X014902Y018731D01*
X019215Y018731D01*
X020161Y017785D01*
X020278Y017669D01*
X022760Y017669D01*
X022386Y017294D01*
X022413Y017322D02*
X005826Y017322D01*
X005903Y017399D02*
X022490Y017399D01*
X022567Y017476D02*
X005948Y017476D01*
X005980Y017553D02*
X022645Y017553D01*
X022722Y017630D02*
X005994Y017630D01*
X005994Y017708D02*
X015223Y017708D01*
X015159Y017785D02*
X005989Y017785D01*
X005957Y017862D02*
X015127Y017862D01*
X015124Y017939D02*
X005925Y017939D01*
X005848Y018017D02*
X015055Y018017D01*
X014977Y018094D02*
X005736Y018094D01*
X005693Y018248D02*
X014823Y018248D01*
X014900Y018171D02*
X004724Y018171D01*
X004724Y018094D02*
X004734Y018094D01*
X004724Y018248D02*
X004776Y018248D01*
X005235Y018680D02*
X014672Y018680D01*
X015422Y017930D01*
X015721Y017939D02*
X020007Y017939D01*
X020084Y017862D02*
X015717Y017862D01*
X015685Y017785D02*
X020161Y017785D01*
X020239Y017708D02*
X015622Y017708D01*
X015709Y018017D02*
X019930Y018017D01*
X019852Y018094D02*
X015677Y018094D01*
X015603Y018171D02*
X019775Y018171D01*
X019698Y018248D02*
X015385Y018248D01*
X015308Y018326D02*
X019621Y018326D01*
X019543Y018403D02*
X015231Y018403D01*
X015153Y018480D02*
X019466Y018480D01*
X019389Y018557D02*
X015076Y018557D01*
X014999Y018635D02*
X019312Y018635D01*
X019234Y018712D02*
X014922Y018712D01*
X014668Y018403D02*
X005907Y018403D01*
X005949Y018480D02*
X014591Y018480D01*
X014746Y018326D02*
X005830Y018326D01*
X005235Y019680D02*
X009110Y019680D01*
X009735Y019055D01*
X010012Y018944D02*
X010833Y018944D01*
X010811Y019021D02*
X010033Y019021D01*
X010033Y019098D02*
X010811Y019098D01*
X010837Y019175D02*
X010008Y019175D01*
X009959Y019253D02*
X010885Y019253D01*
X010993Y019330D02*
X009851Y019330D01*
X009664Y019407D02*
X011414Y019407D01*
X011337Y019484D02*
X009587Y019484D01*
X009509Y019562D02*
X011286Y019562D01*
X011286Y019639D02*
X009432Y019639D01*
X009355Y019716D02*
X011286Y019716D01*
X011286Y019793D02*
X009278Y019793D01*
X009200Y019870D02*
X011286Y019870D01*
X011286Y019948D02*
X005917Y019948D01*
X005840Y020025D02*
X011286Y020025D01*
X011286Y020102D02*
X005716Y020102D01*
X004754Y020102D02*
X004724Y020102D01*
X004724Y020179D02*
X011286Y020179D01*
X011252Y020257D02*
X004724Y020257D01*
X004724Y020334D02*
X011175Y020334D01*
X011098Y020411D02*
X004724Y020411D01*
X004724Y020488D02*
X011020Y020488D01*
X011172Y020930D02*
X011672Y020430D01*
X011672Y019743D01*
X012110Y019305D01*
X016360Y019305D01*
X016422Y019368D01*
X013896Y020566D02*
X013439Y020566D01*
X013425Y020599D01*
X013341Y020683D01*
X013232Y020728D01*
X013113Y020728D01*
X013003Y020683D01*
X012919Y020599D01*
X012874Y020489D01*
X012874Y020478D01*
X012800Y020478D01*
X012691Y020433D01*
X012684Y020426D01*
X012684Y020644D01*
X012738Y020698D01*
X012783Y020808D01*
X012783Y020927D01*
X012738Y021037D01*
X012654Y021120D01*
X012544Y021166D01*
X012434Y021166D01*
X012434Y021262D01*
X012317Y021379D01*
X012152Y021544D01*
X012158Y021558D01*
X012158Y021677D01*
X012113Y021787D01*
X012029Y021870D01*
X011919Y021916D01*
X011800Y021916D01*
X011691Y021870D01*
X011607Y021787D01*
X011583Y021728D01*
X011488Y021728D01*
X011378Y021683D01*
X011294Y021599D01*
X011249Y021489D01*
X011249Y021371D01*
X011294Y021261D01*
X011378Y021177D01*
X011488Y021132D01*
X011607Y021132D01*
X011665Y021156D01*
X011849Y020973D01*
X011849Y020535D01*
X011755Y020629D01*
X011255Y021129D01*
X010192Y021129D01*
X010121Y021200D01*
X010121Y025200D01*
X011105Y025200D01*
X011128Y025177D02*
X011238Y025132D01*
X011357Y025132D01*
X011466Y025177D01*
X011550Y025261D01*
X011596Y025371D01*
X011596Y025489D01*
X011573Y025544D01*
X011591Y025552D01*
X011675Y025636D01*
X011721Y025746D01*
X011721Y025757D01*
X011764Y025757D01*
X011732Y025724D01*
X011686Y025614D01*
X011686Y025496D01*
X011732Y025386D01*
X011816Y025302D01*
X011925Y025257D01*
X012044Y025257D01*
X012154Y025302D01*
X012238Y025386D01*
X012283Y025496D01*
X012283Y025507D01*
X012357Y025507D01*
X012466Y025552D01*
X012521Y025606D01*
X012817Y025606D01*
X012942Y025731D01*
X013177Y025731D01*
X013169Y025724D01*
X013124Y025614D01*
X013124Y025496D01*
X013169Y025386D01*
X013253Y025302D01*
X013363Y025257D01*
X013436Y025257D01*
X013436Y025246D01*
X013482Y025136D01*
X013566Y025052D01*
X013675Y025007D01*
X013749Y025007D01*
X013749Y024996D01*
X013794Y024886D01*
X013878Y024802D01*
X013988Y024757D01*
X014107Y024757D01*
X014216Y024802D01*
X014300Y024886D01*
X014346Y024996D01*
X014346Y025072D01*
X014442Y025169D01*
X014593Y025169D01*
X014593Y025058D01*
X014638Y024948D01*
X014672Y024914D01*
X014669Y024912D01*
X014624Y024802D01*
X014624Y024683D01*
X014669Y024573D01*
X014739Y024504D01*
X013278Y024504D01*
X013165Y024392D01*
X013107Y024416D01*
X012988Y024416D01*
X012878Y024370D01*
X012794Y024287D01*
X012749Y024177D01*
X012749Y024058D01*
X012794Y023948D01*
X012878Y023865D01*
X012988Y023819D01*
X013107Y023819D01*
X013216Y023865D01*
X013300Y023948D01*
X013312Y023976D01*
X013442Y024106D01*
X014311Y024106D01*
X014311Y023996D01*
X014357Y023886D01*
X014411Y023832D01*
X014411Y023716D01*
X014357Y023662D01*
X014311Y023552D01*
X014311Y023433D01*
X014357Y023323D01*
X014441Y023240D01*
X014550Y023194D01*
X014669Y023194D01*
X014779Y023240D01*
X014863Y023323D01*
X014908Y023433D01*
X014908Y023552D01*
X014863Y023662D01*
X014809Y023716D01*
X014809Y023832D01*
X014863Y023886D01*
X014908Y023996D01*
X014908Y024106D01*
X015465Y024106D01*
X015849Y023723D01*
X015849Y021223D01*
X015999Y021072D01*
X015999Y021004D01*
X015442Y021004D01*
X015255Y021191D01*
X015208Y021191D01*
X015154Y021245D01*
X015044Y021291D01*
X014925Y021291D01*
X014816Y021245D01*
X014732Y021162D01*
X014686Y021052D01*
X014686Y020933D01*
X014709Y020879D01*
X014396Y020879D01*
X014341Y020933D01*
X014232Y020978D01*
X014113Y020978D01*
X014003Y020933D01*
X013919Y020849D01*
X013874Y020739D01*
X013874Y020621D01*
X013896Y020566D01*
X013874Y020643D02*
X013382Y020643D01*
X013252Y020720D02*
X013874Y020720D01*
X013898Y020797D02*
X012779Y020797D01*
X012783Y020875D02*
X013945Y020875D01*
X014049Y020952D02*
X012773Y020952D01*
X012741Y021029D02*
X014686Y021029D01*
X014686Y020952D02*
X014296Y020952D01*
X014172Y020680D02*
X015235Y020680D01*
X015297Y020618D01*
X016610Y020618D01*
X017985Y021993D01*
X017985Y023055D01*
X018610Y023680D01*
X024485Y023680D01*
X024735Y023930D01*
X028485Y023930D01*
X028735Y024180D01*
X032360Y024180D01*
X032610Y024430D01*
X035985Y024430D01*
X036235Y024680D01*
X039797Y024680D01*
X040047Y024930D01*
X043610Y024930D01*
X043860Y025180D01*
X047360Y025180D01*
X047610Y025430D01*
X051172Y025430D01*
X051404Y025661D01*
X051404Y026885D01*
X051648Y026885D02*
X051648Y025830D01*
X051672Y025805D01*
X051876Y025586D02*
X052495Y025586D01*
X052532Y025663D02*
X051937Y025663D01*
X051969Y025741D02*
X052609Y025741D01*
X052649Y025818D02*
X052170Y025818D01*
X052242Y025895D02*
X052649Y025895D01*
X052649Y025972D02*
X052274Y025972D01*
X052283Y026050D02*
X052649Y026050D01*
X052649Y026127D02*
X052278Y026127D01*
X052380Y026204D02*
X052380Y026204D01*
X052380Y026281D02*
X052380Y026281D01*
X052380Y026359D02*
X052380Y026359D01*
X052380Y026436D02*
X052380Y026436D01*
X052380Y026513D02*
X052380Y026513D01*
X052380Y026590D02*
X052380Y026590D01*
X052380Y026668D02*
X052380Y026668D01*
X052380Y026745D02*
X052380Y026745D01*
X052380Y026822D02*
X052380Y026822D01*
X052380Y026885D02*
X052380Y026885D01*
X052380Y026899D02*
X052380Y026899D01*
X052380Y026977D02*
X052380Y026977D01*
X052380Y027054D02*
X052380Y027054D01*
X052380Y027131D02*
X052380Y027131D01*
X052380Y027208D02*
X052380Y027208D01*
X052380Y027286D02*
X052380Y027286D01*
X052380Y027363D02*
X052380Y027363D01*
X052380Y027440D02*
X052380Y027440D01*
X052380Y027517D02*
X052380Y027517D01*
X052380Y027595D02*
X052380Y027595D01*
X052274Y027672D02*
X052552Y027672D01*
X052527Y027749D02*
X052246Y027749D01*
X052047Y027868D02*
X052047Y027618D01*
X052136Y027529D01*
X052136Y026885D01*
X051892Y026885D02*
X051892Y026148D01*
X051985Y026055D01*
X053088Y026050D02*
X055603Y026050D01*
X055603Y026127D02*
X053088Y026127D01*
X053088Y025972D02*
X055603Y025972D01*
X055603Y025895D02*
X053088Y025895D01*
X053088Y025818D02*
X055603Y025818D01*
X055603Y025750D02*
X054353Y024499D01*
X053648Y024499D01*
X053556Y024537D01*
X053414Y024537D01*
X053282Y024483D01*
X053182Y024382D01*
X053127Y024251D01*
X053127Y024109D01*
X053182Y023978D01*
X053282Y023877D01*
X053414Y023823D01*
X053556Y023823D01*
X053648Y023861D01*
X054548Y023861D01*
X054666Y023909D01*
X056103Y025347D01*
X056193Y025437D01*
X056242Y025554D01*
X056242Y026048D01*
X056415Y026221D01*
X056814Y026221D01*
X056983Y026291D01*
X057112Y026420D01*
X057182Y026589D01*
X057182Y026771D01*
X057112Y026940D01*
X056983Y027069D01*
X056814Y027139D01*
X056031Y027139D01*
X055862Y027069D01*
X055733Y026940D01*
X055663Y026771D01*
X055663Y026589D01*
X055726Y026436D01*
X054067Y026436D01*
X054067Y026513D02*
X055694Y026513D01*
X055663Y026590D02*
X054067Y026590D01*
X054067Y026668D02*
X055663Y026668D01*
X055663Y026745D02*
X054067Y026745D01*
X054067Y026822D02*
X055684Y026822D01*
X055716Y026899D02*
X054067Y026899D01*
X054067Y026977D02*
X055769Y026977D01*
X055847Y027054D02*
X054067Y027054D01*
X054067Y027131D02*
X056011Y027131D01*
X056031Y027221D02*
X056814Y027221D01*
X056983Y027291D01*
X057112Y027420D01*
X057182Y027589D01*
X057182Y027771D01*
X057112Y027940D01*
X056983Y028069D01*
X056814Y028139D01*
X056031Y028139D01*
X055862Y028069D01*
X055733Y027940D01*
X055663Y027771D01*
X055663Y027589D01*
X055733Y027420D01*
X055862Y027291D01*
X056031Y027221D01*
X055874Y027286D02*
X054067Y027286D01*
X054067Y027363D02*
X055790Y027363D01*
X055725Y027440D02*
X054067Y027440D01*
X054067Y027517D02*
X055693Y027517D01*
X055663Y027595D02*
X054014Y027595D01*
X054067Y027208D02*
X057224Y027208D01*
X057224Y027131D02*
X056834Y027131D01*
X056998Y027054D02*
X057224Y027054D01*
X057224Y026977D02*
X057075Y026977D01*
X057129Y026899D02*
X057224Y026899D01*
X057224Y026822D02*
X057161Y026822D01*
X057182Y026745D02*
X057224Y026745D01*
X057224Y026668D02*
X057182Y026668D01*
X057182Y026590D02*
X057224Y026590D01*
X057224Y026513D02*
X057150Y026513D01*
X057118Y026436D02*
X057224Y026436D01*
X057224Y026359D02*
X057051Y026359D01*
X056960Y026281D02*
X057224Y026281D01*
X057224Y026204D02*
X056398Y026204D01*
X056321Y026127D02*
X057224Y026127D01*
X057224Y026050D02*
X056244Y026050D01*
X056242Y025972D02*
X057224Y025972D01*
X057224Y025895D02*
X056242Y025895D01*
X056242Y025818D02*
X057224Y025818D01*
X057224Y025741D02*
X056242Y025741D01*
X056242Y025663D02*
X057224Y025663D01*
X057224Y025586D02*
X056242Y025586D01*
X056223Y025509D02*
X057224Y025509D01*
X057224Y025432D02*
X056188Y025432D01*
X056111Y025355D02*
X057224Y025355D01*
X057224Y025277D02*
X056034Y025277D01*
X055957Y025200D02*
X057224Y025200D01*
X057224Y025123D02*
X055879Y025123D01*
X055802Y025046D02*
X057224Y025046D01*
X057224Y024968D02*
X055725Y024968D01*
X055648Y024891D02*
X057224Y024891D01*
X057224Y024814D02*
X055570Y024814D01*
X055493Y024737D02*
X057224Y024737D01*
X057224Y024659D02*
X055416Y024659D01*
X055339Y024582D02*
X057224Y024582D01*
X057224Y024505D02*
X055261Y024505D01*
X055184Y024428D02*
X057224Y024428D01*
X057224Y024350D02*
X055107Y024350D01*
X055030Y024273D02*
X057224Y024273D01*
X057224Y024196D02*
X054952Y024196D01*
X054875Y024119D02*
X057224Y024119D01*
X057224Y024041D02*
X054798Y024041D01*
X054721Y023964D02*
X057224Y023964D01*
X057224Y023887D02*
X054612Y023887D01*
X053272Y023887D02*
X032723Y023887D01*
X032800Y023964D02*
X053195Y023964D01*
X053155Y024041D02*
X036252Y024041D01*
X036330Y024119D02*
X053127Y024119D01*
X053127Y024196D02*
X038860Y024196D01*
X038930Y024273D02*
X053137Y024273D01*
X053168Y024350D02*
X038962Y024350D01*
X038971Y024428D02*
X053227Y024428D01*
X053335Y024505D02*
X039903Y024505D01*
X039981Y024582D02*
X054435Y024582D01*
X054358Y024505D02*
X053635Y024505D01*
X052969Y025046D02*
X054899Y025046D01*
X054976Y025123D02*
X053114Y025123D01*
X053191Y025200D02*
X055053Y025200D01*
X055130Y025277D02*
X053226Y025277D01*
X053257Y025355D02*
X055208Y025355D01*
X055285Y025432D02*
X053257Y025432D01*
X053257Y025509D02*
X055362Y025509D01*
X055439Y025586D02*
X053225Y025586D01*
X053188Y025663D02*
X055517Y025663D01*
X055594Y025741D02*
X053110Y025741D01*
X052463Y025355D02*
X051378Y025355D01*
X051301Y025277D02*
X052494Y025277D01*
X052529Y025200D02*
X047661Y025200D01*
X047584Y025123D02*
X052606Y025123D01*
X052751Y025046D02*
X047506Y025046D01*
X047172Y025430D02*
X047404Y025661D01*
X047404Y026885D01*
X047648Y026885D02*
X047648Y025830D01*
X047672Y025805D01*
X050797Y025805D01*
X051110Y026055D02*
X047985Y026055D01*
X047892Y026148D01*
X047892Y026885D01*
X048136Y026885D02*
X048136Y027529D01*
X048047Y027618D01*
X048047Y027868D01*
X048172Y027993D01*
X048618Y027993D01*
X048868Y027743D01*
X048567Y027635D02*
X048495Y027635D01*
X048472Y027612D01*
X048461Y027615D01*
X048380Y027615D01*
X048331Y027615D01*
X048246Y027700D01*
X048246Y027785D01*
X048255Y027794D01*
X048419Y027794D01*
X048559Y027654D01*
X048567Y027635D01*
X048541Y027672D02*
X048274Y027672D01*
X048246Y027749D02*
X048464Y027749D01*
X048380Y027615D02*
X048380Y026885D01*
X048380Y027615D01*
X048380Y027595D02*
X048380Y027595D01*
X048380Y027517D02*
X048380Y027517D01*
X048380Y027440D02*
X048380Y027440D01*
X048380Y027363D02*
X048380Y027363D01*
X048380Y027286D02*
X048380Y027286D01*
X048380Y027208D02*
X048380Y027208D01*
X048380Y027131D02*
X048380Y027131D01*
X048380Y027054D02*
X048380Y027054D01*
X048380Y026977D02*
X048380Y026977D01*
X048380Y026899D02*
X048380Y026899D01*
X048380Y026885D02*
X048380Y026885D01*
X047110Y026055D02*
X044110Y026055D01*
X044017Y026148D01*
X044017Y026885D01*
X044261Y026885D02*
X044261Y027529D01*
X044172Y027618D01*
X044172Y027868D01*
X044297Y027993D01*
X044743Y027993D01*
X044993Y027743D01*
X044674Y027749D02*
X044371Y027749D01*
X044371Y027785D02*
X044371Y027700D01*
X044456Y027615D01*
X044505Y027615D01*
X044505Y026885D01*
X044505Y026885D01*
X044505Y027615D01*
X044586Y027615D01*
X044597Y027612D01*
X044620Y027635D01*
X044692Y027635D01*
X044674Y027679D01*
X044674Y027781D01*
X044661Y027794D01*
X044380Y027794D01*
X044371Y027785D01*
X044399Y027672D02*
X044677Y027672D01*
X044505Y027595D02*
X044505Y027595D01*
X044505Y027517D02*
X044505Y027517D01*
X044505Y027440D02*
X044505Y027440D01*
X044505Y027363D02*
X044505Y027363D01*
X044505Y027286D02*
X044505Y027286D01*
X044505Y027208D02*
X044505Y027208D01*
X044505Y027131D02*
X044505Y027131D01*
X044505Y027054D02*
X044505Y027054D01*
X044505Y026977D02*
X044505Y026977D01*
X044505Y026899D02*
X044505Y026899D01*
X043773Y026885D02*
X043773Y025830D01*
X043797Y025805D01*
X046860Y025805D01*
X047172Y025430D02*
X043735Y025430D01*
X043485Y025180D01*
X039922Y025180D01*
X039672Y024930D01*
X036110Y024930D01*
X035860Y024680D01*
X032485Y024680D01*
X032235Y024430D01*
X028610Y024430D01*
X028360Y024180D01*
X024610Y024180D01*
X024360Y023930D01*
X018360Y023930D01*
X017735Y023305D01*
X017735Y022118D01*
X016422Y020805D01*
X015360Y020805D01*
X015172Y020993D01*
X014985Y020993D01*
X014709Y021106D02*
X012668Y021106D01*
X012434Y021184D02*
X014754Y021184D01*
X014853Y021261D02*
X012434Y021261D01*
X012358Y021338D02*
X015849Y021338D01*
X015849Y021261D02*
X015117Y021261D01*
X015262Y021184D02*
X015888Y021184D01*
X015965Y021106D02*
X015340Y021106D01*
X015417Y021029D02*
X015999Y021029D01*
X016047Y021305D02*
X016297Y021055D01*
X016047Y021305D02*
X016047Y023805D01*
X015547Y024305D01*
X013360Y024305D01*
X013172Y024118D01*
X013047Y024118D01*
X012749Y024119D02*
X010121Y024119D01*
X010121Y024196D02*
X012757Y024196D01*
X012789Y024273D02*
X010121Y024273D01*
X010121Y024350D02*
X012858Y024350D01*
X012756Y024041D02*
X010121Y024041D01*
X010121Y023964D02*
X012788Y023964D01*
X012856Y023887D02*
X010121Y023887D01*
X010121Y023810D02*
X014411Y023810D01*
X014411Y023732D02*
X010121Y023732D01*
X010121Y023655D02*
X014354Y023655D01*
X014322Y023578D02*
X010121Y023578D01*
X010121Y023501D02*
X014311Y023501D01*
X014315Y023424D02*
X010121Y023424D01*
X010121Y023346D02*
X014347Y023346D01*
X014411Y023269D02*
X010121Y023269D01*
X010121Y023192D02*
X015849Y023192D01*
X015849Y023269D02*
X014808Y023269D01*
X014872Y023346D02*
X015849Y023346D01*
X015849Y023424D02*
X014904Y023424D01*
X014908Y023501D02*
X015849Y023501D01*
X015849Y023578D02*
X014897Y023578D01*
X014865Y023655D02*
X015849Y023655D01*
X015839Y023732D02*
X014809Y023732D01*
X014809Y023810D02*
X015762Y023810D01*
X015684Y023887D02*
X014863Y023887D01*
X014895Y023964D02*
X015607Y023964D01*
X015530Y024041D02*
X014908Y024041D01*
X014610Y024055D02*
X014610Y023493D01*
X014356Y023887D02*
X013239Y023887D01*
X013307Y023964D02*
X014324Y023964D01*
X014311Y024041D02*
X013377Y024041D01*
X013201Y024428D02*
X010121Y024428D01*
X010121Y024505D02*
X014738Y024505D01*
X014666Y024582D02*
X010121Y024582D01*
X010121Y024659D02*
X014634Y024659D01*
X014624Y024737D02*
X010121Y024737D01*
X010121Y024814D02*
X013866Y024814D01*
X013792Y024891D02*
X010121Y024891D01*
X010121Y024968D02*
X013760Y024968D01*
X013581Y025046D02*
X010121Y025046D01*
X010121Y025123D02*
X013495Y025123D01*
X013455Y025200D02*
X011489Y025200D01*
X011557Y025277D02*
X011875Y025277D01*
X011763Y025355D02*
X011589Y025355D01*
X011596Y025432D02*
X011713Y025432D01*
X011686Y025509D02*
X011588Y025509D01*
X011626Y025586D02*
X011686Y025586D01*
X011687Y025663D02*
X011707Y025663D01*
X011719Y025741D02*
X011749Y025741D01*
X011985Y025555D02*
X012029Y025599D01*
X012029Y026885D01*
X012273Y026885D02*
X012273Y025830D01*
X012297Y025805D01*
X012735Y025805D01*
X012860Y025930D01*
X015204Y025930D01*
X015329Y025805D01*
X015735Y025805D01*
X015547Y025618D02*
X015266Y025618D01*
X015141Y025743D01*
X013610Y025743D01*
X013422Y025555D01*
X013144Y025663D02*
X012874Y025663D01*
X013124Y025586D02*
X012501Y025586D01*
X012363Y025509D02*
X013124Y025509D01*
X013150Y025432D02*
X012257Y025432D01*
X012206Y025355D02*
X013201Y025355D01*
X013313Y025277D02*
X012094Y025277D01*
X011297Y025430D02*
X011110Y025618D01*
X008547Y025618D01*
X008091Y026074D01*
X008091Y026885D01*
X008335Y026885D02*
X008335Y026080D01*
X008610Y025805D01*
X011422Y025805D01*
X011735Y026055D02*
X008735Y026055D01*
X008579Y026211D01*
X008579Y026885D01*
X008823Y026885D02*
X008823Y027529D01*
X008735Y027618D01*
X008735Y027868D01*
X008860Y027993D01*
X009306Y027993D01*
X009556Y027743D01*
X009236Y027749D02*
X008934Y027749D01*
X008934Y027785D02*
X008934Y027700D01*
X009019Y027615D01*
X009068Y027615D01*
X009068Y026885D01*
X009068Y026885D01*
X009068Y027615D01*
X009149Y027615D01*
X009160Y027612D01*
X009183Y027635D01*
X009255Y027635D01*
X009236Y027679D01*
X009236Y027781D01*
X009223Y027794D01*
X008942Y027794D01*
X008934Y027785D01*
X008962Y027672D02*
X009239Y027672D01*
X009068Y027595D02*
X009068Y027595D01*
X009068Y027517D02*
X009068Y027517D01*
X009068Y027440D02*
X009068Y027440D01*
X009068Y027363D02*
X009068Y027363D01*
X009068Y027286D02*
X009068Y027286D01*
X009068Y027208D02*
X009068Y027208D01*
X009068Y027131D02*
X009068Y027131D01*
X009068Y027054D02*
X009068Y027054D01*
X009068Y026977D02*
X009068Y026977D01*
X009068Y026899D02*
X009068Y026899D01*
X009902Y025419D02*
X010999Y025419D01*
X010999Y025371D01*
X011044Y025261D01*
X011128Y025177D01*
X011038Y025277D02*
X010044Y025277D01*
X010005Y025316D02*
X009902Y025419D01*
X009966Y025355D02*
X011006Y025355D01*
X010121Y025200D02*
X010005Y025316D01*
X009922Y025118D02*
X009922Y021118D01*
X010110Y020930D01*
X011172Y020930D01*
X011277Y021106D02*
X011715Y021106D01*
X011792Y021029D02*
X011354Y021029D01*
X011432Y020952D02*
X011849Y020952D01*
X011849Y020875D02*
X011509Y020875D01*
X011586Y020797D02*
X011849Y020797D01*
X011849Y020720D02*
X011663Y020720D01*
X011741Y020643D02*
X011849Y020643D01*
X011849Y020566D02*
X011818Y020566D01*
X012235Y020118D02*
X012610Y019743D01*
X013110Y019743D01*
X013172Y019805D01*
X019797Y019805D01*
X019860Y019743D01*
X020172Y019743D01*
X020235Y019805D01*
X020422Y019805D01*
X020485Y019868D01*
X020610Y019618D02*
X020860Y019868D01*
X020860Y019930D01*
X020610Y019618D02*
X020297Y019618D01*
X020235Y019555D01*
X019797Y019555D01*
X019735Y019618D01*
X013297Y019618D01*
X013235Y019555D01*
X012485Y019555D01*
X012047Y019993D01*
X012047Y021055D01*
X011735Y021368D01*
X011610Y021368D01*
X011547Y021430D01*
X011342Y021647D02*
X010121Y021647D01*
X010121Y021724D02*
X011478Y021724D01*
X011622Y021801D02*
X010121Y021801D01*
X010121Y021879D02*
X011711Y021879D01*
X012009Y021879D02*
X013084Y021879D01*
X013061Y021933D02*
X013107Y021823D01*
X013191Y021740D01*
X013300Y021694D01*
X013419Y021694D01*
X013529Y021740D01*
X013613Y021823D01*
X013658Y021933D01*
X013658Y022052D01*
X013613Y022162D01*
X013529Y022245D01*
X013419Y022291D01*
X013342Y022291D01*
X013255Y022379D01*
X011333Y022379D01*
X011279Y022433D01*
X011169Y022478D01*
X011050Y022478D01*
X010941Y022433D01*
X010857Y022349D01*
X010811Y022239D01*
X010811Y022121D01*
X010857Y022011D01*
X010941Y021927D01*
X011050Y021882D01*
X011169Y021882D01*
X011279Y021927D01*
X011333Y021981D01*
X013061Y021981D01*
X013061Y021933D01*
X013061Y021956D02*
X011308Y021956D01*
X011110Y022180D02*
X013172Y022180D01*
X013360Y021993D01*
X013482Y022265D02*
X015849Y022265D01*
X015849Y022342D02*
X013291Y022342D01*
X013587Y022188D02*
X015849Y022188D01*
X015849Y022110D02*
X013634Y022110D01*
X013658Y022033D02*
X015849Y022033D01*
X015849Y021956D02*
X013658Y021956D01*
X013636Y021879D02*
X015849Y021879D01*
X015849Y021801D02*
X013591Y021801D01*
X013492Y021724D02*
X015849Y021724D01*
X015849Y021647D02*
X012158Y021647D01*
X012158Y021570D02*
X015849Y021570D01*
X015849Y021493D02*
X012203Y021493D01*
X012281Y021415D02*
X015849Y021415D01*
X016297Y021430D02*
X016547Y021430D01*
X017485Y022368D01*
X017485Y023555D01*
X018110Y024180D01*
X024297Y024180D01*
X024547Y024430D01*
X028235Y024430D01*
X028485Y024680D01*
X032110Y024680D01*
X032360Y024930D01*
X035735Y024930D01*
X035985Y025180D01*
X039547Y025180D01*
X039797Y025430D01*
X043360Y025430D01*
X043529Y025599D01*
X043529Y026885D01*
X043297Y026055D02*
X040172Y026055D01*
X040079Y026148D01*
X040079Y026885D01*
X039835Y026885D02*
X039835Y025830D01*
X039860Y025805D01*
X042985Y025805D01*
X043852Y024891D02*
X054744Y024891D01*
X054667Y024814D02*
X043775Y024814D01*
X043698Y024737D02*
X054590Y024737D01*
X054513Y024659D02*
X040058Y024659D01*
X038672Y024430D02*
X036360Y024430D01*
X036110Y024180D01*
X032735Y024180D01*
X032485Y023930D01*
X028860Y023930D01*
X028547Y023618D01*
X024797Y023618D01*
X024547Y023368D01*
X018672Y023368D01*
X018235Y022930D01*
X018341Y022651D02*
X024353Y022651D01*
X024321Y022574D02*
X018184Y022574D01*
X018184Y022497D02*
X024311Y022497D01*
X024317Y022419D02*
X018184Y022419D01*
X018184Y022342D02*
X024349Y022342D01*
X024415Y022265D02*
X018184Y022265D01*
X018184Y022188D02*
X023077Y022188D01*
X022993Y022110D02*
X018184Y022110D01*
X018184Y022033D02*
X022955Y022033D01*
X022936Y021956D02*
X018184Y021956D01*
X018152Y021879D02*
X021090Y021879D01*
X021013Y021801D02*
X018075Y021801D01*
X017998Y021724D02*
X020936Y021724D01*
X020858Y021647D02*
X017920Y021647D01*
X017843Y021570D02*
X020781Y021570D01*
X020704Y021493D02*
X017766Y021493D01*
X017689Y021415D02*
X020627Y021415D01*
X020549Y021338D02*
X017611Y021338D01*
X017534Y021261D02*
X020472Y021261D01*
X020395Y021184D02*
X017457Y021184D01*
X017380Y021106D02*
X020318Y021106D01*
X020240Y021029D02*
X017302Y021029D01*
X017225Y020952D02*
X020163Y020952D01*
X020086Y020875D02*
X017148Y020875D01*
X017071Y020797D02*
X020009Y020797D01*
X019931Y020720D02*
X016994Y020720D01*
X016916Y020643D02*
X019854Y020643D01*
X019860Y020368D02*
X021235Y021743D01*
X023047Y021743D01*
X023235Y021930D01*
X023451Y021724D02*
X045683Y021724D01*
X045683Y021647D02*
X023331Y021647D01*
X023156Y021570D02*
X045683Y021570D01*
X045683Y021493D02*
X022469Y021493D01*
X022512Y021415D02*
X045683Y021415D01*
X045683Y021338D02*
X022533Y021338D01*
X022533Y021261D02*
X045683Y021261D01*
X045683Y021184D02*
X022508Y021184D01*
X022458Y021106D02*
X045683Y021106D01*
X045683Y021029D02*
X022349Y021029D01*
X022121Y021029D02*
X021474Y021029D01*
X021246Y021029D02*
X020802Y021029D01*
X020725Y020952D02*
X045683Y020952D01*
X045683Y020875D02*
X020648Y020875D01*
X020571Y020797D02*
X045683Y020797D01*
X045683Y020720D02*
X020494Y020720D01*
X020416Y020643D02*
X045683Y020643D01*
X045683Y020566D02*
X020339Y020566D01*
X020262Y020488D02*
X045683Y020488D01*
X045683Y020411D02*
X020347Y020411D01*
X020235Y020243D02*
X020297Y020180D01*
X036547Y020180D01*
X038297Y018430D01*
X054485Y018430D01*
X054547Y018368D01*
X054974Y018635D02*
X038374Y018635D01*
X038297Y018712D02*
X054974Y018712D01*
X054974Y018789D02*
X038219Y018789D01*
X038142Y018866D02*
X054974Y018866D01*
X054974Y018944D02*
X038065Y018944D01*
X037988Y019021D02*
X054974Y019021D01*
X054974Y019098D02*
X037910Y019098D01*
X037833Y019175D02*
X055012Y019175D01*
X055089Y019253D02*
X037756Y019253D01*
X037679Y019330D02*
X055166Y019330D01*
X055243Y019407D02*
X037601Y019407D01*
X037524Y019484D02*
X055321Y019484D01*
X055398Y019562D02*
X037447Y019562D01*
X037370Y019639D02*
X039467Y019639D01*
X039476Y019635D02*
X039618Y019635D01*
X039750Y019689D01*
X039814Y019753D01*
X045907Y019753D01*
X045922Y019759D01*
X045937Y019753D01*
X050906Y019753D01*
X050970Y019689D01*
X051101Y019635D01*
X051243Y019635D01*
X051375Y019689D01*
X051475Y019790D01*
X051530Y019921D01*
X051530Y020064D01*
X051475Y020195D01*
X051375Y020296D01*
X051243Y020350D01*
X051101Y020350D01*
X050970Y020296D01*
X050906Y020232D01*
X046162Y020232D01*
X046162Y022103D01*
X046125Y022191D01*
X045967Y022349D01*
X045967Y022439D01*
X045913Y022570D01*
X045812Y022671D01*
X045681Y022725D01*
X045539Y022725D01*
X045407Y022671D01*
X045307Y022570D01*
X045252Y022439D01*
X045252Y022296D01*
X045307Y022165D01*
X045407Y022064D01*
X045539Y022010D01*
X045629Y022010D01*
X045683Y021956D01*
X023533Y021956D01*
X023533Y021879D02*
X045683Y021879D01*
X045683Y021956D02*
X045683Y020232D01*
X039814Y020232D01*
X039750Y020296D01*
X039618Y020350D01*
X039476Y020350D01*
X039345Y020296D01*
X039244Y020195D01*
X039190Y020064D01*
X039190Y019921D01*
X039244Y019790D01*
X039345Y019689D01*
X039476Y019635D01*
X039627Y019639D02*
X051092Y019639D01*
X051252Y019639D02*
X055475Y019639D01*
X055552Y019716D02*
X051401Y019716D01*
X051477Y019793D02*
X055630Y019793D01*
X055704Y019870D02*
X051509Y019870D01*
X051530Y019948D02*
X055740Y019948D01*
X055818Y020025D02*
X051530Y020025D01*
X051514Y020102D02*
X055941Y020102D01*
X056903Y020102D02*
X057224Y020102D01*
X057224Y020025D02*
X057027Y020025D01*
X057104Y019948D02*
X057224Y019948D01*
X057224Y019870D02*
X057141Y019870D01*
X057173Y019793D02*
X057224Y019793D01*
X057224Y019716D02*
X057182Y019716D01*
X057182Y019639D02*
X057224Y019639D01*
X057224Y019562D02*
X057170Y019562D01*
X057138Y019484D02*
X057224Y019484D01*
X057224Y019407D02*
X057099Y019407D01*
X057022Y019330D02*
X057224Y019330D01*
X057224Y019253D02*
X056891Y019253D01*
X056913Y019098D02*
X057224Y019098D01*
X057224Y019021D02*
X057031Y019021D01*
X057108Y018944D02*
X057224Y018944D01*
X057224Y018866D02*
X057142Y018866D01*
X057174Y018789D02*
X057224Y018789D01*
X057224Y018712D02*
X057182Y018712D01*
X057182Y018635D02*
X057224Y018635D01*
X057224Y018557D02*
X057169Y018557D01*
X057137Y018480D02*
X057224Y018480D01*
X057224Y018403D02*
X057095Y018403D01*
X057018Y018326D02*
X057224Y018326D01*
X057224Y018248D02*
X056881Y018248D01*
X056422Y017680D02*
X056360Y017618D01*
X055974Y017244D02*
X023013Y017244D01*
X023090Y017322D02*
X055831Y017322D01*
X057224Y016781D02*
X004434Y016781D01*
X004434Y016858D02*
X004593Y016858D01*
X004516Y016935D02*
X004434Y016935D01*
X004434Y017013D02*
X004439Y017013D01*
X004434Y016704D02*
X057224Y016704D01*
X054262Y017399D02*
X023167Y017399D01*
X023244Y017476D02*
X054163Y017476D01*
X054086Y017553D02*
X023322Y017553D01*
X023399Y017630D02*
X054008Y017630D01*
X053931Y017708D02*
X023476Y017708D01*
X023553Y017785D02*
X037923Y017785D01*
X037839Y017862D02*
X023631Y017862D01*
X023708Y017939D02*
X037762Y017939D01*
X037685Y018017D02*
X023819Y018017D01*
X023946Y018094D02*
X037607Y018094D01*
X037530Y018171D02*
X024002Y018171D01*
X024033Y018248D02*
X037453Y018248D01*
X037376Y018326D02*
X024033Y018326D01*
X024017Y018403D02*
X037298Y018403D01*
X037221Y018480D02*
X023982Y018480D01*
X023904Y018557D02*
X037144Y018557D01*
X037067Y018635D02*
X023246Y018635D01*
X023246Y018712D02*
X036989Y018712D01*
X036912Y018789D02*
X023246Y018789D01*
X023246Y018866D02*
X036835Y018866D01*
X036758Y018944D02*
X023246Y018944D01*
X023246Y019021D02*
X036680Y019021D01*
X036603Y019098D02*
X023246Y019098D01*
X023246Y019175D02*
X036526Y019175D01*
X036449Y019253D02*
X023917Y019253D01*
X023553Y019253D02*
X023246Y019253D01*
X023246Y019330D02*
X023479Y019330D01*
X023447Y019407D02*
X023226Y019407D01*
X023149Y019484D02*
X023436Y019484D01*
X023440Y019562D02*
X023072Y019562D01*
X023059Y019575D02*
X023059Y019575D01*
X022995Y019639D02*
X023472Y019639D01*
X023565Y018557D02*
X023246Y018557D01*
X023246Y018480D02*
X023488Y018480D01*
X023452Y018403D02*
X023246Y018403D01*
X023246Y018326D02*
X023417Y018326D01*
X023340Y018248D02*
X023246Y018248D01*
X023246Y018171D02*
X023263Y018171D01*
X023047Y018180D02*
X022735Y017868D01*
X020360Y017868D01*
X019297Y018930D01*
X011235Y018930D01*
X011110Y019055D01*
X011383Y019175D02*
X011646Y019175D01*
X011569Y019253D02*
X011334Y019253D01*
X011226Y019330D02*
X011491Y019330D01*
X012485Y020118D02*
X012672Y019930D01*
X013047Y019930D01*
X013110Y019993D01*
X020047Y019993D01*
X019860Y020180D02*
X019922Y020243D01*
X020235Y020243D01*
X019860Y020180D02*
X012860Y020180D01*
X012874Y020488D02*
X012684Y020488D01*
X012684Y020566D02*
X012906Y020566D01*
X012963Y020643D02*
X012684Y020643D01*
X012747Y020720D02*
X013093Y020720D01*
X013172Y020430D02*
X013235Y020368D01*
X019860Y020368D01*
X020880Y021106D02*
X021136Y021106D01*
X021087Y021184D02*
X020957Y021184D01*
X021034Y021261D02*
X021061Y021261D01*
X021360Y021305D02*
X022235Y021305D01*
X023505Y021801D02*
X045683Y021801D01*
X045483Y022033D02*
X023515Y022033D01*
X023476Y022110D02*
X045361Y022110D01*
X045297Y022188D02*
X030926Y022188D01*
X030854Y022116D02*
X031112Y022373D01*
X031112Y022516D01*
X030712Y022516D01*
X030712Y022594D01*
X031112Y022594D01*
X031112Y022737D01*
X030854Y022994D01*
X030712Y022994D01*
X030712Y022594D01*
X030633Y022594D01*
X030633Y022516D01*
X030233Y022516D01*
X030233Y022373D01*
X030490Y022116D01*
X030633Y022116D01*
X030633Y022516D01*
X030712Y022516D01*
X030712Y022116D01*
X030854Y022116D01*
X030712Y022188D02*
X030633Y022188D01*
X030633Y022265D02*
X030712Y022265D01*
X030712Y022342D02*
X030633Y022342D01*
X030633Y022419D02*
X030712Y022419D01*
X030712Y022497D02*
X030633Y022497D01*
X030633Y022574D02*
X025086Y022574D01*
X025009Y022497D02*
X030233Y022497D01*
X030233Y022419D02*
X024932Y022419D01*
X024871Y022342D02*
X030264Y022342D01*
X030341Y022265D02*
X024804Y022265D01*
X025164Y022651D02*
X030233Y022651D01*
X030233Y022594D02*
X030633Y022594D01*
X030633Y022994D01*
X030490Y022994D01*
X030233Y022737D01*
X030233Y022594D01*
X030233Y022728D02*
X025241Y022728D01*
X025318Y022806D02*
X030302Y022806D01*
X030379Y022883D02*
X025367Y022883D01*
X025389Y022960D02*
X030456Y022960D01*
X030633Y022960D02*
X030712Y022960D01*
X030712Y022883D02*
X030633Y022883D01*
X030633Y022806D02*
X030712Y022806D01*
X030712Y022728D02*
X030633Y022728D01*
X030633Y022651D02*
X030712Y022651D01*
X030712Y022574D02*
X045311Y022574D01*
X045276Y022497D02*
X031112Y022497D01*
X031112Y022419D02*
X045252Y022419D01*
X045252Y022342D02*
X031081Y022342D01*
X031004Y022265D02*
X045265Y022265D01*
X045388Y022651D02*
X031112Y022651D01*
X031112Y022728D02*
X057224Y022728D01*
X057224Y022651D02*
X045832Y022651D01*
X045909Y022574D02*
X057224Y022574D01*
X057224Y022497D02*
X045943Y022497D01*
X045967Y022419D02*
X057224Y022419D01*
X057224Y022342D02*
X045974Y022342D01*
X046051Y022265D02*
X057224Y022265D01*
X057224Y022188D02*
X046126Y022188D01*
X046158Y022110D02*
X057224Y022110D01*
X057224Y022033D02*
X046162Y022033D01*
X046162Y021956D02*
X057224Y021956D01*
X057224Y021879D02*
X046162Y021879D01*
X046162Y021801D02*
X057224Y021801D01*
X057224Y021724D02*
X046162Y021724D01*
X046162Y021647D02*
X057224Y021647D01*
X057224Y021570D02*
X046162Y021570D01*
X046162Y021493D02*
X057224Y021493D01*
X057224Y021415D02*
X046162Y021415D01*
X046162Y021338D02*
X057224Y021338D01*
X057224Y021261D02*
X046162Y021261D01*
X046162Y021184D02*
X057224Y021184D01*
X057224Y021106D02*
X046162Y021106D01*
X046162Y021029D02*
X057224Y021029D01*
X057224Y020952D02*
X046162Y020952D01*
X046162Y020875D02*
X057224Y020875D01*
X057224Y020797D02*
X046162Y020797D01*
X046162Y020720D02*
X057224Y020720D01*
X057224Y020643D02*
X046162Y020643D01*
X046162Y020566D02*
X057224Y020566D01*
X057224Y020488D02*
X046162Y020488D01*
X046162Y020411D02*
X057224Y020411D01*
X057224Y020334D02*
X051282Y020334D01*
X051414Y020257D02*
X057224Y020257D01*
X057224Y020179D02*
X051482Y020179D01*
X051062Y020334D02*
X046162Y020334D01*
X046162Y020257D02*
X050931Y020257D01*
X050943Y019716D02*
X039776Y019716D01*
X039318Y019716D02*
X037292Y019716D01*
X037215Y019793D02*
X039243Y019793D01*
X039211Y019870D02*
X037138Y019870D01*
X037061Y019948D02*
X039190Y019948D01*
X039190Y020025D02*
X036983Y020025D01*
X036906Y020102D02*
X039206Y020102D01*
X039238Y020179D02*
X036829Y020179D01*
X036752Y020257D02*
X039306Y020257D01*
X039437Y020334D02*
X036674Y020334D01*
X039657Y020334D02*
X045683Y020334D01*
X045683Y020257D02*
X039789Y020257D01*
X032646Y023810D02*
X057224Y023810D01*
X057224Y023732D02*
X032568Y023732D01*
X031043Y022806D02*
X057224Y022806D01*
X057224Y022883D02*
X030966Y022883D01*
X030889Y022960D02*
X057224Y022960D01*
X057224Y023037D02*
X025389Y023037D01*
X025389Y023115D02*
X057224Y023115D01*
X057224Y023192D02*
X025389Y023192D01*
X025408Y023269D02*
X057224Y023269D01*
X057224Y023346D02*
X025408Y023346D01*
X024811Y023346D02*
X024807Y023346D01*
X024811Y023269D02*
X024730Y023269D01*
X024653Y023192D02*
X024830Y023192D01*
X024830Y023115D02*
X018700Y023115D01*
X018623Y023037D02*
X024760Y023037D01*
X024682Y022960D02*
X018546Y022960D01*
X018533Y022883D02*
X024605Y022883D01*
X024528Y022806D02*
X018506Y022806D01*
X018455Y022728D02*
X024424Y022728D01*
X023393Y022188D02*
X030418Y022188D01*
X028789Y023578D02*
X057224Y023578D01*
X057224Y023501D02*
X028712Y023501D01*
X028634Y023424D02*
X057224Y023424D01*
X057224Y023655D02*
X028866Y023655D01*
X028047Y024680D02*
X028297Y024930D01*
X031985Y024930D01*
X032235Y025180D01*
X035610Y025180D01*
X035860Y025430D01*
X039360Y025430D01*
X039591Y025661D01*
X039591Y026885D01*
X040323Y026885D02*
X040323Y027529D01*
X040235Y027618D01*
X040235Y027868D01*
X040360Y027993D01*
X040806Y027993D01*
X041056Y027743D01*
X040746Y027635D02*
X040683Y027635D01*
X040660Y027612D01*
X040649Y027615D01*
X040568Y027615D01*
X040568Y026885D01*
X040568Y026885D01*
X040568Y027615D01*
X040519Y027615D01*
X040434Y027700D01*
X040434Y027785D01*
X040442Y027794D01*
X040723Y027794D01*
X040728Y027789D01*
X040728Y027679D01*
X040746Y027635D01*
X040731Y027672D02*
X040462Y027672D01*
X040434Y027749D02*
X040728Y027749D01*
X040568Y027595D02*
X040568Y027595D01*
X040568Y027517D02*
X040568Y027517D01*
X040568Y027440D02*
X040568Y027440D01*
X040568Y027363D02*
X040568Y027363D01*
X040568Y027286D02*
X040568Y027286D01*
X040568Y027208D02*
X040568Y027208D01*
X040568Y027131D02*
X040568Y027131D01*
X040568Y027054D02*
X040568Y027054D01*
X040568Y026977D02*
X040568Y026977D01*
X040568Y026899D02*
X040568Y026899D01*
X039360Y026055D02*
X036235Y026055D01*
X036142Y026148D01*
X036142Y026885D01*
X036386Y026885D02*
X036386Y027529D01*
X036297Y027618D01*
X036297Y027868D01*
X036422Y027993D01*
X036868Y027993D01*
X037118Y027743D01*
X036799Y027727D02*
X036732Y027794D01*
X036505Y027794D01*
X036496Y027785D01*
X036496Y027700D01*
X036581Y027615D01*
X036630Y027615D01*
X036630Y026885D01*
X036630Y026885D01*
X036630Y027615D01*
X036711Y027615D01*
X036722Y027612D01*
X036745Y027635D01*
X036817Y027635D01*
X036799Y027679D01*
X036799Y027727D01*
X036777Y027749D02*
X036496Y027749D01*
X036524Y027672D02*
X036802Y027672D01*
X036630Y027595D02*
X036630Y027595D01*
X036630Y027517D02*
X036630Y027517D01*
X036630Y027440D02*
X036630Y027440D01*
X036630Y027363D02*
X036630Y027363D01*
X036630Y027286D02*
X036630Y027286D01*
X036630Y027208D02*
X036630Y027208D01*
X036630Y027131D02*
X036630Y027131D01*
X036630Y027054D02*
X036630Y027054D01*
X036630Y026977D02*
X036630Y026977D01*
X036630Y026899D02*
X036630Y026899D01*
X035898Y026885D02*
X035898Y025830D01*
X035922Y025805D01*
X039047Y025805D01*
X038484Y024196D02*
X036407Y024196D01*
X035422Y025430D02*
X035654Y025661D01*
X035654Y026885D01*
X035422Y026055D02*
X032360Y026055D01*
X032267Y026148D01*
X032267Y026885D01*
X032511Y026885D02*
X032511Y027529D01*
X032422Y027618D01*
X032422Y027868D01*
X032547Y027993D01*
X032993Y027993D01*
X033243Y027743D01*
X032924Y027727D02*
X032924Y027679D01*
X032942Y027635D01*
X032870Y027635D01*
X032847Y027612D01*
X032836Y027615D01*
X032755Y027615D01*
X032706Y027615D01*
X032621Y027700D01*
X032621Y027785D01*
X032630Y027794D01*
X032857Y027794D01*
X032924Y027727D01*
X032902Y027749D02*
X032621Y027749D01*
X032649Y027672D02*
X032927Y027672D01*
X032755Y027615D02*
X032755Y026885D01*
X032755Y027615D01*
X032755Y027595D02*
X032755Y027595D01*
X032755Y027517D02*
X032755Y027517D01*
X032755Y027440D02*
X032755Y027440D01*
X032755Y027363D02*
X032755Y027363D01*
X032755Y027286D02*
X032755Y027286D01*
X032755Y027208D02*
X032755Y027208D01*
X032755Y027131D02*
X032755Y027131D01*
X032755Y027054D02*
X032755Y027054D01*
X032755Y026977D02*
X032755Y026977D01*
X032755Y026899D02*
X032755Y026899D01*
X032755Y026885D02*
X032755Y026885D01*
X032023Y026885D02*
X032023Y025830D01*
X032047Y025805D01*
X035172Y025805D01*
X035422Y025430D02*
X032110Y025430D01*
X031860Y025180D01*
X028172Y025180D01*
X027985Y024993D01*
X024360Y024993D01*
X024047Y024680D01*
X017672Y024680D01*
X016985Y023993D01*
X016985Y022743D01*
X016422Y022180D01*
X016297Y022180D01*
X016547Y021805D02*
X017235Y022493D01*
X017235Y023805D01*
X017860Y024430D01*
X024172Y024430D01*
X024422Y024680D01*
X028047Y024680D01*
X027797Y025180D02*
X028047Y025430D01*
X031610Y025430D01*
X031779Y025599D01*
X031779Y026885D01*
X031547Y026055D02*
X028360Y026055D01*
X028267Y026148D01*
X028267Y026885D01*
X028511Y026885D02*
X028511Y027529D01*
X028422Y027618D01*
X028422Y027868D01*
X028547Y027993D01*
X028993Y027993D01*
X029243Y027743D01*
X028924Y027727D02*
X028857Y027794D01*
X028630Y027794D01*
X028621Y027785D01*
X028621Y027700D01*
X028706Y027615D01*
X028755Y027615D01*
X028755Y026885D01*
X028755Y026885D01*
X028755Y027615D01*
X028836Y027615D01*
X028847Y027612D01*
X028870Y027635D01*
X028942Y027635D01*
X028924Y027679D01*
X028924Y027727D01*
X028902Y027749D02*
X028621Y027749D01*
X028649Y027672D02*
X028927Y027672D01*
X028755Y027595D02*
X028755Y027595D01*
X028755Y027517D02*
X028755Y027517D01*
X028755Y027440D02*
X028755Y027440D01*
X028755Y027363D02*
X028755Y027363D01*
X028755Y027286D02*
X028755Y027286D01*
X028755Y027208D02*
X028755Y027208D01*
X028755Y027131D02*
X028755Y027131D01*
X028755Y027054D02*
X028755Y027054D01*
X028755Y026977D02*
X028755Y026977D01*
X028755Y026899D02*
X028755Y026899D01*
X028023Y026885D02*
X028023Y025830D01*
X028047Y025805D01*
X031297Y025805D01*
X027779Y025661D02*
X027779Y026885D01*
X027547Y026055D02*
X024422Y026055D01*
X024329Y026148D01*
X024329Y026885D01*
X024085Y026885D02*
X024085Y025830D01*
X024110Y025805D01*
X027235Y025805D01*
X027547Y025430D02*
X027779Y025661D01*
X027547Y025430D02*
X024047Y025430D01*
X023735Y025118D01*
X017235Y025118D01*
X016985Y024868D01*
X015422Y024868D01*
X015235Y025055D01*
X014954Y025055D01*
X014891Y025118D01*
X015016Y025368D02*
X015141Y025243D01*
X015422Y025243D01*
X015610Y025055D01*
X016297Y025055D01*
X016547Y025305D01*
X023485Y025305D01*
X023841Y025661D01*
X023841Y026885D01*
X024573Y026885D02*
X024573Y027529D01*
X024485Y027618D01*
X024485Y027868D01*
X024610Y027993D01*
X025056Y027993D01*
X025306Y027743D01*
X024996Y027635D02*
X024933Y027635D01*
X024910Y027612D01*
X024899Y027615D01*
X024818Y027615D01*
X024818Y026885D01*
X024818Y026885D01*
X024818Y027615D01*
X024769Y027615D01*
X024684Y027700D01*
X024684Y027785D01*
X024692Y027794D01*
X024973Y027794D01*
X024978Y027789D01*
X024978Y027679D01*
X024996Y027635D01*
X024981Y027672D02*
X024712Y027672D01*
X024684Y027749D02*
X024978Y027749D01*
X024818Y027595D02*
X024818Y027595D01*
X024818Y027517D02*
X024818Y027517D01*
X024818Y027440D02*
X024818Y027440D01*
X024818Y027363D02*
X024818Y027363D01*
X024818Y027286D02*
X024818Y027286D01*
X024818Y027208D02*
X024818Y027208D01*
X024818Y027131D02*
X024818Y027131D01*
X024818Y027054D02*
X024818Y027054D01*
X024818Y026977D02*
X024818Y026977D01*
X024818Y026899D02*
X024818Y026899D01*
X023547Y026055D02*
X020422Y026055D01*
X020392Y026086D01*
X020392Y026885D01*
X020636Y026885D02*
X020636Y027529D01*
X020547Y027618D01*
X020547Y027868D01*
X020672Y027993D01*
X021118Y027993D01*
X021368Y027743D01*
X021040Y027749D02*
X020746Y027749D01*
X020746Y027785D02*
X020746Y027700D01*
X020831Y027615D01*
X020880Y027615D01*
X020880Y026885D01*
X020880Y026885D01*
X020880Y027615D01*
X020961Y027615D01*
X020972Y027612D01*
X020995Y027635D01*
X021059Y027635D01*
X021040Y027679D01*
X021040Y027789D01*
X021036Y027794D01*
X020755Y027794D01*
X020746Y027785D01*
X020774Y027672D02*
X021043Y027672D01*
X020880Y027595D02*
X020880Y027595D01*
X020880Y027517D02*
X020880Y027517D01*
X020880Y027440D02*
X020880Y027440D01*
X020880Y027363D02*
X020880Y027363D01*
X020880Y027286D02*
X020880Y027286D01*
X020880Y027208D02*
X020880Y027208D01*
X020880Y027131D02*
X020880Y027131D01*
X020880Y027054D02*
X020880Y027054D01*
X020880Y026977D02*
X020880Y026977D01*
X020880Y026899D02*
X020880Y026899D01*
X020148Y026885D02*
X020148Y025830D01*
X020172Y025805D01*
X023297Y025805D01*
X023922Y024930D02*
X024172Y025180D01*
X027797Y025180D01*
X023922Y024930D02*
X017485Y024930D01*
X017235Y024680D01*
X014985Y024680D01*
X014922Y024743D01*
X014661Y024891D02*
X014302Y024891D01*
X014334Y024968D02*
X014630Y024968D01*
X014598Y025046D02*
X014346Y025046D01*
X014396Y025123D02*
X014593Y025123D01*
X014629Y024814D02*
X014228Y024814D01*
X014047Y025055D02*
X014360Y025368D01*
X015016Y025368D01*
X015079Y025555D02*
X015204Y025430D01*
X015485Y025430D01*
X015610Y025305D01*
X016172Y025305D01*
X016422Y025555D01*
X019672Y025555D01*
X019904Y025786D01*
X019904Y026885D01*
X019547Y026055D02*
X016610Y026055D01*
X016517Y026087D01*
X016517Y026885D01*
X016761Y026885D02*
X016761Y027529D01*
X016672Y027618D01*
X016672Y027868D01*
X016797Y027993D01*
X017243Y027993D01*
X017493Y027743D01*
X017187Y027635D02*
X017120Y027635D01*
X017097Y027612D01*
X017086Y027615D01*
X017005Y027615D01*
X016956Y027615D01*
X016871Y027700D01*
X016871Y027785D01*
X016880Y027794D01*
X017107Y027794D01*
X017165Y027735D01*
X017165Y027687D01*
X017187Y027635D01*
X017172Y027672D02*
X016899Y027672D01*
X016871Y027749D02*
X017152Y027749D01*
X017005Y027615D02*
X017005Y026885D01*
X017005Y027615D01*
X017005Y027595D02*
X017005Y027595D01*
X017005Y027517D02*
X017005Y027517D01*
X017005Y027440D02*
X017005Y027440D01*
X017005Y027363D02*
X017005Y027363D01*
X017005Y027286D02*
X017005Y027286D01*
X017005Y027208D02*
X017005Y027208D01*
X017005Y027131D02*
X017005Y027131D01*
X017005Y027054D02*
X017005Y027054D01*
X017005Y026977D02*
X017005Y026977D01*
X017005Y026899D02*
X017005Y026899D01*
X017005Y026885D02*
X017005Y026885D01*
X016273Y026885D02*
X016273Y025830D01*
X016297Y025805D01*
X019297Y025805D01*
X016297Y025805D02*
X016273Y025843D01*
X016273Y026885D01*
X016029Y026885D02*
X016029Y025724D01*
X015860Y025555D01*
X015610Y025555D01*
X015547Y025618D01*
X015079Y025555D02*
X013985Y025555D01*
X013735Y025305D01*
X012672Y026118D02*
X015360Y026118D01*
X015454Y026055D01*
X013005Y026885D02*
X013005Y026885D01*
X013005Y027615D01*
X012956Y027615D01*
X012871Y027700D01*
X012871Y027785D01*
X012880Y027794D01*
X013161Y027794D01*
X013165Y027789D01*
X013165Y027679D01*
X013184Y027635D01*
X013120Y027635D01*
X013097Y027612D01*
X013086Y027615D01*
X013005Y027615D01*
X013005Y026885D01*
X013005Y026899D02*
X013005Y026899D01*
X013005Y026977D02*
X013005Y026977D01*
X013005Y027054D02*
X013005Y027054D01*
X013005Y027131D02*
X013005Y027131D01*
X013005Y027208D02*
X013005Y027208D01*
X013005Y027286D02*
X013005Y027286D01*
X013005Y027363D02*
X013005Y027363D01*
X013005Y027440D02*
X013005Y027440D01*
X013005Y027517D02*
X013005Y027517D01*
X013005Y027595D02*
X013005Y027595D01*
X012899Y027672D02*
X013168Y027672D01*
X013165Y027749D02*
X012871Y027749D01*
X012672Y027868D02*
X012672Y027618D01*
X012761Y027529D01*
X012761Y026885D01*
X012517Y026885D02*
X012517Y026148D01*
X012610Y026055D01*
X012672Y026118D01*
X009922Y025118D02*
X009672Y025368D01*
X009235Y025368D01*
X009118Y024891D02*
X009366Y024891D01*
X009259Y024814D02*
X004724Y024814D01*
X004724Y024891D02*
X006777Y024891D01*
X006649Y024968D02*
X004724Y024968D01*
X004724Y025046D02*
X006593Y025046D01*
X006561Y025123D02*
X004724Y025123D01*
X004724Y025200D02*
X006501Y025200D01*
X006424Y025277D02*
X004724Y025277D01*
X004724Y025355D02*
X006347Y025355D01*
X006270Y025432D02*
X004724Y025432D01*
X004724Y025509D02*
X006192Y025509D01*
X006140Y025586D02*
X004724Y025586D01*
X004724Y025663D02*
X006120Y025663D01*
X006120Y025741D02*
X004724Y025741D01*
X004724Y025818D02*
X006120Y025818D01*
X006120Y025895D02*
X004724Y025895D01*
X004724Y025972D02*
X006120Y025972D01*
X006120Y026050D02*
X004724Y026050D01*
X004724Y026127D02*
X006120Y026127D01*
X006120Y026204D02*
X004724Y026204D01*
X005773Y026281D02*
X006120Y026281D01*
X006120Y026359D02*
X005863Y026359D01*
X005931Y026436D02*
X006078Y026436D01*
X006035Y024505D02*
X005435Y024505D01*
X005512Y024428D02*
X005958Y024428D01*
X005881Y024350D02*
X005589Y024350D01*
X005666Y024273D02*
X005803Y024273D01*
X005775Y024196D02*
X005694Y024196D01*
X005694Y024119D02*
X005775Y024119D01*
X005775Y024041D02*
X005694Y024041D01*
X005694Y023964D02*
X005775Y023964D01*
X005775Y023887D02*
X005694Y023887D01*
X005672Y023618D02*
X005235Y024055D01*
X004908Y023732D02*
X004724Y023732D01*
X004724Y023655D02*
X004985Y023655D01*
X005045Y023514D02*
X004775Y023245D01*
X004775Y022865D01*
X005045Y022596D01*
X005425Y022596D01*
X005694Y022865D01*
X005694Y023245D01*
X005425Y023514D01*
X005045Y023514D01*
X005031Y023501D02*
X004724Y023501D01*
X004724Y023578D02*
X005431Y023578D01*
X005439Y023501D02*
X005508Y023501D01*
X005516Y023424D02*
X005585Y023424D01*
X005593Y023346D02*
X005876Y023346D01*
X005799Y023269D02*
X005670Y023269D01*
X005694Y023192D02*
X005775Y023192D01*
X005775Y023115D02*
X005694Y023115D01*
X005694Y023037D02*
X005775Y023037D01*
X005775Y022960D02*
X005694Y022960D01*
X005694Y022883D02*
X005775Y022883D01*
X005835Y022806D02*
X005635Y022806D01*
X005558Y022728D02*
X005912Y022728D01*
X005989Y022651D02*
X005481Y022651D01*
X005417Y022494D02*
X005274Y022494D01*
X005274Y022094D01*
X005674Y022094D01*
X005674Y022237D01*
X005417Y022494D01*
X005492Y022419D02*
X005950Y022419D01*
X005872Y022342D02*
X005569Y022342D01*
X005646Y022265D02*
X005795Y022265D01*
X005775Y022245D02*
X005775Y021865D01*
X006045Y021596D01*
X006425Y021596D01*
X006694Y021865D01*
X006694Y022245D01*
X006425Y022514D01*
X006045Y022514D01*
X005775Y022245D01*
X005775Y022188D02*
X005674Y022188D01*
X005674Y022110D02*
X005775Y022110D01*
X005775Y022033D02*
X005274Y022033D01*
X005274Y022016D02*
X005274Y022094D01*
X005195Y022094D01*
X005195Y022016D01*
X004795Y022016D01*
X004795Y021873D01*
X005053Y021616D01*
X005195Y021616D01*
X005195Y022016D01*
X005274Y022016D01*
X005674Y022016D01*
X005674Y021873D01*
X005417Y021616D01*
X005274Y021616D01*
X005274Y022016D01*
X005274Y021956D02*
X005195Y021956D01*
X005195Y022033D02*
X004724Y022033D01*
X004724Y021956D02*
X004795Y021956D01*
X004795Y021879D02*
X004724Y021879D01*
X004724Y021801D02*
X004867Y021801D01*
X004944Y021724D02*
X004724Y021724D01*
X004724Y021647D02*
X005021Y021647D01*
X005195Y021647D02*
X005274Y021647D01*
X005274Y021724D02*
X005195Y021724D01*
X005195Y021801D02*
X005274Y021801D01*
X005274Y021879D02*
X005195Y021879D01*
X005195Y022094D02*
X004795Y022094D01*
X004795Y022237D01*
X005053Y022494D01*
X005195Y022494D01*
X005195Y022094D01*
X005195Y022110D02*
X005274Y022110D01*
X005274Y022188D02*
X005195Y022188D01*
X005195Y022265D02*
X005274Y022265D01*
X005274Y022342D02*
X005195Y022342D01*
X005195Y022419D02*
X005274Y022419D01*
X004978Y022419D02*
X004724Y022419D01*
X004724Y022342D02*
X004901Y022342D01*
X004823Y022265D02*
X004724Y022265D01*
X004724Y022188D02*
X004795Y022188D01*
X004795Y022110D02*
X004724Y022110D01*
X004724Y022497D02*
X006027Y022497D01*
X006443Y022497D02*
X009536Y022497D01*
X009536Y022574D02*
X004724Y022574D01*
X004724Y022651D02*
X004989Y022651D01*
X004912Y022728D02*
X004724Y022728D01*
X004724Y022806D02*
X004835Y022806D01*
X004775Y022883D02*
X004724Y022883D01*
X004724Y022960D02*
X004775Y022960D01*
X004775Y023037D02*
X004724Y023037D01*
X004724Y023115D02*
X004775Y023115D01*
X004775Y023192D02*
X004724Y023192D01*
X004724Y023269D02*
X004799Y023269D01*
X004724Y023346D02*
X004876Y023346D01*
X004954Y023424D02*
X004724Y023424D01*
X004724Y023810D02*
X004830Y023810D01*
X004775Y023887D02*
X004724Y023887D01*
X004724Y023964D02*
X004775Y023964D01*
X004775Y024041D02*
X004724Y024041D01*
X004724Y024119D02*
X004775Y024119D01*
X004775Y024196D02*
X004724Y024196D01*
X004724Y024273D02*
X004803Y024273D01*
X004881Y024350D02*
X004724Y024350D01*
X004724Y024428D02*
X004958Y024428D01*
X005035Y024505D02*
X004724Y024505D01*
X004724Y024582D02*
X009168Y024582D01*
X009186Y024659D02*
X004724Y024659D01*
X004724Y024737D02*
X009211Y024737D01*
X009091Y024505D02*
X006435Y024505D01*
X006512Y024428D02*
X009014Y024428D01*
X008937Y024350D02*
X006589Y024350D01*
X006666Y024273D02*
X008859Y024273D01*
X008782Y024196D02*
X006694Y024196D01*
X006694Y024119D02*
X008705Y024119D01*
X008628Y024041D02*
X006694Y024041D01*
X006694Y023964D02*
X008550Y023964D01*
X008473Y023887D02*
X007239Y023887D01*
X006981Y023887D02*
X006694Y023887D01*
X007110Y023618D02*
X005672Y023618D01*
X006593Y023346D02*
X006985Y023346D01*
X007235Y023346D02*
X009536Y023346D01*
X009536Y023269D02*
X006670Y023269D01*
X006694Y023192D02*
X009536Y023192D01*
X009536Y023115D02*
X006694Y023115D01*
X006694Y023037D02*
X009536Y023037D01*
X009536Y022960D02*
X006694Y022960D01*
X006694Y022883D02*
X009536Y022883D01*
X009536Y022806D02*
X006635Y022806D01*
X006558Y022728D02*
X009536Y022728D01*
X009536Y022651D02*
X006481Y022651D01*
X006520Y022419D02*
X009536Y022419D01*
X009536Y022342D02*
X006597Y022342D01*
X006675Y022265D02*
X009536Y022265D01*
X009536Y022188D02*
X006694Y022188D01*
X006694Y022110D02*
X009536Y022110D01*
X009536Y022033D02*
X006694Y022033D01*
X006694Y021956D02*
X009536Y021956D01*
X009536Y021879D02*
X006694Y021879D01*
X006631Y021801D02*
X009536Y021801D01*
X009536Y021724D02*
X006554Y021724D01*
X006476Y021647D02*
X009536Y021647D01*
X009536Y021570D02*
X004724Y021570D01*
X004724Y021493D02*
X009536Y021493D01*
X009536Y021415D02*
X004724Y021415D01*
X004724Y021338D02*
X009536Y021338D01*
X009536Y021261D02*
X004724Y021261D01*
X004724Y021184D02*
X009536Y021184D01*
X009536Y021106D02*
X004724Y021106D01*
X004724Y021029D02*
X009536Y021029D01*
X009536Y020952D02*
X004724Y020952D01*
X004724Y020875D02*
X009572Y020875D01*
X009649Y020797D02*
X004724Y020797D01*
X004724Y020720D02*
X009726Y020720D01*
X009803Y020643D02*
X004724Y020643D01*
X004724Y020566D02*
X009881Y020566D01*
X010137Y021184D02*
X011372Y021184D01*
X011295Y021261D02*
X010121Y021261D01*
X010121Y021338D02*
X011262Y021338D01*
X011249Y021415D02*
X010121Y021415D01*
X010121Y021493D02*
X011250Y021493D01*
X011282Y021570D02*
X010121Y021570D01*
X010121Y021956D02*
X010912Y021956D01*
X010848Y022033D02*
X010121Y022033D01*
X010121Y022110D02*
X010816Y022110D01*
X010811Y022188D02*
X010121Y022188D01*
X010121Y022265D02*
X010822Y022265D01*
X010854Y022342D02*
X010121Y022342D01*
X010121Y022419D02*
X010927Y022419D01*
X011292Y022419D02*
X015849Y022419D01*
X015849Y022497D02*
X010121Y022497D01*
X010121Y022574D02*
X015849Y022574D01*
X015849Y022651D02*
X010121Y022651D01*
X010121Y022728D02*
X015849Y022728D01*
X015849Y022806D02*
X010121Y022806D01*
X010121Y022883D02*
X015849Y022883D01*
X015849Y022960D02*
X010121Y022960D01*
X010121Y023037D02*
X015849Y023037D01*
X015849Y023115D02*
X010121Y023115D01*
X009536Y023424D02*
X008572Y023424D01*
X008649Y023501D02*
X009536Y023501D01*
X009536Y023578D02*
X008726Y023578D01*
X008804Y023655D02*
X009536Y023655D01*
X009536Y023732D02*
X008881Y023732D01*
X008958Y023810D02*
X009536Y023810D01*
X009536Y023887D02*
X009035Y023887D01*
X009113Y023964D02*
X009536Y023964D01*
X009536Y024041D02*
X009190Y024041D01*
X009267Y024119D02*
X009536Y024119D01*
X009536Y024196D02*
X009344Y024196D01*
X009422Y024273D02*
X009536Y024273D01*
X009485Y024618D02*
X008485Y023618D01*
X007110Y023618D01*
X005775Y021956D02*
X005674Y021956D01*
X005674Y021879D02*
X005775Y021879D01*
X005839Y021801D02*
X005603Y021801D01*
X005525Y021724D02*
X005916Y021724D01*
X005993Y021647D02*
X005448Y021647D01*
X011860Y021618D02*
X011860Y021555D01*
X012235Y021180D01*
X012235Y020118D01*
X012485Y020118D02*
X012485Y020868D01*
X012139Y021724D02*
X013228Y021724D01*
X013129Y021801D02*
X012098Y021801D01*
X016297Y021805D02*
X016547Y021805D01*
X013493Y027743D02*
X013243Y027993D01*
X012797Y027993D01*
X012672Y027868D01*
X013972Y029139D02*
X010123Y029139D01*
X009972Y029139D02*
X005626Y029139D01*
X005802Y029062D02*
X006540Y029062D01*
X006463Y028985D02*
X005880Y028985D01*
X005938Y028908D02*
X006386Y028908D01*
X006309Y028830D02*
X005970Y028830D01*
X005994Y028753D02*
X006231Y028753D01*
X006154Y028676D02*
X005994Y028676D01*
X005994Y028599D02*
X006077Y028599D01*
X006000Y028521D02*
X005966Y028521D01*
X004843Y029139D02*
X004675Y029069D01*
X004590Y028985D02*
X004434Y028985D01*
X004474Y028883D02*
X004532Y028907D01*
X004434Y029217D02*
X057224Y029217D01*
X057224Y029294D02*
X004434Y029294D01*
X004434Y029371D02*
X057224Y029371D01*
X057224Y029448D02*
X004434Y029448D01*
X014123Y029139D02*
X017847Y029139D01*
X017998Y029139D02*
X021784Y029139D01*
X021935Y029139D02*
X025722Y029139D01*
X025873Y029139D02*
X029722Y029139D01*
X029873Y029139D02*
X033597Y029139D01*
X033748Y029139D02*
X037534Y029139D01*
X037685Y029139D02*
X041472Y029139D01*
X041623Y029139D02*
X043670Y029139D01*
X043924Y029139D02*
X045347Y029139D01*
X045498Y029139D02*
X049284Y029139D01*
X049435Y029139D02*
X056031Y029139D01*
X055862Y029069D01*
X055733Y028940D01*
X055663Y028771D01*
X055663Y028589D01*
X055733Y028420D01*
X055862Y028291D01*
X056031Y028221D01*
X056814Y028221D01*
X056983Y028291D01*
X057112Y028420D01*
X057182Y028589D01*
X057182Y028771D01*
X057112Y028940D01*
X056983Y029069D01*
X056814Y029139D01*
X057224Y029139D01*
X057224Y029062D02*
X056990Y029062D01*
X057067Y028985D02*
X057224Y028985D01*
X057224Y028908D02*
X057125Y028908D01*
X057157Y028830D02*
X057224Y028830D01*
X057224Y028753D02*
X057182Y028753D01*
X057182Y028676D02*
X057224Y028676D01*
X057224Y028599D02*
X057182Y028599D01*
X057154Y028521D02*
X057224Y028521D01*
X057224Y028444D02*
X057122Y028444D01*
X057059Y028367D02*
X057224Y028367D01*
X057224Y028290D02*
X056980Y028290D01*
X056824Y028135D02*
X057224Y028135D01*
X057224Y028058D02*
X056994Y028058D01*
X057071Y027981D02*
X057224Y027981D01*
X057224Y027903D02*
X057127Y027903D01*
X057159Y027826D02*
X057224Y027826D01*
X057224Y027749D02*
X057182Y027749D01*
X057182Y027672D02*
X057224Y027672D01*
X057224Y027595D02*
X057182Y027595D01*
X057152Y027517D02*
X057224Y027517D01*
X057224Y027440D02*
X057120Y027440D01*
X057055Y027363D02*
X057224Y027363D01*
X057224Y027286D02*
X056970Y027286D01*
X055851Y028058D02*
X053121Y028058D01*
X053164Y027981D02*
X055773Y027981D01*
X055718Y027903D02*
X053188Y027903D01*
X053188Y027826D02*
X055686Y027826D01*
X055663Y027749D02*
X053188Y027749D01*
X053185Y027672D02*
X055663Y027672D01*
X056021Y028135D02*
X053044Y028135D01*
X052967Y028212D02*
X057224Y028212D01*
X055864Y028290D02*
X052889Y028290D01*
X052812Y028367D02*
X055786Y028367D01*
X055723Y028444D02*
X052735Y028444D01*
X052658Y028521D02*
X055691Y028521D01*
X055663Y028599D02*
X052548Y028599D01*
X052618Y027993D02*
X052172Y027993D01*
X052047Y027868D01*
X052618Y027993D02*
X052868Y027743D01*
X054067Y026359D02*
X055651Y026359D01*
X055652Y026361D02*
X055603Y026244D01*
X055603Y025750D01*
X055603Y026204D02*
X054043Y026204D01*
X054067Y026281D02*
X055619Y026281D01*
X055652Y026361D02*
X055726Y026436D01*
X054822Y024968D02*
X043929Y024968D01*
X049672Y028676D02*
X055663Y028676D01*
X055663Y028753D02*
X049698Y028753D01*
X049698Y028830D02*
X055687Y028830D01*
X055719Y028908D02*
X049683Y028908D01*
X049651Y028985D02*
X055778Y028985D01*
X055855Y029062D02*
X049580Y029062D01*
X056031Y029139D02*
X056814Y029139D01*
X055823Y019330D02*
X055728Y019330D01*
X055651Y019253D02*
X055954Y019253D01*
X055574Y019175D02*
X057224Y019175D01*
D19*
X056360Y020868D03*
X056422Y022493D03*
X056422Y024680D03*
X052172Y025493D03*
X049360Y028805D03*
X045422Y028805D03*
X041547Y028805D03*
X037610Y028805D03*
X033672Y028805D03*
X029797Y028805D03*
X025797Y028805D03*
X021860Y028805D03*
X017922Y028805D03*
X014047Y028805D03*
X010047Y028805D03*
X006110Y028180D03*
X005172Y025368D03*
X009422Y023055D03*
X012610Y023930D03*
X013547Y023993D03*
X013235Y022618D03*
X014235Y022368D03*
X017860Y021055D03*
X019547Y020930D03*
X018985Y022993D03*
X026672Y020868D03*
X026797Y018930D03*
X024297Y017680D03*
X034860Y017680D03*
X044610Y017618D03*
X053422Y017618D03*
X029297Y023555D03*
X012860Y017680D03*
X007922Y020618D03*
X005235Y020868D03*
X006422Y017618D03*
D20*
X009556Y027743D02*
X010118Y028305D01*
X013110Y028305D01*
X013485Y027930D01*
X013485Y027743D01*
X013493Y027743D01*
X013110Y028305D02*
X017047Y028305D01*
X017485Y027868D01*
X017485Y027751D01*
X017493Y027743D01*
X017047Y028305D02*
X020985Y028305D01*
X021360Y027930D01*
X021360Y027743D01*
X020985Y028305D02*
X024922Y028305D01*
X025297Y027930D01*
X025297Y027743D01*
X024922Y028305D02*
X028797Y028305D01*
X029243Y027859D01*
X029243Y027743D01*
X028797Y028305D02*
X032797Y028305D01*
X033243Y027859D01*
X033243Y027743D01*
X032797Y028305D02*
X036672Y028305D01*
X037118Y027859D01*
X037118Y027743D01*
X036672Y028305D02*
X040672Y028305D01*
X041047Y027930D01*
X041047Y027743D01*
X040672Y028305D02*
X044610Y028305D01*
X044993Y027922D01*
X044993Y027743D01*
X044610Y028305D02*
X048360Y028305D01*
X048868Y027797D01*
X048868Y027743D01*
X048360Y028305D02*
X052422Y028305D01*
X052868Y027859D01*
X052868Y027743D01*
X055922Y026180D02*
X056422Y026680D01*
X055922Y026180D02*
X055922Y025618D01*
X054485Y024180D01*
X053485Y024180D01*
X052860Y025430D02*
X052868Y025438D01*
X049360Y028805D02*
X045422Y028805D01*
X043797Y028805D01*
X041547Y028805D01*
X037610Y028805D01*
X033672Y028805D01*
X029797Y028805D01*
X025797Y028805D01*
X021860Y028805D01*
X017922Y028805D01*
X014047Y028805D01*
X010047Y028805D01*
X006735Y028805D01*
X006110Y028180D01*
D21*
X052860Y025430D03*
D22*
X025110Y023305D02*
X025110Y022993D01*
X024610Y022493D01*
D23*
X039547Y019993D03*
X045610Y022368D03*
X051172Y019993D03*
X053485Y024180D03*
X043797Y028805D03*
D24*
X002159Y001117D02*
X001690Y001510D01*
X001297Y001979D01*
X000991Y002509D01*
X000781Y003084D01*
X000675Y003687D01*
X000662Y003992D01*
X000662Y012108D01*
X000695Y012430D01*
X000855Y013062D01*
X001136Y013651D01*
X001527Y014174D01*
X002012Y014610D01*
X002572Y014943D01*
X003187Y015161D01*
X003833Y015255D01*
X004124Y015254D01*
X004125Y015253D01*
X004166Y015253D01*
X004207Y015251D01*
X004213Y015253D01*
X004253Y015253D01*
X004393Y015334D01*
X004393Y015334D01*
X004474Y015474D01*
X004474Y015493D01*
X057183Y015492D01*
X057183Y015445D01*
X057219Y015357D01*
X057287Y015290D01*
X057375Y015253D01*
X057422Y015253D01*
X057541Y015244D01*
X057768Y015170D01*
X057960Y015030D01*
X058100Y014838D01*
X058174Y014611D01*
X058183Y014492D01*
X058183Y013473D01*
X058181Y013468D01*
X058183Y013425D01*
X058183Y013382D01*
X058185Y013378D01*
X058193Y013175D01*
X058338Y012706D01*
X058600Y012290D01*
X058960Y011957D01*
X058960Y011957D01*
X059395Y011728D01*
X059874Y011619D01*
X060112Y011628D01*
X060250Y011619D01*
X060521Y011546D01*
X060763Y011406D01*
X060961Y011208D01*
X061101Y010966D01*
X061174Y010695D01*
X061183Y010555D01*
X061183Y010242D01*
X061174Y010102D01*
X061101Y009832D01*
X060961Y009589D01*
X060763Y009391D01*
X060521Y009251D01*
X060250Y009179D01*
X060110Y009169D01*
X059856Y009169D01*
X059366Y009038D01*
X058927Y008784D01*
X058927Y008784D01*
X058568Y008426D01*
X058568Y008426D01*
X058314Y007986D01*
X058183Y007496D01*
X058183Y001367D01*
X058172Y001229D01*
X058086Y000965D01*
X057924Y000741D01*
X057699Y000578D01*
X057436Y000493D01*
X057297Y000482D01*
X004172Y000482D01*
X003866Y000495D01*
X003264Y000601D01*
X002689Y000811D01*
X002159Y001117D01*
X002119Y001150D02*
X058146Y001150D01*
X058178Y001308D02*
X001930Y001308D01*
X001741Y001467D02*
X058183Y001467D01*
X058183Y001625D02*
X001593Y001625D01*
X001460Y001784D02*
X058183Y001784D01*
X058183Y001942D02*
X056883Y001942D01*
X056911Y001957D02*
X056844Y001923D01*
X056772Y001899D01*
X056698Y001888D01*
X056380Y001888D01*
X056380Y002347D01*
X056340Y002347D01*
X056340Y001887D01*
X056022Y001888D01*
X055947Y001899D01*
X055876Y001923D01*
X055808Y001957D01*
X055747Y002001D01*
X055694Y002055D01*
X055649Y002116D01*
X055615Y002183D01*
X055592Y002255D01*
X055580Y002330D01*
X055580Y002347D01*
X056340Y002347D01*
X056340Y002388D01*
X056340Y002847D01*
X056022Y002847D01*
X055947Y002836D01*
X055876Y002812D01*
X055808Y002778D01*
X055747Y002734D01*
X055694Y002680D01*
X055649Y002619D01*
X055615Y002552D01*
X055592Y002480D01*
X055580Y002405D01*
X055580Y002388D01*
X056340Y002388D01*
X056380Y002388D01*
X056380Y002847D01*
X056698Y002847D01*
X056772Y002836D01*
X056844Y002812D01*
X056911Y002778D01*
X056973Y002734D01*
X057026Y002680D01*
X057070Y002619D01*
X057105Y002552D01*
X057128Y002480D01*
X057140Y002405D01*
X057140Y002388D01*
X056380Y002388D01*
X056380Y002347D01*
X057140Y002347D01*
X057140Y002330D01*
X057128Y002255D01*
X057105Y002183D01*
X057070Y002116D01*
X057026Y002055D01*
X056973Y002001D01*
X056911Y001957D01*
X057059Y002101D02*
X058183Y002101D01*
X058183Y002259D02*
X057129Y002259D01*
X057138Y002418D02*
X058183Y002418D01*
X058183Y002576D02*
X057092Y002576D01*
X056971Y002735D02*
X058183Y002735D01*
X058183Y002893D02*
X056822Y002893D01*
X056759Y002868D02*
X056943Y002944D01*
X057084Y003084D01*
X057160Y003268D01*
X057160Y003467D01*
X057084Y003651D01*
X056943Y003791D01*
X056759Y003867D01*
X055960Y003867D01*
X055777Y003791D01*
X055636Y003651D01*
X055560Y003467D01*
X055560Y003268D01*
X055636Y003084D01*
X055777Y002944D01*
X055960Y002868D01*
X056759Y002868D01*
X057051Y003052D02*
X058183Y003052D01*
X058183Y003210D02*
X057136Y003210D01*
X057160Y003369D02*
X058183Y003369D01*
X058183Y003527D02*
X057135Y003527D01*
X057048Y003686D02*
X058183Y003686D01*
X058183Y003844D02*
X056815Y003844D01*
X056759Y003868D02*
X056943Y003944D01*
X057084Y004084D01*
X057160Y004268D01*
X057160Y004467D01*
X057084Y004651D01*
X056943Y004791D01*
X056759Y004867D01*
X055960Y004867D01*
X055777Y004791D01*
X055636Y004651D01*
X055560Y004467D01*
X055560Y004268D01*
X055636Y004084D01*
X055777Y003944D01*
X055960Y003868D01*
X056759Y003868D01*
X057002Y004003D02*
X058183Y004003D01*
X058183Y004161D02*
X057116Y004161D01*
X057160Y004320D02*
X058183Y004320D01*
X058183Y004478D02*
X057155Y004478D01*
X057089Y004637D02*
X058183Y004637D01*
X058183Y004795D02*
X056933Y004795D01*
X055786Y004795D02*
X018827Y004795D01*
X018827Y004749D02*
X018827Y007627D01*
X019476Y008275D01*
X025619Y008275D01*
X025830Y008064D01*
X025830Y006624D01*
X025872Y006521D01*
X025951Y006443D01*
X026524Y005869D01*
X026496Y005802D01*
X026496Y005558D01*
X026590Y005333D01*
X026762Y005160D01*
X026988Y005067D01*
X027232Y005067D01*
X027457Y005160D01*
X027610Y005313D01*
X027762Y005160D01*
X027988Y005067D01*
X028232Y005067D01*
X028457Y005160D01*
X028610Y005313D01*
X028762Y005160D01*
X028988Y005067D01*
X029232Y005067D01*
X029457Y005160D01*
X029610Y005313D01*
X029762Y005160D01*
X029988Y005067D01*
X030232Y005067D01*
X030457Y005160D01*
X030629Y005332D01*
X030657Y005293D01*
X030723Y005227D01*
X030799Y005172D01*
X030882Y005130D01*
X030971Y005101D01*
X031052Y005088D01*
X031052Y005622D01*
X031168Y005622D01*
X031168Y005088D01*
X031249Y005101D01*
X031338Y005130D01*
X031421Y005172D01*
X031496Y005227D01*
X031562Y005293D01*
X031590Y005332D01*
X031762Y005160D01*
X031988Y005067D01*
X032232Y005067D01*
X032457Y005160D01*
X032610Y005313D01*
X032762Y005160D01*
X032988Y005067D01*
X033232Y005067D01*
X033457Y005160D01*
X033496Y005199D01*
X033496Y005184D01*
X033614Y005067D01*
X034606Y005067D01*
X034723Y005184D01*
X034723Y006176D01*
X034606Y006293D01*
X033614Y006293D01*
X033496Y006176D01*
X033496Y006161D01*
X033457Y006200D01*
X033232Y006293D01*
X032988Y006293D01*
X032762Y006200D01*
X032610Y006047D01*
X032457Y006200D01*
X032232Y006293D01*
X031988Y006293D01*
X031762Y006200D01*
X031590Y006028D01*
X031562Y006067D01*
X031496Y006133D01*
X031421Y006188D01*
X031338Y006230D01*
X031249Y006259D01*
X031168Y006272D01*
X031168Y005738D01*
X031052Y005738D01*
X031052Y006272D01*
X030971Y006259D01*
X030882Y006230D01*
X030799Y006188D01*
X030723Y006133D01*
X030657Y006067D01*
X030629Y006028D01*
X030457Y006200D01*
X030232Y006293D01*
X029988Y006293D01*
X029762Y006200D01*
X029610Y006047D01*
X029457Y006200D01*
X029232Y006293D01*
X028988Y006293D01*
X028762Y006200D01*
X028610Y006047D01*
X028457Y006200D01*
X028232Y006293D01*
X027988Y006293D01*
X027762Y006200D01*
X027610Y006047D01*
X027457Y006200D01*
X027232Y006293D01*
X026988Y006293D01*
X026920Y006265D01*
X026390Y006796D01*
X026390Y008236D01*
X026347Y008339D01*
X025972Y008714D01*
X025893Y008792D01*
X025791Y008835D01*
X019304Y008835D01*
X019201Y008792D01*
X018389Y007980D01*
X018310Y007901D01*
X018267Y007798D01*
X018267Y004921D01*
X015994Y002647D01*
X005898Y002647D01*
X005896Y002651D01*
X005756Y002791D01*
X005572Y002867D01*
X004773Y002867D01*
X004589Y002791D01*
X004448Y002651D01*
X004372Y002467D01*
X004372Y002268D01*
X004448Y002084D01*
X004589Y001944D01*
X004773Y001868D01*
X005572Y001868D01*
X005756Y001944D01*
X005896Y002084D01*
X005898Y002088D01*
X016166Y002088D01*
X016268Y002130D01*
X016347Y002209D01*
X018785Y004646D01*
X018827Y004749D01*
X018775Y004637D02*
X055630Y004637D01*
X055565Y004478D02*
X018617Y004478D01*
X018458Y004320D02*
X055560Y004320D01*
X055604Y004161D02*
X018300Y004161D01*
X018141Y004003D02*
X055717Y004003D01*
X055905Y003844D02*
X017983Y003844D01*
X017824Y003686D02*
X055671Y003686D01*
X055585Y003527D02*
X017666Y003527D01*
X017507Y003369D02*
X055560Y003369D01*
X055584Y003210D02*
X017349Y003210D01*
X017190Y003052D02*
X055668Y003052D01*
X055898Y002893D02*
X017032Y002893D01*
X016873Y002735D02*
X055749Y002735D01*
X055628Y002576D02*
X016715Y002576D01*
X016556Y002418D02*
X055582Y002418D01*
X055591Y002259D02*
X016398Y002259D01*
X016198Y002101D02*
X055660Y002101D01*
X055837Y001942D02*
X005753Y001942D01*
X005172Y002368D02*
X016110Y002368D01*
X018547Y004805D01*
X018547Y007743D01*
X019360Y008555D01*
X025735Y008555D01*
X026110Y008180D01*
X026110Y006680D01*
X027110Y005680D01*
X026550Y005429D02*
X018827Y005429D01*
X018827Y005271D02*
X026651Y005271D01*
X026877Y005112D02*
X018827Y005112D01*
X018827Y004954D02*
X058183Y004954D01*
X058183Y005112D02*
X034652Y005112D01*
X034723Y005271D02*
X058183Y005271D01*
X058183Y005429D02*
X034723Y005429D01*
X034723Y005588D02*
X058183Y005588D01*
X058183Y005746D02*
X034723Y005746D01*
X034723Y005905D02*
X058183Y005905D01*
X058183Y006063D02*
X034723Y006063D01*
X034677Y006222D02*
X058183Y006222D01*
X058183Y006380D02*
X026805Y006380D01*
X026647Y006539D02*
X058183Y006539D01*
X058183Y006697D02*
X026488Y006697D01*
X026390Y006856D02*
X030289Y006856D01*
X030403Y006743D02*
X030110Y007035D01*
X030110Y007450D01*
X030403Y007742D01*
X030817Y007742D01*
X031110Y007450D01*
X031110Y007035D01*
X030817Y006743D01*
X030403Y006743D01*
X030131Y007014D02*
X026390Y007014D01*
X026390Y007173D02*
X030110Y007173D01*
X030110Y007331D02*
X026390Y007331D01*
X026390Y007490D02*
X030150Y007490D01*
X030309Y007648D02*
X026390Y007648D01*
X026390Y007807D02*
X058266Y007807D01*
X058224Y007648D02*
X030911Y007648D01*
X031069Y007490D02*
X058183Y007490D01*
X058183Y007331D02*
X031110Y007331D01*
X031110Y007173D02*
X058183Y007173D01*
X058183Y007014D02*
X031089Y007014D01*
X030930Y006856D02*
X058183Y006856D01*
X058309Y007965D02*
X026390Y007965D01*
X026390Y008124D02*
X026849Y008124D01*
X026762Y008160D02*
X026988Y008067D01*
X027232Y008067D01*
X027457Y008160D01*
X027610Y008313D01*
X027762Y008160D01*
X027988Y008067D01*
X028232Y008067D01*
X028457Y008160D01*
X028610Y008313D01*
X028762Y008160D01*
X028988Y008067D01*
X029232Y008067D01*
X029457Y008160D01*
X029610Y008313D01*
X029762Y008160D01*
X029988Y008067D01*
X030232Y008067D01*
X030457Y008160D01*
X030610Y008313D01*
X030762Y008160D01*
X030988Y008067D01*
X031232Y008067D01*
X031457Y008160D01*
X031610Y008313D01*
X031762Y008160D01*
X031988Y008067D01*
X032232Y008067D01*
X032457Y008160D01*
X032610Y008313D01*
X032762Y008160D01*
X032988Y008067D01*
X033232Y008067D01*
X033457Y008160D01*
X033610Y008313D01*
X033762Y008160D01*
X033988Y008067D01*
X034232Y008067D01*
X034457Y008160D01*
X034630Y008333D01*
X034723Y008558D01*
X034723Y008802D01*
X034630Y009027D01*
X034457Y009200D01*
X034232Y009293D01*
X033988Y009293D01*
X033762Y009200D01*
X033610Y009047D01*
X033457Y009200D01*
X033232Y009293D01*
X032988Y009293D01*
X032762Y009200D01*
X032610Y009047D01*
X032457Y009200D01*
X032232Y009293D01*
X031988Y009293D01*
X031762Y009200D01*
X031610Y009047D01*
X031457Y009200D01*
X031232Y009293D01*
X030988Y009293D01*
X030762Y009200D01*
X030610Y009047D01*
X030457Y009200D01*
X030390Y009228D01*
X030390Y009736D01*
X030347Y009839D01*
X030268Y009917D01*
X029956Y010230D01*
X029853Y010272D01*
X028622Y010272D01*
X028614Y010280D01*
X028490Y010332D01*
X028355Y010332D01*
X028230Y010280D01*
X028135Y010185D01*
X028083Y010060D01*
X028083Y009925D01*
X028135Y009800D01*
X028230Y009705D01*
X028355Y009653D01*
X028490Y009653D01*
X028614Y009705D01*
X028622Y009713D01*
X029681Y009713D01*
X029830Y009564D01*
X029830Y009228D01*
X029762Y009200D01*
X029610Y009047D01*
X029457Y009200D01*
X029232Y009293D01*
X028988Y009293D01*
X028762Y009200D01*
X028610Y009047D01*
X028457Y009200D01*
X028232Y009293D01*
X027988Y009293D01*
X027762Y009200D01*
X027610Y009047D01*
X027457Y009200D01*
X027232Y009293D01*
X026988Y009293D01*
X026762Y009200D01*
X026590Y009027D01*
X026496Y008802D01*
X026496Y008558D01*
X026590Y008333D01*
X026762Y008160D01*
X026640Y008282D02*
X026370Y008282D01*
X026245Y008441D02*
X026545Y008441D01*
X026496Y008599D02*
X026086Y008599D01*
X025928Y008758D02*
X026496Y008758D01*
X026544Y008916D02*
X000662Y008916D01*
X000662Y008758D02*
X001148Y008758D01*
X001162Y008772D02*
X000928Y008538D01*
X000802Y008233D01*
X000802Y007903D01*
X000928Y007598D01*
X001162Y007365D01*
X001467Y007238D01*
X001797Y007238D01*
X002102Y007365D01*
X002336Y007598D01*
X002462Y007903D01*
X002462Y008233D01*
X002336Y008538D01*
X002102Y008772D01*
X001797Y008898D01*
X001467Y008898D01*
X001162Y008772D01*
X000989Y008599D02*
X000662Y008599D01*
X000662Y008441D02*
X000888Y008441D01*
X000822Y008282D02*
X000662Y008282D01*
X000662Y008124D02*
X000802Y008124D01*
X000802Y007965D02*
X000662Y007965D01*
X000662Y007807D02*
X000842Y007807D01*
X000908Y007648D02*
X000662Y007648D01*
X000662Y007490D02*
X001037Y007490D01*
X001242Y007331D02*
X000662Y007331D01*
X000662Y007173D02*
X018267Y007173D01*
X018267Y007331D02*
X002022Y007331D01*
X002227Y007490D02*
X018267Y007490D01*
X018267Y007648D02*
X002356Y007648D01*
X002422Y007807D02*
X018271Y007807D01*
X018374Y007965D02*
X002462Y007965D01*
X002462Y008124D02*
X018533Y008124D01*
X018691Y008282D02*
X002442Y008282D01*
X002376Y008441D02*
X018850Y008441D01*
X019008Y008599D02*
X002274Y008599D01*
X002116Y008758D02*
X019167Y008758D01*
X019325Y008124D02*
X025770Y008124D01*
X025830Y007965D02*
X019166Y007965D01*
X019008Y007807D02*
X025830Y007807D01*
X025830Y007648D02*
X018849Y007648D01*
X018827Y007490D02*
X025830Y007490D01*
X025830Y007331D02*
X018827Y007331D01*
X018827Y007173D02*
X025830Y007173D01*
X025830Y007014D02*
X018827Y007014D01*
X018827Y006856D02*
X025830Y006856D01*
X025830Y006697D02*
X018827Y006697D01*
X018827Y006539D02*
X025865Y006539D01*
X026013Y006380D02*
X018827Y006380D01*
X018827Y006222D02*
X026172Y006222D01*
X026330Y006063D02*
X018827Y006063D01*
X018827Y005905D02*
X026489Y005905D01*
X026496Y005746D02*
X018827Y005746D01*
X018827Y005588D02*
X026496Y005588D01*
X027343Y005112D02*
X027877Y005112D01*
X027651Y005271D02*
X027568Y005271D01*
X028343Y005112D02*
X028877Y005112D01*
X028651Y005271D02*
X028568Y005271D01*
X029343Y005112D02*
X029877Y005112D01*
X029651Y005271D02*
X029568Y005271D01*
X030343Y005112D02*
X030936Y005112D01*
X031052Y005112D02*
X031168Y005112D01*
X031283Y005112D02*
X031877Y005112D01*
X031651Y005271D02*
X031540Y005271D01*
X031168Y005271D02*
X031052Y005271D01*
X031052Y005429D02*
X031168Y005429D01*
X031168Y005588D02*
X031052Y005588D01*
X031052Y005746D02*
X031168Y005746D01*
X031168Y005905D02*
X031052Y005905D01*
X031052Y006063D02*
X031168Y006063D01*
X031168Y006222D02*
X031052Y006222D01*
X030866Y006222D02*
X030404Y006222D01*
X030594Y006063D02*
X030655Y006063D01*
X031353Y006222D02*
X031815Y006222D01*
X031626Y006063D02*
X031565Y006063D01*
X032404Y006222D02*
X032815Y006222D01*
X032626Y006063D02*
X032594Y006063D01*
X033404Y006222D02*
X033542Y006222D01*
X033568Y005112D02*
X033343Y005112D01*
X032877Y005112D02*
X032343Y005112D01*
X032568Y005271D02*
X032651Y005271D01*
X030680Y005271D02*
X030568Y005271D01*
X029815Y006222D02*
X029404Y006222D01*
X029594Y006063D02*
X029626Y006063D01*
X028815Y006222D02*
X028404Y006222D01*
X028594Y006063D02*
X028626Y006063D01*
X027815Y006222D02*
X027404Y006222D01*
X027594Y006063D02*
X027626Y006063D01*
X027849Y008124D02*
X027370Y008124D01*
X027580Y008282D02*
X027640Y008282D01*
X028370Y008124D02*
X028849Y008124D01*
X028640Y008282D02*
X028580Y008282D01*
X029370Y008124D02*
X029849Y008124D01*
X029640Y008282D02*
X029580Y008282D01*
X030110Y008680D02*
X030110Y009680D01*
X029797Y009993D01*
X028422Y009993D01*
X028107Y009867D02*
X000662Y009867D01*
X000662Y009709D02*
X028226Y009709D01*
X028083Y010026D02*
X000662Y010026D01*
X000662Y010184D02*
X028135Y010184D01*
X028618Y009709D02*
X029685Y009709D01*
X029830Y009550D02*
X000662Y009550D01*
X000662Y009392D02*
X029830Y009392D01*
X029830Y009233D02*
X029377Y009233D01*
X029582Y009075D02*
X029637Y009075D01*
X028843Y009233D02*
X028377Y009233D01*
X028582Y009075D02*
X028637Y009075D01*
X027843Y009233D02*
X027377Y009233D01*
X027582Y009075D02*
X027637Y009075D01*
X026843Y009233D02*
X000662Y009233D01*
X000662Y009075D02*
X026637Y009075D01*
X030001Y010184D02*
X059300Y010184D01*
X059267Y010265D02*
X059393Y009960D01*
X059626Y009727D01*
X059931Y009601D01*
X060262Y009601D01*
X060567Y009727D01*
X060800Y009960D01*
X060926Y010265D01*
X060926Y010596D01*
X060800Y010901D01*
X060567Y011134D01*
X060262Y011260D01*
X059931Y011260D01*
X059626Y011134D01*
X059393Y010901D01*
X059267Y010596D01*
X059267Y010265D01*
X059267Y010343D02*
X000662Y010343D01*
X000662Y010501D02*
X059267Y010501D01*
X059293Y010660D02*
X000662Y010660D01*
X000662Y010818D02*
X059359Y010818D01*
X059469Y010977D02*
X056976Y010977D01*
X056943Y010944D02*
X057084Y011084D01*
X057160Y011268D01*
X057160Y011467D01*
X057084Y011651D01*
X056943Y011791D01*
X056759Y011867D01*
X055960Y011867D01*
X055777Y011791D01*
X055636Y011651D01*
X055635Y011647D01*
X055163Y011647D01*
X054670Y012141D01*
X054715Y012250D01*
X054715Y012485D01*
X054625Y012702D01*
X054459Y012868D01*
X054493Y012901D01*
X055185Y012209D01*
X055264Y012130D01*
X055367Y012088D01*
X055635Y012088D01*
X055636Y012084D01*
X055777Y011944D01*
X055960Y011868D01*
X056759Y011868D01*
X056943Y011944D01*
X057084Y012084D01*
X057160Y012268D01*
X057160Y012467D01*
X057084Y012651D01*
X056943Y012791D01*
X056759Y012867D01*
X055960Y012867D01*
X055777Y012791D01*
X055636Y012651D01*
X055635Y012647D01*
X055538Y012647D01*
X054715Y013471D01*
X054715Y013485D01*
X054625Y013702D01*
X054459Y013868D01*
X054242Y013957D01*
X053227Y013957D01*
X053011Y013868D01*
X052845Y013702D01*
X052755Y013485D01*
X052755Y013250D01*
X052845Y013033D01*
X053010Y012868D01*
X052845Y012702D01*
X052755Y012485D01*
X052755Y012250D01*
X052845Y012033D01*
X053011Y011867D01*
X053227Y011778D01*
X054241Y011778D01*
X054810Y011209D01*
X054889Y011130D01*
X054992Y011088D01*
X055635Y011088D01*
X055636Y011084D01*
X055777Y010944D01*
X055960Y010868D01*
X056759Y010868D01*
X056943Y010944D01*
X057105Y011135D02*
X059630Y011135D01*
X059874Y011619D02*
X059874Y011619D01*
X060280Y011611D02*
X057100Y011611D01*
X057160Y011452D02*
X060683Y011452D01*
X060876Y011294D02*
X057160Y011294D01*
X056360Y011368D02*
X055047Y011368D01*
X054047Y012368D01*
X053735Y012368D01*
X052863Y012720D02*
X005826Y012720D01*
X005896Y012651D02*
X005756Y012791D01*
X005572Y012867D01*
X004773Y012867D01*
X004589Y012791D01*
X004448Y012651D01*
X004372Y012467D01*
X004372Y012268D01*
X004448Y012084D01*
X004589Y011944D01*
X004773Y011868D01*
X005572Y011868D01*
X005756Y011944D01*
X005896Y012084D01*
X005972Y012268D01*
X005972Y012467D01*
X005896Y012651D01*
X005933Y012562D02*
X052787Y012562D01*
X052755Y012403D02*
X005972Y012403D01*
X005963Y012245D02*
X052757Y012245D01*
X052823Y012086D02*
X005897Y012086D01*
X005718Y011928D02*
X052950Y011928D01*
X054249Y011769D02*
X005777Y011769D01*
X005756Y011791D02*
X005572Y011867D01*
X004773Y011867D01*
X004589Y011791D01*
X004448Y011651D01*
X004372Y011467D01*
X004372Y011268D01*
X004448Y011084D01*
X004589Y010944D01*
X004773Y010868D01*
X005572Y010868D01*
X005756Y010944D01*
X005896Y011084D01*
X005972Y011268D01*
X005972Y011467D01*
X005896Y011651D01*
X005756Y011791D01*
X005913Y011611D02*
X054408Y011611D01*
X054566Y011452D02*
X005972Y011452D01*
X005972Y011294D02*
X054725Y011294D01*
X054883Y011135D02*
X005917Y011135D01*
X005789Y010977D02*
X055743Y010977D01*
X055755Y011769D02*
X055041Y011769D01*
X054883Y011928D02*
X055814Y011928D01*
X055635Y012086D02*
X054724Y012086D01*
X054713Y012245D02*
X055149Y012245D01*
X054990Y012403D02*
X054715Y012403D01*
X054683Y012562D02*
X054832Y012562D01*
X054673Y012720D02*
X054606Y012720D01*
X054515Y012879D02*
X054471Y012879D01*
X054422Y013368D02*
X055422Y012368D01*
X056360Y012368D01*
X057014Y012720D02*
X058333Y012720D01*
X058338Y012706D02*
X058338Y012706D01*
X058429Y012562D02*
X057120Y012562D01*
X057160Y012403D02*
X058528Y012403D01*
X058600Y012290D02*
X058600Y012290D01*
X058649Y012245D02*
X057150Y012245D01*
X057085Y012086D02*
X058820Y012086D01*
X059015Y011928D02*
X056905Y011928D01*
X056965Y011769D02*
X059315Y011769D01*
X059395Y011728D02*
X059395Y011728D01*
X060563Y011135D02*
X061003Y011135D01*
X061095Y010977D02*
X060724Y010977D01*
X060834Y010818D02*
X061141Y010818D01*
X061176Y010660D02*
X060900Y010660D01*
X060926Y010501D02*
X061183Y010501D01*
X061183Y010343D02*
X060926Y010343D01*
X060893Y010184D02*
X061179Y010184D01*
X061153Y010026D02*
X060827Y010026D01*
X060707Y009867D02*
X061111Y009867D01*
X061030Y009709D02*
X060523Y009709D01*
X060764Y009392D02*
X030390Y009392D01*
X030390Y009550D02*
X060922Y009550D01*
X060455Y009233D02*
X034377Y009233D01*
X034582Y009075D02*
X059504Y009075D01*
X059366Y009038D02*
X059366Y009038D01*
X059156Y008916D02*
X034676Y008916D01*
X034723Y008758D02*
X058900Y008758D01*
X058742Y008599D02*
X034723Y008599D01*
X034675Y008441D02*
X058583Y008441D01*
X058485Y008282D02*
X034580Y008282D01*
X034370Y008124D02*
X058394Y008124D01*
X059670Y009709D02*
X030390Y009709D01*
X030318Y009867D02*
X059486Y009867D01*
X059366Y010026D02*
X030160Y010026D01*
X030390Y009233D02*
X030843Y009233D01*
X030637Y009075D02*
X030582Y009075D01*
X031377Y009233D02*
X031843Y009233D01*
X031637Y009075D02*
X031582Y009075D01*
X032377Y009233D02*
X032843Y009233D01*
X032637Y009075D02*
X032582Y009075D01*
X033377Y009233D02*
X033843Y009233D01*
X033637Y009075D02*
X033582Y009075D01*
X033580Y008282D02*
X033640Y008282D01*
X033849Y008124D02*
X033370Y008124D01*
X032849Y008124D02*
X032370Y008124D01*
X032580Y008282D02*
X032640Y008282D01*
X031849Y008124D02*
X031370Y008124D01*
X031580Y008282D02*
X031640Y008282D01*
X030849Y008124D02*
X030370Y008124D01*
X030580Y008282D02*
X030640Y008282D01*
X018267Y007014D02*
X000662Y007014D01*
X000662Y006856D02*
X018267Y006856D01*
X018267Y006697D02*
X000662Y006697D01*
X000662Y006539D02*
X018267Y006539D01*
X018267Y006380D02*
X000662Y006380D01*
X000662Y006222D02*
X018267Y006222D01*
X018267Y006063D02*
X000662Y006063D01*
X000662Y005905D02*
X018267Y005905D01*
X018267Y005746D02*
X000662Y005746D01*
X000662Y005588D02*
X018267Y005588D01*
X018267Y005429D02*
X000662Y005429D01*
X000662Y005271D02*
X018267Y005271D01*
X018267Y005112D02*
X000662Y005112D01*
X000662Y004954D02*
X018267Y004954D01*
X018142Y004795D02*
X005746Y004795D01*
X005756Y004791D02*
X005572Y004867D01*
X004773Y004867D01*
X004589Y004791D01*
X004448Y004651D01*
X004372Y004467D01*
X004372Y004268D01*
X004448Y004084D01*
X004589Y003944D01*
X004773Y003868D01*
X005572Y003868D01*
X005756Y003944D01*
X005896Y004084D01*
X005972Y004268D01*
X005972Y004467D01*
X005896Y004651D01*
X005756Y004791D01*
X005902Y004637D02*
X017983Y004637D01*
X017825Y004478D02*
X005968Y004478D01*
X005972Y004320D02*
X017666Y004320D01*
X017508Y004161D02*
X005928Y004161D01*
X005815Y004003D02*
X017349Y004003D01*
X017191Y003844D02*
X005627Y003844D01*
X005572Y003867D02*
X004773Y003867D01*
X004589Y003791D01*
X004448Y003651D01*
X004372Y003467D01*
X004372Y003268D01*
X004448Y003084D01*
X004589Y002944D01*
X004773Y002868D01*
X005572Y002868D01*
X005756Y002944D01*
X005896Y003084D01*
X005972Y003268D01*
X005972Y003467D01*
X005896Y003651D01*
X005756Y003791D01*
X005572Y003867D01*
X005861Y003686D02*
X017032Y003686D01*
X016874Y003527D02*
X005947Y003527D01*
X005972Y003369D02*
X016715Y003369D01*
X016557Y003210D02*
X005948Y003210D01*
X005864Y003052D02*
X016398Y003052D01*
X016240Y002893D02*
X005634Y002893D01*
X005812Y002735D02*
X016081Y002735D01*
X004710Y002893D02*
X000851Y002893D01*
X000908Y002735D02*
X004533Y002735D01*
X004418Y002576D02*
X000966Y002576D01*
X001043Y002418D02*
X004372Y002418D01*
X004376Y002259D02*
X001135Y002259D01*
X001226Y002101D02*
X004442Y002101D01*
X004592Y001942D02*
X001327Y001942D01*
X002376Y000991D02*
X058095Y000991D01*
X057990Y000833D02*
X002650Y000833D01*
X003063Y000674D02*
X057832Y000674D01*
X057507Y000516D02*
X003749Y000516D01*
X004481Y003052D02*
X000793Y003052D01*
X000759Y003210D02*
X004396Y003210D01*
X004372Y003369D02*
X000731Y003369D01*
X000703Y003527D02*
X004397Y003527D01*
X004484Y003686D02*
X000675Y003686D01*
X000668Y003844D02*
X004717Y003844D01*
X004530Y004003D02*
X000662Y004003D01*
X000662Y004161D02*
X004416Y004161D01*
X004372Y004320D02*
X000662Y004320D01*
X000662Y004478D02*
X004377Y004478D01*
X004443Y004637D02*
X000662Y004637D01*
X000662Y004795D02*
X004599Y004795D01*
X004556Y010977D02*
X000662Y010977D01*
X000662Y011135D02*
X004427Y011135D01*
X004372Y011294D02*
X000662Y011294D01*
X000662Y011452D02*
X004372Y011452D01*
X004432Y011611D02*
X000662Y011611D01*
X000662Y011769D02*
X004567Y011769D01*
X004627Y011928D02*
X000662Y011928D01*
X000662Y012086D02*
X004448Y012086D01*
X004382Y012245D02*
X000676Y012245D01*
X000692Y012403D02*
X004372Y012403D01*
X004412Y012562D02*
X000728Y012562D01*
X000768Y012720D02*
X004518Y012720D01*
X004621Y012957D02*
X004688Y012923D01*
X004760Y012899D01*
X004835Y012888D01*
X005152Y012887D01*
X005152Y013347D01*
X005192Y013347D01*
X005192Y012888D01*
X005510Y012888D01*
X005585Y012899D01*
X005657Y012923D01*
X005724Y012957D01*
X005785Y013001D01*
X005838Y013055D01*
X005883Y013116D01*
X005917Y013183D01*
X005941Y013255D01*
X005952Y013330D01*
X005952Y013347D01*
X005192Y013347D01*
X005192Y013388D01*
X005152Y013388D01*
X005152Y013847D01*
X004835Y013847D01*
X004760Y013836D01*
X004688Y013812D01*
X004621Y013778D01*
X004560Y013734D01*
X004506Y013680D01*
X004462Y013619D01*
X004428Y013552D01*
X004404Y013480D01*
X004392Y013405D01*
X004392Y013388D01*
X005152Y013388D01*
X005152Y013347D01*
X004392Y013347D01*
X004392Y013330D01*
X004404Y013255D01*
X004428Y013183D01*
X004462Y013116D01*
X004506Y013055D01*
X004560Y013001D01*
X004621Y012957D01*
X004524Y013037D02*
X000849Y013037D01*
X000809Y012879D02*
X052999Y012879D01*
X052843Y013037D02*
X005821Y013037D01*
X005921Y013196D02*
X052777Y013196D01*
X052755Y013354D02*
X005192Y013354D01*
X005192Y013388D02*
X005952Y013388D01*
X005952Y013405D01*
X005941Y013480D01*
X005917Y013552D01*
X005883Y013619D01*
X005838Y013680D01*
X005785Y013734D01*
X005724Y013778D01*
X005657Y013812D01*
X005585Y013836D01*
X005510Y013847D01*
X005192Y013847D01*
X005192Y013388D01*
X005152Y013354D02*
X000995Y013354D01*
X000919Y013196D02*
X004423Y013196D01*
X004415Y013513D02*
X001070Y013513D01*
X001152Y013671D02*
X004500Y013671D01*
X004742Y013830D02*
X001270Y013830D01*
X001388Y013988D02*
X058183Y013988D01*
X058183Y013830D02*
X056790Y013830D01*
X056772Y013836D02*
X056698Y013847D01*
X056380Y013847D01*
X056380Y013388D01*
X056340Y013388D01*
X056340Y013847D01*
X056022Y013847D01*
X055947Y013836D01*
X055876Y013812D01*
X055808Y013778D01*
X055747Y013734D01*
X055694Y013680D01*
X055649Y013619D01*
X055615Y013552D01*
X055592Y013480D01*
X055580Y013405D01*
X055580Y013388D01*
X056340Y013388D01*
X056340Y013347D01*
X056380Y013347D01*
X056380Y012888D01*
X056698Y012888D01*
X056772Y012899D01*
X056844Y012923D01*
X056911Y012957D01*
X056973Y013001D01*
X057026Y013055D01*
X057070Y013116D01*
X057105Y013183D01*
X057128Y013255D01*
X057140Y013330D01*
X057140Y013347D01*
X056380Y013347D01*
X056380Y013388D01*
X057140Y013388D01*
X057140Y013405D01*
X057128Y013480D01*
X057105Y013552D01*
X057070Y013619D01*
X057026Y013680D01*
X056973Y013734D01*
X056911Y013778D01*
X056844Y013812D01*
X056772Y013836D01*
X057032Y013671D02*
X058183Y013671D01*
X058183Y013513D02*
X057117Y013513D01*
X057109Y013196D02*
X058192Y013196D01*
X058193Y013175D02*
X058193Y013175D01*
X058235Y013037D02*
X057009Y013037D01*
X056380Y013037D02*
X056340Y013037D01*
X056340Y012887D02*
X056340Y013347D01*
X055580Y013347D01*
X055580Y013330D01*
X055592Y013255D01*
X055615Y013183D01*
X055649Y013116D01*
X055694Y013055D01*
X055747Y013001D01*
X055808Y012957D01*
X055876Y012923D01*
X055947Y012899D01*
X056022Y012888D01*
X056340Y012887D01*
X056340Y013196D02*
X056380Y013196D01*
X056380Y013354D02*
X058186Y013354D01*
X058284Y012879D02*
X055307Y012879D01*
X055465Y012720D02*
X055706Y012720D01*
X055711Y013037D02*
X055148Y013037D01*
X054990Y013196D02*
X055611Y013196D01*
X055602Y013513D02*
X054703Y013513D01*
X054638Y013671D02*
X055687Y013671D01*
X055930Y013830D02*
X054497Y013830D01*
X054422Y013368D02*
X053735Y013368D01*
X052832Y013671D02*
X005845Y013671D01*
X005930Y013513D02*
X052766Y013513D01*
X052973Y013830D02*
X005602Y013830D01*
X005192Y013830D02*
X005152Y013830D01*
X005152Y013671D02*
X005192Y013671D01*
X005192Y013513D02*
X005152Y013513D01*
X005152Y013196D02*
X005192Y013196D01*
X005192Y013037D02*
X005152Y013037D01*
X002033Y014622D02*
X058170Y014622D01*
X058183Y014464D02*
X001849Y014464D01*
X001673Y014305D02*
X058183Y014305D01*
X058183Y014147D02*
X001507Y014147D01*
X002299Y014781D02*
X058119Y014781D01*
X058026Y014939D02*
X002566Y014939D01*
X003009Y015098D02*
X057867Y015098D01*
X057367Y015256D02*
X004259Y015256D01*
X004393Y015334D02*
X004393Y015334D01*
X004440Y015415D02*
X057195Y015415D01*
X056380Y013830D02*
X056340Y013830D01*
X056340Y013671D02*
X056380Y013671D01*
X056380Y013513D02*
X056340Y013513D01*
X056340Y013354D02*
X054831Y013354D01*
X054360Y017618D02*
X056360Y017618D01*
X056422Y017680D01*
X054360Y017618D02*
X053985Y017993D01*
X038047Y017993D01*
X036547Y019493D01*
X023735Y019493D01*
X023735Y018305D02*
X022485Y017055D01*
X004735Y017055D01*
X004485Y017305D01*
X004485Y028555D01*
X004610Y028680D01*
X005235Y028680D01*
X005235Y027680D02*
X006172Y027680D01*
X006672Y027180D01*
X006672Y025993D01*
X006860Y025805D01*
X006360Y025680D02*
X006860Y025180D01*
X006360Y025680D02*
X006360Y026493D01*
X006172Y026680D01*
X005235Y026680D01*
X039547Y019993D02*
X045860Y019993D01*
X045922Y020055D01*
X045985Y019993D01*
X051172Y019993D01*
X045922Y020055D02*
X045922Y022055D01*
X045610Y022368D01*
X056340Y002735D02*
X056380Y002735D01*
X056380Y002576D02*
X056340Y002576D01*
X056340Y002418D02*
X056380Y002418D01*
X056380Y002259D02*
X056340Y002259D01*
X056340Y002101D02*
X056380Y002101D01*
X056380Y001942D02*
X056340Y001942D01*
M02*
