G75*
%MOIN*%
%OFA0B0*%
%FSLAX24Y24*%
%IPPOS*%
%LPD*%
%AMOC8*
5,1,8,0,0,1.08239X$1,22.5*
%
%ADD10C,0.0050*%
%ADD11C,0.0040*%
%ADD12C,0.0140*%
%ADD13C,0.0060*%
%ADD14C,0.0020*%
%ADD15C,0.0100*%
%ADD16R,0.0118X0.0827*%
%ADD17C,0.0030*%
%ADD18C,0.0004*%
%ADD19C,0.0030*%
%ADD20C,0.0080*%
D10*
X018610Y017305D02*
X019110Y017305D01*
X019110Y018305D01*
X018610Y018305D01*
X018610Y017305D01*
X018700Y017755D02*
X019020Y017755D01*
X019020Y017855D02*
X018700Y017855D01*
X017925Y017746D02*
X017295Y017746D01*
X016610Y017680D02*
X016610Y018180D01*
X015610Y018180D01*
X015610Y017680D01*
X016610Y017680D01*
X017295Y018864D02*
X017925Y018864D01*
X010860Y018805D02*
X010860Y019305D01*
X009860Y019305D01*
X009860Y018805D01*
X010860Y018805D01*
X006683Y018780D02*
X006593Y018780D01*
X006638Y018780D02*
X006638Y018510D01*
X006683Y018510D02*
X006593Y018510D01*
X006487Y018510D02*
X006487Y018780D01*
X006306Y018510D01*
X006306Y018780D01*
X006192Y018690D02*
X006102Y018780D01*
X006012Y018690D01*
X006012Y018510D01*
X006012Y018645D02*
X006192Y018645D01*
X006192Y018690D02*
X006192Y018510D01*
X006192Y017780D02*
X006192Y017600D01*
X006102Y017510D01*
X006012Y017600D01*
X006012Y017780D01*
X006306Y017780D02*
X006487Y017780D01*
X006487Y017645D01*
X006397Y017690D01*
X006352Y017690D01*
X006306Y017645D01*
X006306Y017555D01*
X006352Y017510D01*
X006442Y017510D01*
X006487Y017555D01*
X006601Y017645D02*
X006781Y017645D01*
X006691Y017735D02*
X006691Y017555D01*
X006442Y019510D02*
X006352Y019510D01*
X006306Y019555D01*
X006306Y019735D01*
X006352Y019780D01*
X006442Y019780D01*
X006487Y019735D01*
X006487Y019555D01*
X006442Y019510D01*
X006192Y019510D02*
X006012Y019690D01*
X006012Y019735D01*
X006057Y019780D01*
X006147Y019780D01*
X006192Y019735D01*
X006192Y019510D02*
X006012Y019510D01*
X006860Y022493D02*
X007360Y022493D01*
X007360Y023493D01*
X006860Y023493D01*
X006860Y022493D01*
X010485Y022618D02*
X010485Y023118D01*
X011485Y023118D01*
X011485Y022618D01*
X010485Y022618D01*
X010935Y022708D02*
X010935Y023028D01*
X011035Y023028D02*
X011035Y022708D01*
X011485Y023243D02*
X010485Y023243D01*
X010485Y023743D01*
X011485Y023743D01*
X011485Y023243D01*
X011035Y023333D02*
X011035Y023653D01*
X010935Y023653D02*
X010935Y023333D01*
X007985Y024930D02*
X007985Y025430D01*
X006985Y025430D01*
X006985Y024930D01*
X007985Y024930D01*
X007985Y025555D02*
X006985Y025555D01*
X006985Y026055D01*
X007985Y026055D01*
X007985Y025555D01*
X006272Y025010D02*
X006182Y025100D01*
X006182Y024830D01*
X006272Y024830D02*
X006092Y024830D01*
X006119Y026510D02*
X006074Y026555D01*
X006119Y026510D02*
X006209Y026510D01*
X006254Y026555D01*
X006254Y026735D01*
X006209Y026780D01*
X006119Y026780D01*
X006074Y026735D01*
X006369Y026780D02*
X006369Y026510D01*
X006549Y026780D01*
X006549Y026510D01*
X006664Y026555D02*
X006709Y026510D01*
X006799Y026510D01*
X006844Y026555D01*
X006799Y026645D02*
X006709Y026645D01*
X006664Y026600D01*
X006664Y026555D01*
X006799Y026645D02*
X006844Y026690D01*
X006844Y026735D01*
X006799Y026780D01*
X006709Y026780D01*
X006664Y026735D01*
X006656Y027073D02*
X006746Y027073D01*
X006701Y027073D02*
X006701Y027343D01*
X006746Y027343D02*
X006656Y027343D01*
X006549Y027298D02*
X006549Y027253D01*
X006504Y027208D01*
X006414Y027208D01*
X006369Y027163D01*
X006369Y027118D01*
X006414Y027073D01*
X006504Y027073D01*
X006549Y027118D01*
X006549Y027298D02*
X006504Y027343D01*
X006414Y027343D01*
X006369Y027298D01*
X006254Y027253D02*
X006164Y027343D01*
X006074Y027253D01*
X006074Y027073D01*
X006074Y027208D02*
X006254Y027208D01*
X006254Y027253D02*
X006254Y027073D01*
X006385Y027905D02*
X007085Y027905D01*
X007085Y029205D01*
X006385Y029205D01*
X006385Y027905D01*
X007172Y027930D02*
X007672Y027930D01*
X007672Y028930D01*
X007172Y028930D01*
X007172Y027930D01*
X007262Y028380D02*
X007582Y028380D01*
X007582Y028480D02*
X007262Y028480D01*
X006885Y028505D02*
X006585Y028505D01*
X006585Y028605D02*
X006885Y028605D01*
X005585Y029250D02*
X005540Y029205D01*
X005450Y029205D01*
X005405Y029250D01*
X005405Y029340D01*
X005495Y029340D01*
X005585Y029430D02*
X005585Y029250D01*
X005585Y029430D02*
X005540Y029475D01*
X005450Y029475D01*
X005405Y029430D01*
X005290Y029475D02*
X005110Y029205D01*
X005110Y029475D01*
X004996Y029475D02*
X004860Y029475D01*
X004815Y029430D01*
X004815Y029250D01*
X004860Y029205D01*
X004996Y029205D01*
X004996Y029475D01*
X005290Y029475D02*
X005290Y029205D01*
X009297Y028930D02*
X009297Y027930D01*
X009797Y027930D01*
X009797Y028930D01*
X009297Y028930D01*
X009387Y028480D02*
X009707Y028480D01*
X009707Y028380D02*
X009387Y028380D01*
X010322Y027905D02*
X011022Y027905D01*
X011022Y029205D01*
X010322Y029205D01*
X010322Y027905D01*
X011110Y027930D02*
X011610Y027930D01*
X011610Y028930D01*
X011110Y028930D01*
X011110Y027930D01*
X011200Y028380D02*
X011520Y028380D01*
X011520Y028480D02*
X011200Y028480D01*
X010822Y028505D02*
X010522Y028505D01*
X010522Y028605D02*
X010822Y028605D01*
X013235Y028930D02*
X013235Y027930D01*
X013735Y027930D01*
X013735Y028930D01*
X013235Y028930D01*
X013325Y028480D02*
X013645Y028480D01*
X013645Y028380D02*
X013325Y028380D01*
X014322Y027905D02*
X015022Y027905D01*
X015022Y029205D01*
X014322Y029205D01*
X014322Y027905D01*
X015110Y027930D02*
X015610Y027930D01*
X015610Y028930D01*
X015110Y028930D01*
X015110Y027930D01*
X015200Y028380D02*
X015520Y028380D01*
X015520Y028480D02*
X015200Y028480D01*
X014822Y028505D02*
X014522Y028505D01*
X014522Y028605D02*
X014822Y028605D01*
X017235Y028930D02*
X017235Y027930D01*
X017735Y027930D01*
X017735Y028930D01*
X017235Y028930D01*
X017325Y028480D02*
X017645Y028480D01*
X017645Y028380D02*
X017325Y028380D01*
X018397Y028505D02*
X018697Y028505D01*
X018697Y028605D02*
X018397Y028605D01*
X018985Y028930D02*
X018985Y027930D01*
X019485Y027930D01*
X019485Y028930D01*
X018985Y028930D01*
X018897Y029205D02*
X018197Y029205D01*
X018197Y027905D01*
X018897Y027905D01*
X018897Y029205D01*
X019075Y028480D02*
X019395Y028480D01*
X019395Y028380D02*
X019075Y028380D01*
X021110Y027930D02*
X021610Y027930D01*
X021610Y028930D01*
X021110Y028930D01*
X021110Y027930D01*
X022135Y027905D02*
X022835Y027905D01*
X022835Y029205D01*
X022135Y029205D01*
X022135Y027905D01*
X022335Y028505D02*
X022635Y028505D01*
X022635Y028605D02*
X022335Y028605D01*
X022922Y028930D02*
X022922Y027930D01*
X023422Y027930D01*
X023422Y028930D01*
X022922Y028930D01*
X023012Y028480D02*
X023332Y028480D01*
X023332Y028380D02*
X023012Y028380D01*
X021520Y028380D02*
X021200Y028380D01*
X021200Y028480D02*
X021520Y028480D01*
X025047Y028930D02*
X025047Y027930D01*
X025547Y027930D01*
X025547Y028930D01*
X025047Y028930D01*
X025137Y028480D02*
X025457Y028480D01*
X025457Y028380D02*
X025137Y028380D01*
X026072Y027905D02*
X026772Y027905D01*
X026772Y029205D01*
X026072Y029205D01*
X026072Y027905D01*
X026860Y027930D02*
X027360Y027930D01*
X027360Y028930D01*
X026860Y028930D01*
X026860Y027930D01*
X026950Y028380D02*
X027270Y028380D01*
X027270Y028480D02*
X026950Y028480D01*
X026572Y028505D02*
X026272Y028505D01*
X026272Y028605D02*
X026572Y028605D01*
X028985Y028930D02*
X028985Y027930D01*
X029485Y027930D01*
X029485Y028930D01*
X028985Y028930D01*
X029075Y028480D02*
X029395Y028480D01*
X029395Y028380D02*
X029075Y028380D01*
X030272Y028505D02*
X030572Y028505D01*
X030572Y028605D02*
X030272Y028605D01*
X030860Y028930D02*
X030860Y027930D01*
X031360Y027930D01*
X031360Y028930D01*
X030860Y028930D01*
X030772Y029205D02*
X030072Y029205D01*
X030072Y027905D01*
X030772Y027905D01*
X030772Y029205D01*
X030950Y028480D02*
X031270Y028480D01*
X031270Y028380D02*
X030950Y028380D01*
X032985Y027930D02*
X033485Y027930D01*
X033485Y028930D01*
X032985Y028930D01*
X032985Y027930D01*
X033947Y027905D02*
X034647Y027905D01*
X034647Y029205D01*
X033947Y029205D01*
X033947Y027905D01*
X034147Y028505D02*
X034447Y028505D01*
X034447Y028605D02*
X034147Y028605D01*
X034735Y028930D02*
X034735Y027930D01*
X035235Y027930D01*
X035235Y028930D01*
X034735Y028930D01*
X034825Y028480D02*
X035145Y028480D01*
X035145Y028380D02*
X034825Y028380D01*
X033395Y028380D02*
X033075Y028380D01*
X033075Y028480D02*
X033395Y028480D01*
X036860Y028930D02*
X036860Y027930D01*
X037360Y027930D01*
X037360Y028930D01*
X036860Y028930D01*
X036950Y028480D02*
X037270Y028480D01*
X037270Y028380D02*
X036950Y028380D01*
X037885Y027905D02*
X038585Y027905D01*
X038585Y029205D01*
X037885Y029205D01*
X037885Y027905D01*
X038672Y027930D02*
X039172Y027930D01*
X039172Y028930D01*
X038672Y028930D01*
X038672Y027930D01*
X038762Y028380D02*
X039082Y028380D01*
X039082Y028480D02*
X038762Y028480D01*
X038385Y028505D02*
X038085Y028505D01*
X038085Y028605D02*
X038385Y028605D01*
X040797Y028930D02*
X040797Y027930D01*
X041297Y027930D01*
X041297Y028930D01*
X040797Y028930D01*
X040887Y028480D02*
X041207Y028480D01*
X041207Y028380D02*
X040887Y028380D01*
X042022Y028505D02*
X042322Y028505D01*
X042322Y028605D02*
X042022Y028605D01*
X042610Y028930D02*
X042610Y027930D01*
X043110Y027930D01*
X043110Y028930D01*
X042610Y028930D01*
X042522Y029205D02*
X041822Y029205D01*
X041822Y027905D01*
X042522Y027905D01*
X042522Y029205D01*
X042700Y028480D02*
X043020Y028480D01*
X043020Y028380D02*
X042700Y028380D01*
X044735Y027930D02*
X045235Y027930D01*
X045235Y028930D01*
X044735Y028930D01*
X044735Y027930D01*
X045697Y027905D02*
X046397Y027905D01*
X046397Y029205D01*
X045697Y029205D01*
X045697Y027905D01*
X045897Y028505D02*
X046197Y028505D01*
X046197Y028605D02*
X045897Y028605D01*
X046485Y028930D02*
X046485Y027930D01*
X046985Y027930D01*
X046985Y028930D01*
X046485Y028930D01*
X046575Y028480D02*
X046895Y028480D01*
X046895Y028380D02*
X046575Y028380D01*
X045145Y028380D02*
X044825Y028380D01*
X044825Y028480D02*
X045145Y028480D01*
X048610Y028930D02*
X048610Y027930D01*
X049110Y027930D01*
X049110Y028930D01*
X048610Y028930D01*
X048700Y028480D02*
X049020Y028480D01*
X049020Y028380D02*
X048700Y028380D01*
X049697Y027905D02*
X050397Y027905D01*
X050397Y029205D01*
X049697Y029205D01*
X049697Y027905D01*
X050485Y027930D02*
X050985Y027930D01*
X050985Y028930D01*
X050485Y028930D01*
X050485Y027930D01*
X050575Y028380D02*
X050895Y028380D01*
X050895Y028480D02*
X050575Y028480D01*
X050197Y028505D02*
X049897Y028505D01*
X049897Y028605D02*
X050197Y028605D01*
X052610Y028930D02*
X052610Y027930D01*
X053110Y027930D01*
X053110Y028930D01*
X052610Y028930D01*
X052700Y028480D02*
X053020Y028480D01*
X053020Y028380D02*
X052700Y028380D01*
X054940Y028563D02*
X054940Y028743D01*
X054985Y028788D01*
X055121Y028788D01*
X055121Y028518D01*
X054985Y028518D01*
X054940Y028563D01*
X055235Y028518D02*
X055235Y028788D01*
X055415Y028788D02*
X055235Y028518D01*
X055415Y028518D02*
X055415Y028788D01*
X055530Y028743D02*
X055575Y028788D01*
X055665Y028788D01*
X055710Y028743D01*
X055710Y028563D01*
X055665Y028518D01*
X055575Y028518D01*
X055530Y028563D01*
X055530Y028653D01*
X055620Y028653D01*
X055620Y027788D02*
X055530Y027698D01*
X055530Y027518D01*
X055415Y027563D02*
X055370Y027518D01*
X055280Y027518D01*
X055235Y027563D01*
X055121Y027518D02*
X054940Y027518D01*
X055030Y027518D02*
X055030Y027788D01*
X055121Y027698D01*
X055235Y027743D02*
X055280Y027788D01*
X055370Y027788D01*
X055415Y027743D01*
X055415Y027563D01*
X055530Y027653D02*
X055710Y027653D01*
X055710Y027698D02*
X055620Y027788D01*
X055710Y027698D02*
X055710Y027518D01*
X055620Y026788D02*
X055530Y026698D01*
X055530Y026518D01*
X055415Y026563D02*
X055370Y026518D01*
X055280Y026518D01*
X055235Y026563D01*
X055121Y026518D02*
X054940Y026698D01*
X054940Y026743D01*
X054985Y026788D01*
X055076Y026788D01*
X055121Y026743D01*
X055235Y026743D02*
X055280Y026788D01*
X055370Y026788D01*
X055415Y026743D01*
X055415Y026563D01*
X055530Y026653D02*
X055710Y026653D01*
X055710Y026698D02*
X055620Y026788D01*
X055710Y026698D02*
X055710Y026518D01*
X055121Y026518D02*
X054940Y026518D01*
X050334Y025845D02*
X050334Y023640D01*
X050332Y023620D01*
X050327Y023600D01*
X050318Y023581D01*
X050306Y023564D01*
X050292Y023550D01*
X050275Y023538D01*
X050256Y023529D01*
X050236Y023524D01*
X050216Y023522D01*
X048129Y023522D01*
X048109Y023524D01*
X048089Y023529D01*
X048070Y023538D01*
X048053Y023550D01*
X048039Y023564D01*
X048027Y023581D01*
X048018Y023600D01*
X048013Y023620D01*
X048011Y023640D01*
X048011Y025845D01*
X048013Y025866D01*
X048018Y025885D01*
X048027Y025904D01*
X048039Y025921D01*
X048053Y025935D01*
X048070Y025947D01*
X048089Y025956D01*
X048108Y025961D01*
X048129Y025963D01*
X050216Y025963D01*
X050236Y025961D01*
X050256Y025956D01*
X050275Y025947D01*
X050292Y025935D01*
X050306Y025921D01*
X050318Y025904D01*
X050327Y025885D01*
X050332Y025865D01*
X050334Y025845D01*
X047172Y023930D02*
X047172Y023743D01*
X047268Y023743D01*
X047172Y023743D02*
X047172Y023555D01*
X047172Y023743D02*
X046922Y023930D01*
X046922Y023743D01*
X046826Y023743D01*
X046922Y023743D02*
X046922Y023555D01*
X047172Y023743D01*
X046672Y023180D02*
X046172Y023180D01*
X046172Y022180D01*
X046672Y022180D01*
X046672Y023180D01*
X046773Y022757D02*
X046773Y022103D01*
X047856Y022103D01*
X047946Y022194D01*
X047946Y022757D01*
X046773Y022757D01*
X048047Y023055D02*
X048547Y023055D01*
X048547Y022055D01*
X048047Y022055D01*
X048047Y023055D01*
X048137Y022605D02*
X048457Y022605D01*
X048457Y022505D02*
X048137Y022505D01*
X047930Y022030D02*
X047932Y022047D01*
X047937Y022064D01*
X047946Y022078D01*
X047958Y022091D01*
X047973Y022101D01*
X047989Y022107D01*
X048006Y022110D01*
X048023Y022109D01*
X048040Y022104D01*
X048055Y022096D01*
X048068Y022085D01*
X048079Y022071D01*
X048086Y022056D01*
X048090Y022039D01*
X048090Y022021D01*
X048086Y022004D01*
X048079Y021989D01*
X048068Y021975D01*
X048055Y021964D01*
X048040Y021956D01*
X048023Y021951D01*
X048006Y021950D01*
X047989Y021953D01*
X047973Y021959D01*
X047958Y021969D01*
X047946Y021982D01*
X047937Y021996D01*
X047932Y022013D01*
X047930Y022030D01*
X047860Y021555D02*
X047860Y021055D01*
X046860Y021055D01*
X046860Y021555D01*
X047860Y021555D01*
X047860Y020993D02*
X046860Y020993D01*
X046860Y020493D01*
X047860Y020493D01*
X047860Y020993D01*
X047410Y020903D02*
X047410Y020583D01*
X047310Y020583D02*
X047310Y020903D01*
X046735Y021055D02*
X046735Y021555D01*
X045735Y021555D01*
X045735Y021055D01*
X046735Y021055D01*
X045185Y022355D02*
X045185Y023255D01*
X043285Y023255D01*
X043285Y022355D01*
X045185Y022355D01*
X044285Y022605D02*
X044285Y023005D01*
X044185Y023005D02*
X044185Y022605D01*
X042922Y023055D02*
X042922Y022055D01*
X042422Y022055D01*
X042422Y023055D01*
X042922Y023055D01*
X042442Y023522D02*
X044528Y023522D01*
X044548Y023524D01*
X044568Y023529D01*
X044587Y023538D01*
X044604Y023550D01*
X044618Y023564D01*
X044630Y023581D01*
X044639Y023600D01*
X044644Y023620D01*
X044646Y023640D01*
X044646Y025845D01*
X044644Y025865D01*
X044639Y025885D01*
X044630Y025904D01*
X044618Y025921D01*
X044604Y025935D01*
X044587Y025947D01*
X044568Y025956D01*
X044548Y025961D01*
X044528Y025963D01*
X042442Y025963D01*
X042421Y025961D01*
X042402Y025956D01*
X042383Y025947D01*
X042366Y025935D01*
X042352Y025921D01*
X042340Y025904D01*
X042331Y025885D01*
X042326Y025866D01*
X042324Y025845D01*
X042323Y025845D02*
X042323Y023640D01*
X042324Y023640D02*
X042326Y023620D01*
X042331Y023600D01*
X042340Y023581D01*
X042352Y023564D01*
X042366Y023550D01*
X042383Y023538D01*
X042402Y023529D01*
X042422Y023524D01*
X042442Y023522D01*
X041581Y023743D02*
X041485Y023743D01*
X041485Y023930D01*
X041485Y023743D02*
X041485Y023555D01*
X041485Y023743D02*
X041235Y023930D01*
X041235Y023743D01*
X041139Y023743D01*
X041235Y023743D02*
X041235Y023555D01*
X041485Y023743D01*
X041148Y022757D02*
X041148Y022103D01*
X042231Y022103D01*
X042321Y022194D01*
X042321Y022757D01*
X041148Y022757D01*
X039985Y022743D02*
X039485Y022743D01*
X039485Y023743D01*
X039985Y023743D01*
X039985Y022743D01*
X040110Y021555D02*
X040110Y021055D01*
X041110Y021055D01*
X041110Y021555D01*
X040110Y021555D01*
X041235Y021555D02*
X041235Y021055D01*
X042235Y021055D01*
X042235Y021555D01*
X041235Y021555D01*
X041235Y020993D02*
X041235Y020493D01*
X042235Y020493D01*
X042235Y020993D01*
X041235Y020993D01*
X041685Y020903D02*
X041685Y020583D01*
X041785Y020583D02*
X041785Y020903D01*
X042305Y022030D02*
X042307Y022047D01*
X042312Y022064D01*
X042321Y022078D01*
X042333Y022091D01*
X042348Y022101D01*
X042364Y022107D01*
X042381Y022110D01*
X042398Y022109D01*
X042415Y022104D01*
X042430Y022096D01*
X042443Y022085D01*
X042454Y022071D01*
X042461Y022056D01*
X042465Y022039D01*
X042465Y022021D01*
X042461Y022004D01*
X042454Y021989D01*
X042443Y021975D01*
X042430Y021964D01*
X042415Y021956D01*
X042398Y021951D01*
X042381Y021950D01*
X042364Y021953D01*
X042348Y021959D01*
X042333Y021969D01*
X042321Y021982D01*
X042312Y021996D01*
X042307Y022013D01*
X042305Y022030D01*
X042512Y022505D02*
X042832Y022505D01*
X042832Y022605D02*
X042512Y022605D01*
X048910Y022355D02*
X050810Y022355D01*
X050810Y023255D01*
X048910Y023255D01*
X048910Y022355D01*
X049810Y022605D02*
X049810Y023005D01*
X049910Y023005D02*
X049910Y022605D01*
X051297Y022680D02*
X051485Y022680D01*
X051485Y022584D01*
X051485Y022680D02*
X051672Y022680D01*
X051485Y022680D02*
X051672Y022930D01*
X051485Y022930D01*
X051485Y023026D01*
X051485Y022930D02*
X051297Y022930D01*
X051485Y022680D01*
X052235Y022680D02*
X052422Y022680D01*
X052422Y022584D01*
X052422Y022680D02*
X052610Y022680D01*
X052422Y022680D02*
X052235Y022930D01*
X052422Y022930D01*
X052422Y023026D01*
X052422Y022930D02*
X052610Y022930D01*
X052422Y022680D01*
X053172Y022680D02*
X053360Y022930D01*
X053360Y023026D01*
X053360Y022930D02*
X053172Y022930D01*
X053360Y022930D02*
X053547Y022680D01*
X053360Y022680D01*
X053360Y022584D01*
X053360Y022680D02*
X053172Y022680D01*
X053360Y022930D02*
X053547Y022930D01*
X054110Y022930D02*
X054297Y022930D01*
X054297Y023026D01*
X054297Y022930D02*
X054485Y022930D01*
X054297Y022930D02*
X054110Y022680D01*
X054297Y022680D01*
X054297Y022584D01*
X054297Y022680D02*
X054485Y022680D01*
X054297Y022930D01*
X055235Y019788D02*
X055415Y019518D01*
X055415Y019350D02*
X055415Y019080D01*
X055325Y019170D01*
X055235Y019080D01*
X055235Y019350D01*
X055121Y019305D02*
X055121Y019125D01*
X055076Y019080D01*
X054985Y019080D01*
X054940Y019125D01*
X054940Y019305D01*
X054985Y019350D01*
X055076Y019350D01*
X055121Y019305D01*
X055235Y019518D02*
X055415Y019788D01*
X055530Y019788D02*
X055710Y019788D01*
X055620Y019788D02*
X055620Y019518D01*
X055575Y019350D02*
X055530Y019305D01*
X055530Y019215D01*
X055575Y019170D01*
X055710Y019170D01*
X055710Y019080D02*
X055710Y019350D01*
X055575Y019350D01*
X055735Y018930D02*
X054735Y018930D01*
X054735Y018430D01*
X055735Y018430D01*
X055735Y018930D01*
X055665Y017850D02*
X055710Y017805D01*
X055710Y017625D01*
X055665Y017580D01*
X055575Y017580D01*
X055530Y017625D01*
X055530Y017715D01*
X055620Y017715D01*
X055530Y017805D02*
X055575Y017850D01*
X055665Y017850D01*
X055415Y017850D02*
X055235Y017580D01*
X055235Y017850D01*
X055121Y017850D02*
X054985Y017850D01*
X054940Y017805D01*
X054940Y017625D01*
X054985Y017580D01*
X055121Y017580D01*
X055121Y017850D01*
X055415Y017850D02*
X055415Y017580D01*
X031177Y023375D02*
X031102Y023300D01*
X031027Y023300D01*
X030952Y023375D01*
X030952Y023750D01*
X031027Y023750D02*
X030877Y023750D01*
X030717Y023750D02*
X030492Y023750D01*
X030417Y023675D01*
X030417Y023525D01*
X030492Y023450D01*
X030717Y023450D01*
X030717Y023300D02*
X030717Y023750D01*
X030257Y023525D02*
X030031Y023525D01*
X029956Y023450D01*
X029956Y023375D01*
X030031Y023300D01*
X030181Y023300D01*
X030257Y023375D01*
X030257Y023525D01*
X030106Y023675D01*
X029956Y023750D01*
X016110Y023993D02*
X016110Y022993D01*
X015610Y022993D01*
X015610Y023993D01*
X016110Y023993D01*
X016020Y023543D02*
X015700Y023543D01*
X015700Y023443D02*
X016020Y023443D01*
D11*
X004660Y001081D02*
X004707Y001034D01*
X004660Y001081D02*
X004660Y001174D01*
X004862Y001128D02*
X005002Y000988D01*
X004815Y000988D01*
X004862Y000848D02*
X004862Y001128D01*
X005110Y001081D02*
X005110Y000988D01*
X005156Y000941D01*
X005296Y000941D01*
X005296Y000848D02*
X005296Y001128D01*
X005156Y001128D01*
X005110Y001081D01*
X005404Y001128D02*
X005498Y001128D01*
X005451Y001128D02*
X005451Y000894D01*
X005498Y000848D01*
X005544Y000848D01*
X005591Y000894D01*
X006104Y002193D02*
X006010Y002286D01*
X006010Y002473D01*
X006197Y002473D02*
X006197Y002286D01*
X006104Y002193D01*
X006305Y002239D02*
X006352Y002193D01*
X006445Y002193D01*
X006492Y002239D01*
X006492Y002333D02*
X006398Y002379D01*
X006352Y002379D01*
X006305Y002333D01*
X006305Y002239D01*
X006492Y002333D02*
X006492Y002473D01*
X006305Y002473D01*
X006599Y002333D02*
X006786Y002333D01*
X006693Y002426D02*
X006693Y002239D01*
X006688Y003193D02*
X006595Y003193D01*
X006641Y003193D02*
X006641Y003473D01*
X006595Y003473D02*
X006688Y003473D01*
X006492Y003473D02*
X006305Y003193D01*
X006305Y003473D01*
X006197Y003379D02*
X006104Y003473D01*
X006010Y003379D01*
X006010Y003193D01*
X006010Y003333D02*
X006197Y003333D01*
X006197Y003379D02*
X006197Y003193D01*
X006492Y003193D02*
X006492Y003473D01*
X006492Y004193D02*
X006305Y004193D01*
X006197Y004193D02*
X006197Y004473D01*
X006150Y004333D02*
X006010Y004193D01*
X006197Y004286D02*
X006010Y004473D01*
X006492Y004473D02*
X006492Y004193D01*
X006599Y004239D02*
X006646Y004193D01*
X006740Y004193D01*
X006786Y004239D01*
X006786Y004426D01*
X006740Y004473D01*
X006646Y004473D01*
X006599Y004426D01*
X006693Y011193D02*
X006693Y011333D01*
X006599Y011426D01*
X006599Y011473D01*
X006492Y011473D02*
X006305Y011193D01*
X006305Y011473D01*
X006197Y011426D02*
X006197Y011239D01*
X006150Y011193D01*
X006057Y011193D01*
X006010Y011239D01*
X006010Y011426D02*
X006057Y011473D01*
X006150Y011473D01*
X006197Y011426D01*
X006492Y011473D02*
X006492Y011193D01*
X006693Y011333D02*
X006786Y011426D01*
X006786Y011473D01*
X006894Y011426D02*
X006941Y011473D01*
X007034Y011473D01*
X007081Y011426D01*
X007081Y011379D01*
X007034Y011333D01*
X006941Y011333D01*
X006894Y011286D01*
X006894Y011239D01*
X006941Y011193D01*
X007034Y011193D01*
X007081Y011239D01*
X006688Y012193D02*
X006595Y012193D01*
X006641Y012193D02*
X006641Y012473D01*
X006595Y012473D02*
X006688Y012473D01*
X006492Y012426D02*
X006492Y012379D01*
X006445Y012333D01*
X006352Y012333D01*
X006305Y012286D01*
X006305Y012239D01*
X006352Y012193D01*
X006445Y012193D01*
X006492Y012239D01*
X006492Y012426D02*
X006445Y012473D01*
X006352Y012473D01*
X006305Y012426D01*
X006197Y012379D02*
X006104Y012473D01*
X006010Y012379D01*
X006010Y012193D01*
X006010Y012333D02*
X006197Y012333D01*
X006197Y012379D02*
X006197Y012193D01*
X005669Y014598D02*
X005623Y014598D01*
X005576Y014644D01*
X005576Y014878D01*
X005623Y014878D02*
X005529Y014878D01*
X005421Y014878D02*
X005281Y014878D01*
X005235Y014831D01*
X005235Y014738D01*
X005281Y014691D01*
X005421Y014691D01*
X005421Y014598D02*
X005421Y014878D01*
X005127Y014831D02*
X005080Y014878D01*
X004987Y014878D01*
X004940Y014831D01*
X004940Y014784D01*
X005127Y014598D01*
X004940Y014598D01*
X004832Y014784D02*
X004785Y014831D01*
X004785Y014924D01*
X005669Y014598D02*
X005716Y014644D01*
X010001Y018388D02*
X010188Y018388D01*
X010095Y018388D02*
X010095Y018668D01*
X010188Y018574D01*
X010296Y018574D02*
X010343Y018528D01*
X010296Y018481D01*
X010296Y018434D01*
X010343Y018388D01*
X010436Y018388D01*
X010483Y018434D01*
X010591Y018388D02*
X010684Y018481D01*
X010637Y018481D02*
X010777Y018481D01*
X010777Y018388D02*
X010777Y018668D01*
X010637Y018668D01*
X010591Y018621D01*
X010591Y018528D01*
X010637Y018481D01*
X010483Y018621D02*
X010436Y018668D01*
X010343Y018668D01*
X010296Y018621D01*
X010296Y018574D01*
X010343Y018528D02*
X010389Y018528D01*
X005694Y020457D02*
X005647Y020410D01*
X005600Y020410D01*
X005554Y020457D01*
X005554Y020690D01*
X005600Y020690D02*
X005507Y020690D01*
X005399Y020690D02*
X005259Y020690D01*
X005212Y020644D01*
X005212Y020550D01*
X005259Y020503D01*
X005399Y020503D01*
X005399Y020410D02*
X005399Y020690D01*
X005104Y020550D02*
X004964Y020690D01*
X004964Y020410D01*
X004918Y020550D02*
X005104Y020550D01*
X007380Y022763D02*
X007660Y022763D01*
X007660Y022903D01*
X007613Y022949D01*
X007520Y022949D01*
X007473Y022903D01*
X007473Y022763D01*
X007473Y022856D02*
X007380Y022949D01*
X007427Y023057D02*
X007380Y023104D01*
X007380Y023197D01*
X007427Y023244D01*
X007473Y023244D01*
X007520Y023197D01*
X007520Y023151D01*
X007520Y023197D02*
X007567Y023244D01*
X007613Y023244D01*
X007660Y023197D01*
X007660Y023104D01*
X007613Y023057D01*
X007613Y023352D02*
X007660Y023399D01*
X007660Y023492D01*
X007613Y023539D01*
X007567Y023539D01*
X007520Y023492D01*
X007473Y023539D01*
X007427Y023539D01*
X007380Y023492D01*
X007380Y023399D01*
X007427Y023352D01*
X007520Y023445D02*
X007520Y023492D01*
X007545Y024575D02*
X007358Y024762D01*
X007358Y024809D01*
X007405Y024855D01*
X007498Y024855D01*
X007545Y024809D01*
X007653Y024809D02*
X007653Y024715D01*
X007700Y024668D01*
X007840Y024668D01*
X007840Y024575D02*
X007840Y024855D01*
X007700Y024855D01*
X007653Y024809D01*
X007746Y024668D02*
X007653Y024575D01*
X007545Y024575D02*
X007358Y024575D01*
X007251Y024622D02*
X007204Y024575D01*
X007110Y024575D01*
X007064Y024622D01*
X007064Y024809D01*
X007110Y024855D01*
X007204Y024855D01*
X007251Y024809D01*
X007251Y024762D01*
X007204Y024715D01*
X007064Y024715D01*
X005724Y024739D02*
X005677Y024693D01*
X005630Y024693D01*
X005584Y024739D01*
X005584Y024973D01*
X005630Y024973D02*
X005537Y024973D01*
X005429Y024973D02*
X005289Y024973D01*
X005242Y024926D01*
X005242Y024833D01*
X005289Y024786D01*
X005429Y024786D01*
X005429Y024693D02*
X005429Y024973D01*
X005134Y024879D02*
X005041Y024973D01*
X005041Y024693D01*
X005134Y024693D02*
X004948Y024693D01*
X005031Y025733D02*
X004844Y025919D01*
X004844Y025966D01*
X004890Y026013D01*
X004984Y026013D01*
X005031Y025966D01*
X005138Y025966D02*
X005138Y025873D01*
X005185Y025826D01*
X005325Y025826D01*
X005325Y025733D02*
X005325Y026013D01*
X005185Y026013D01*
X005138Y025966D01*
X005031Y025733D02*
X004844Y025733D01*
X005480Y025779D02*
X005480Y026013D01*
X005526Y026013D02*
X005433Y026013D01*
X005480Y025779D02*
X005526Y025733D01*
X005573Y025733D01*
X005620Y025779D01*
X007064Y026247D02*
X007064Y026293D01*
X007110Y026340D01*
X007204Y026340D01*
X007251Y026387D01*
X007251Y026434D01*
X007204Y026480D01*
X007110Y026480D01*
X007064Y026434D01*
X007064Y026387D01*
X007110Y026340D01*
X007204Y026340D02*
X007251Y026293D01*
X007251Y026247D01*
X007204Y026200D01*
X007110Y026200D01*
X007064Y026247D01*
X007358Y026200D02*
X007545Y026200D01*
X007358Y026387D01*
X007358Y026434D01*
X007405Y026480D01*
X007498Y026480D01*
X007545Y026434D01*
X007653Y026434D02*
X007653Y026340D01*
X007700Y026293D01*
X007840Y026293D01*
X007840Y026200D02*
X007840Y026480D01*
X007700Y026480D01*
X007653Y026434D01*
X007746Y026293D02*
X007653Y026200D01*
X008110Y027986D02*
X008390Y027986D01*
X008390Y028126D01*
X008343Y028173D01*
X008250Y028173D01*
X008203Y028126D01*
X008203Y027986D01*
X008203Y028079D02*
X008110Y028173D01*
X008110Y028280D02*
X008110Y028467D01*
X008110Y028374D02*
X008390Y028374D01*
X008297Y028280D01*
X007606Y029075D02*
X007512Y029075D01*
X007466Y029122D01*
X007358Y029075D02*
X007171Y029075D01*
X007264Y029075D02*
X007264Y029355D01*
X007358Y029262D01*
X007466Y029309D02*
X007512Y029355D01*
X007606Y029355D01*
X007652Y029309D01*
X007652Y029122D01*
X007606Y029075D01*
X006253Y029120D02*
X006253Y029027D01*
X006206Y028980D01*
X006206Y028873D02*
X006253Y028826D01*
X006253Y028732D01*
X006206Y028686D01*
X006019Y028686D01*
X005972Y028732D01*
X005972Y028826D01*
X006019Y028873D01*
X005972Y028980D02*
X006159Y029167D01*
X006206Y029167D01*
X006253Y029120D01*
X005972Y029167D02*
X005972Y028980D01*
X009323Y029114D02*
X009369Y029068D01*
X009463Y029068D01*
X009509Y029114D01*
X009617Y029114D02*
X009664Y029068D01*
X009757Y029068D01*
X009804Y029114D01*
X009804Y029301D01*
X009757Y029348D01*
X009664Y029348D01*
X009617Y029301D01*
X009509Y029301D02*
X009463Y029348D01*
X009369Y029348D01*
X009323Y029301D01*
X009323Y029254D01*
X009369Y029208D01*
X009323Y029161D01*
X009323Y029114D01*
X009369Y029208D02*
X009416Y029208D01*
X009910Y029138D02*
X009957Y029185D01*
X009910Y029138D02*
X009910Y029045D01*
X009957Y028998D01*
X010143Y028998D01*
X010190Y029045D01*
X010190Y029138D01*
X010143Y029185D01*
X010143Y029293D02*
X010097Y029293D01*
X010050Y029340D01*
X010050Y029433D01*
X010003Y029480D01*
X009957Y029480D01*
X009910Y029433D01*
X009910Y029340D01*
X009957Y029293D01*
X010003Y029293D01*
X010050Y029340D01*
X010050Y029433D02*
X010097Y029480D01*
X010143Y029480D01*
X010190Y029433D01*
X010190Y029340D01*
X010143Y029293D01*
X011108Y029215D02*
X011295Y029215D01*
X011155Y029355D01*
X011155Y029075D01*
X011403Y029122D02*
X011450Y029075D01*
X011543Y029075D01*
X011590Y029122D01*
X011590Y029309D01*
X011543Y029355D01*
X011450Y029355D01*
X011403Y029309D01*
X012047Y028467D02*
X012047Y028280D01*
X012234Y028467D01*
X012281Y028467D01*
X012328Y028420D01*
X012328Y028327D01*
X012281Y028280D01*
X012281Y028173D02*
X012187Y028173D01*
X012141Y028126D01*
X012141Y027986D01*
X012141Y028079D02*
X012047Y028173D01*
X012047Y027986D02*
X012328Y027986D01*
X012328Y028126D01*
X012281Y028173D01*
X013233Y029059D02*
X013233Y029246D01*
X013280Y029293D01*
X013373Y029293D01*
X013420Y029246D01*
X013420Y029199D01*
X013373Y029153D01*
X013233Y029153D01*
X013233Y029059D02*
X013280Y029013D01*
X013373Y029013D01*
X013420Y029059D01*
X013528Y029059D02*
X013575Y029013D01*
X013668Y029013D01*
X013715Y029059D01*
X013715Y029246D01*
X013668Y029293D01*
X013575Y029293D01*
X013528Y029246D01*
X013847Y029230D02*
X013847Y029043D01*
X013847Y029136D02*
X014128Y029136D01*
X014034Y029043D01*
X013847Y028935D02*
X013847Y028748D01*
X013847Y028842D02*
X014128Y028842D01*
X014034Y028748D01*
X014081Y028640D02*
X014128Y028594D01*
X014128Y028500D01*
X014081Y028454D01*
X013894Y028454D01*
X013847Y028500D01*
X013847Y028594D01*
X013894Y028640D01*
X015189Y029122D02*
X015235Y029075D01*
X015329Y029075D01*
X015376Y029122D01*
X015189Y029309D01*
X015189Y029122D01*
X015189Y029309D02*
X015235Y029355D01*
X015329Y029355D01*
X015376Y029309D01*
X015376Y029122D01*
X015483Y029075D02*
X015670Y029075D01*
X015577Y029075D02*
X015577Y029355D01*
X015670Y029262D01*
X015778Y029309D02*
X015825Y029355D01*
X015918Y029355D01*
X015965Y029309D01*
X015965Y029122D01*
X015918Y029075D01*
X015825Y029075D01*
X015778Y029122D01*
X016094Y028467D02*
X016047Y028420D01*
X016047Y028327D01*
X016094Y028280D01*
X016047Y028173D02*
X016141Y028079D01*
X016141Y028126D02*
X016141Y027986D01*
X016047Y027986D02*
X016328Y027986D01*
X016328Y028126D01*
X016281Y028173D01*
X016187Y028173D01*
X016141Y028126D01*
X016281Y028280D02*
X016328Y028327D01*
X016328Y028420D01*
X016281Y028467D01*
X016234Y028467D01*
X016187Y028420D01*
X016141Y028467D01*
X016094Y028467D01*
X016187Y028420D02*
X016187Y028374D01*
X016872Y028613D02*
X016872Y028706D01*
X016919Y028753D01*
X016872Y028861D02*
X016872Y029048D01*
X016872Y028954D02*
X017153Y028954D01*
X017059Y028861D01*
X017106Y028753D02*
X017153Y028706D01*
X017153Y028613D01*
X017106Y028566D01*
X016919Y028566D01*
X016872Y028613D01*
X017847Y028623D02*
X017847Y028436D01*
X017847Y028529D02*
X018128Y028529D01*
X018034Y028436D01*
X018081Y028328D02*
X018128Y028281D01*
X018128Y028188D01*
X018081Y028141D01*
X017894Y028141D01*
X017847Y028188D01*
X017847Y028281D01*
X017894Y028328D01*
X017987Y028730D02*
X017987Y028917D01*
X017847Y028870D02*
X018128Y028870D01*
X017987Y028730D01*
X019064Y029122D02*
X019110Y029075D01*
X019204Y029075D01*
X019251Y029122D01*
X019358Y029075D02*
X019545Y029075D01*
X019452Y029075D02*
X019452Y029355D01*
X019545Y029262D01*
X019653Y029309D02*
X019700Y029355D01*
X019793Y029355D01*
X019840Y029309D01*
X019840Y029122D01*
X019793Y029075D01*
X019700Y029075D01*
X019653Y029122D01*
X019251Y029309D02*
X019204Y029355D01*
X019110Y029355D01*
X019064Y029309D01*
X019064Y029262D01*
X019110Y029215D01*
X019064Y029168D01*
X019064Y029122D01*
X019110Y029215D02*
X019157Y029215D01*
X019922Y028483D02*
X020203Y028483D01*
X020062Y028343D01*
X020062Y028530D01*
X020062Y028235D02*
X020016Y028188D01*
X020016Y028048D01*
X020016Y028142D02*
X019922Y028235D01*
X020062Y028235D02*
X020156Y028235D01*
X020203Y028188D01*
X020203Y028048D01*
X019922Y028048D01*
X020747Y028175D02*
X020747Y028269D01*
X020794Y028315D01*
X020747Y028423D02*
X020747Y028610D01*
X020747Y028517D02*
X021028Y028517D01*
X020934Y028423D01*
X020981Y028315D02*
X021028Y028269D01*
X021028Y028175D01*
X020981Y028129D01*
X020794Y028129D01*
X020747Y028175D01*
X020794Y028718D02*
X020747Y028765D01*
X020747Y028858D01*
X020794Y028905D01*
X020887Y028905D01*
X020934Y028858D01*
X020934Y028811D01*
X020887Y028718D01*
X021028Y028718D01*
X021028Y028905D01*
X021722Y028480D02*
X021769Y028480D01*
X021956Y028667D01*
X022003Y028667D01*
X022003Y028480D01*
X022003Y028279D02*
X021722Y028279D01*
X021722Y028186D02*
X021722Y028373D01*
X021909Y028186D02*
X022003Y028279D01*
X021956Y028078D02*
X022003Y028031D01*
X022003Y027938D01*
X021956Y027891D01*
X021769Y027891D01*
X021722Y027938D01*
X021722Y028031D01*
X021769Y028078D01*
X023830Y028075D02*
X024110Y028075D01*
X024110Y028215D01*
X024063Y028262D01*
X023970Y028262D01*
X023923Y028215D01*
X023923Y028075D01*
X023923Y028168D02*
X023830Y028262D01*
X023877Y028370D02*
X023830Y028416D01*
X023830Y028510D01*
X023877Y028556D01*
X023970Y028556D01*
X024017Y028510D01*
X024017Y028463D01*
X023970Y028370D01*
X024110Y028370D01*
X024110Y028556D01*
X024685Y028548D02*
X024685Y028361D01*
X024685Y028454D02*
X024965Y028454D01*
X024872Y028361D01*
X024918Y028253D02*
X024965Y028206D01*
X024965Y028113D01*
X024918Y028066D01*
X024732Y028066D01*
X024685Y028113D01*
X024685Y028206D01*
X024732Y028253D01*
X024732Y028655D02*
X024778Y028655D01*
X024825Y028702D01*
X024825Y028795D01*
X024778Y028842D01*
X024732Y028842D01*
X024685Y028795D01*
X024685Y028702D01*
X024732Y028655D01*
X024825Y028702D02*
X024872Y028655D01*
X024918Y028655D01*
X024965Y028702D01*
X024965Y028795D01*
X024918Y028842D01*
X024872Y028842D01*
X024825Y028795D01*
X025660Y028558D02*
X025660Y028465D01*
X025707Y028418D01*
X025893Y028605D01*
X025707Y028605D01*
X025660Y028558D01*
X025707Y028418D02*
X025893Y028418D01*
X025940Y028465D01*
X025940Y028558D01*
X025893Y028605D01*
X025893Y028310D02*
X025940Y028263D01*
X025940Y028170D01*
X025893Y028123D01*
X025893Y028015D02*
X025940Y027969D01*
X025940Y027875D01*
X025893Y027829D01*
X025707Y027829D01*
X025660Y027875D01*
X025660Y027969D01*
X025707Y028015D01*
X025660Y028123D02*
X025847Y028310D01*
X025893Y028310D01*
X025660Y028310D02*
X025660Y028123D01*
X026876Y029122D02*
X026876Y029309D01*
X026923Y029355D01*
X027016Y029355D01*
X027063Y029309D01*
X027063Y029262D01*
X027016Y029215D01*
X026876Y029215D01*
X026876Y029122D02*
X026923Y029075D01*
X027016Y029075D01*
X027063Y029122D01*
X027171Y029075D02*
X027358Y029075D01*
X027264Y029075D02*
X027264Y029355D01*
X027358Y029262D01*
X027466Y029309D02*
X027512Y029355D01*
X027606Y029355D01*
X027652Y029309D01*
X027652Y029122D01*
X027606Y029075D01*
X027512Y029075D01*
X027466Y029122D01*
X027782Y028467D02*
X027828Y028467D01*
X027875Y028420D01*
X027875Y028280D01*
X027782Y028280D01*
X027735Y028327D01*
X027735Y028420D01*
X027782Y028467D01*
X027968Y028374D02*
X027875Y028280D01*
X027875Y028173D02*
X027828Y028126D01*
X027828Y027986D01*
X027828Y028079D02*
X027735Y028173D01*
X027875Y028173D02*
X027968Y028173D01*
X028015Y028126D01*
X028015Y027986D01*
X027735Y027986D01*
X027968Y028374D02*
X028015Y028467D01*
X028622Y028548D02*
X028622Y028361D01*
X028809Y028548D01*
X028856Y028548D01*
X028903Y028501D01*
X028903Y028407D01*
X028856Y028361D01*
X028856Y028253D02*
X028903Y028206D01*
X028903Y028113D01*
X028856Y028066D01*
X028669Y028066D01*
X028622Y028113D01*
X028622Y028206D01*
X028669Y028253D01*
X028622Y028655D02*
X028622Y028842D01*
X028622Y028749D02*
X028903Y028749D01*
X028809Y028655D01*
X029660Y028495D02*
X029660Y028402D01*
X029707Y028355D01*
X029660Y028248D02*
X029660Y028061D01*
X029847Y028248D01*
X029893Y028248D01*
X029940Y028201D01*
X029940Y028107D01*
X029893Y028061D01*
X029893Y027953D02*
X029940Y027906D01*
X029940Y027813D01*
X029893Y027766D01*
X029707Y027766D01*
X029660Y027813D01*
X029660Y027906D01*
X029707Y027953D01*
X029893Y028355D02*
X029940Y028402D01*
X029940Y028495D01*
X029893Y028542D01*
X029847Y028542D01*
X029800Y028495D01*
X029753Y028542D01*
X029707Y028542D01*
X029660Y028495D01*
X029800Y028495D02*
X029800Y028449D01*
X030939Y029013D02*
X031126Y029013D01*
X030939Y029199D01*
X030939Y029246D01*
X030985Y029293D01*
X031079Y029293D01*
X031126Y029246D01*
X031233Y029246D02*
X031280Y029293D01*
X031373Y029293D01*
X031420Y029246D01*
X031528Y029246D02*
X031575Y029293D01*
X031668Y029293D01*
X031715Y029246D01*
X031715Y029059D01*
X031668Y029013D01*
X031575Y029013D01*
X031528Y029059D01*
X031420Y029013D02*
X031233Y029199D01*
X031233Y029246D01*
X031233Y029013D02*
X031420Y029013D01*
X031968Y028530D02*
X031782Y028343D01*
X031735Y028343D01*
X031735Y028235D02*
X031828Y028142D01*
X031828Y028188D02*
X031828Y028048D01*
X031735Y028048D02*
X032015Y028048D01*
X032015Y028188D01*
X031968Y028235D01*
X031875Y028235D01*
X031828Y028188D01*
X032015Y028343D02*
X032015Y028530D01*
X031968Y028530D01*
X032560Y028548D02*
X032560Y028361D01*
X032747Y028548D01*
X032793Y028548D01*
X032840Y028501D01*
X032840Y028407D01*
X032793Y028361D01*
X032793Y028253D02*
X032840Y028206D01*
X032840Y028113D01*
X032793Y028066D01*
X032607Y028066D01*
X032560Y028113D01*
X032560Y028206D01*
X032607Y028253D01*
X032607Y028655D02*
X032560Y028655D01*
X032607Y028655D02*
X032793Y028842D01*
X032840Y028842D01*
X032840Y028655D01*
X033535Y028495D02*
X033582Y028542D01*
X033628Y028542D01*
X033675Y028495D01*
X033675Y028355D01*
X033582Y028355D01*
X033535Y028402D01*
X033535Y028495D01*
X033675Y028355D02*
X033768Y028449D01*
X033815Y028542D01*
X033768Y028248D02*
X033815Y028201D01*
X033815Y028107D01*
X033768Y028061D01*
X033768Y027953D02*
X033815Y027906D01*
X033815Y027813D01*
X033768Y027766D01*
X033582Y027766D01*
X033535Y027813D01*
X033535Y027906D01*
X033582Y027953D01*
X033535Y028061D02*
X033722Y028248D01*
X033768Y028248D01*
X033535Y028248D02*
X033535Y028061D01*
X035610Y027986D02*
X035890Y027986D01*
X035890Y028126D01*
X035843Y028173D01*
X035750Y028173D01*
X035703Y028126D01*
X035703Y027986D01*
X035703Y028079D02*
X035610Y028173D01*
X035657Y028280D02*
X035703Y028280D01*
X035750Y028327D01*
X035750Y028420D01*
X035703Y028467D01*
X035657Y028467D01*
X035610Y028420D01*
X035610Y028327D01*
X035657Y028280D01*
X035750Y028327D02*
X035797Y028280D01*
X035843Y028280D01*
X035890Y028327D01*
X035890Y028420D01*
X035843Y028467D01*
X035797Y028467D01*
X035750Y028420D01*
X036435Y028361D02*
X036622Y028548D01*
X036668Y028548D01*
X036715Y028501D01*
X036715Y028407D01*
X036668Y028361D01*
X036668Y028253D02*
X036715Y028206D01*
X036715Y028113D01*
X036668Y028066D01*
X036482Y028066D01*
X036435Y028113D01*
X036435Y028206D01*
X036482Y028253D01*
X036435Y028361D02*
X036435Y028548D01*
X036575Y028655D02*
X036575Y028842D01*
X036715Y028795D02*
X036575Y028655D01*
X036435Y028795D02*
X036715Y028795D01*
X037472Y028495D02*
X037519Y028542D01*
X037706Y028542D01*
X037753Y028495D01*
X037753Y028402D01*
X037706Y028355D01*
X037659Y028355D01*
X037612Y028402D01*
X037612Y028542D01*
X037472Y028495D02*
X037472Y028402D01*
X037519Y028355D01*
X037472Y028248D02*
X037472Y028061D01*
X037659Y028248D01*
X037706Y028248D01*
X037753Y028201D01*
X037753Y028107D01*
X037706Y028061D01*
X037706Y027953D02*
X037753Y027906D01*
X037753Y027813D01*
X037706Y027766D01*
X037519Y027766D01*
X037472Y027813D01*
X037472Y027906D01*
X037519Y027953D01*
X038751Y029059D02*
X038798Y029013D01*
X038891Y029013D01*
X038938Y029059D01*
X038938Y029106D01*
X038891Y029153D01*
X038798Y029153D01*
X038751Y029106D01*
X038751Y029059D01*
X038798Y029153D02*
X038751Y029199D01*
X038751Y029246D01*
X038798Y029293D01*
X038891Y029293D01*
X038938Y029246D01*
X038938Y029199D01*
X038891Y029153D01*
X039046Y029199D02*
X039046Y029246D01*
X039093Y029293D01*
X039186Y029293D01*
X039233Y029246D01*
X039341Y029246D02*
X039387Y029293D01*
X039481Y029293D01*
X039527Y029246D01*
X039527Y029059D01*
X039481Y029013D01*
X039387Y029013D01*
X039341Y029059D01*
X039233Y029013D02*
X039046Y029199D01*
X039046Y029013D02*
X039233Y029013D01*
X039689Y028494D02*
X039876Y028494D01*
X039923Y028447D01*
X039923Y028354D01*
X039876Y028307D01*
X039829Y028307D01*
X039782Y028354D01*
X039782Y028494D01*
X039689Y028494D02*
X039642Y028447D01*
X039642Y028354D01*
X039689Y028307D01*
X039642Y028199D02*
X039736Y028106D01*
X039736Y028153D02*
X039736Y028013D01*
X039642Y028013D02*
X039923Y028013D01*
X039923Y028153D01*
X039876Y028199D01*
X039782Y028199D01*
X039736Y028153D01*
X040435Y028175D02*
X040435Y028269D01*
X040482Y028315D01*
X040482Y028423D02*
X040435Y028470D01*
X040435Y028563D01*
X040482Y028610D01*
X040528Y028610D01*
X040575Y028563D01*
X040575Y028517D01*
X040575Y028563D02*
X040622Y028610D01*
X040668Y028610D01*
X040715Y028563D01*
X040715Y028470D01*
X040668Y028423D01*
X040668Y028315D02*
X040715Y028269D01*
X040715Y028175D01*
X040668Y028129D01*
X040482Y028129D01*
X040435Y028175D01*
X041410Y028201D02*
X041410Y028107D01*
X041457Y028061D01*
X041457Y027953D02*
X041410Y027906D01*
X041410Y027813D01*
X041457Y027766D01*
X041643Y027766D01*
X041690Y027813D01*
X041690Y027906D01*
X041643Y027953D01*
X041643Y028061D02*
X041690Y028107D01*
X041690Y028201D01*
X041643Y028248D01*
X041597Y028248D01*
X041550Y028201D01*
X041503Y028248D01*
X041457Y028248D01*
X041410Y028201D01*
X041550Y028201D02*
X041550Y028154D01*
X041643Y028355D02*
X041690Y028402D01*
X041690Y028495D01*
X041643Y028542D01*
X041597Y028542D01*
X041410Y028355D01*
X041410Y028542D01*
X040715Y028765D02*
X040715Y028858D01*
X040668Y028905D01*
X040482Y028718D01*
X040435Y028765D01*
X040435Y028858D01*
X040482Y028905D01*
X040668Y028905D01*
X040715Y028765D02*
X040668Y028718D01*
X040482Y028718D01*
X042626Y029013D02*
X042813Y029013D01*
X042720Y029013D02*
X042720Y029293D01*
X042813Y029199D01*
X042921Y029199D02*
X042968Y029153D01*
X042921Y029106D01*
X042921Y029059D01*
X042968Y029013D01*
X043061Y029013D01*
X043108Y029059D01*
X043216Y029059D02*
X043262Y029013D01*
X043356Y029013D01*
X043402Y029059D01*
X043402Y029246D01*
X043356Y029293D01*
X043262Y029293D01*
X043216Y029246D01*
X043108Y029246D02*
X043061Y029293D01*
X042968Y029293D01*
X042921Y029246D01*
X042921Y029199D01*
X042968Y029153D02*
X043014Y029153D01*
X043547Y028733D02*
X043547Y028640D01*
X043594Y028593D01*
X043781Y028780D01*
X043594Y028780D01*
X043547Y028733D01*
X043594Y028593D02*
X043781Y028593D01*
X043828Y028640D01*
X043828Y028733D01*
X043781Y028780D01*
X043547Y028485D02*
X043547Y028298D01*
X043547Y028392D02*
X043828Y028392D01*
X043734Y028298D01*
X043687Y028190D02*
X043641Y028144D01*
X043641Y028004D01*
X043641Y028097D02*
X043547Y028190D01*
X043687Y028190D02*
X043781Y028190D01*
X043828Y028144D01*
X043828Y028004D01*
X043547Y028004D01*
X044372Y028175D02*
X044372Y028269D01*
X044419Y028315D01*
X044419Y028423D02*
X044372Y028470D01*
X044372Y028563D01*
X044419Y028610D01*
X044466Y028610D01*
X044512Y028563D01*
X044512Y028517D01*
X044512Y028563D02*
X044559Y028610D01*
X044606Y028610D01*
X044653Y028563D01*
X044653Y028470D01*
X044606Y028423D01*
X044606Y028315D02*
X044653Y028269D01*
X044653Y028175D01*
X044606Y028129D01*
X044419Y028129D01*
X044372Y028175D01*
X044419Y028718D02*
X044372Y028765D01*
X044372Y028858D01*
X044419Y028905D01*
X044466Y028905D01*
X044512Y028858D01*
X044512Y028811D01*
X044512Y028858D02*
X044559Y028905D01*
X044606Y028905D01*
X044653Y028858D01*
X044653Y028765D01*
X044606Y028718D01*
X045347Y028558D02*
X045347Y028465D01*
X045394Y028418D01*
X045487Y028418D02*
X045534Y028511D01*
X045534Y028558D01*
X045487Y028605D01*
X045394Y028605D01*
X045347Y028558D01*
X045487Y028418D02*
X045628Y028418D01*
X045628Y028605D01*
X045581Y028310D02*
X045534Y028310D01*
X045487Y028263D01*
X045441Y028310D01*
X045394Y028310D01*
X045347Y028263D01*
X045347Y028170D01*
X045394Y028123D01*
X045394Y028015D02*
X045347Y027969D01*
X045347Y027875D01*
X045394Y027829D01*
X045581Y027829D01*
X045628Y027875D01*
X045628Y027969D01*
X045581Y028015D01*
X045581Y028123D02*
X045628Y028170D01*
X045628Y028263D01*
X045581Y028310D01*
X045487Y028263D02*
X045487Y028217D01*
X046610Y029013D02*
X046610Y029293D01*
X046751Y029153D01*
X046564Y029153D01*
X046858Y029199D02*
X046905Y029153D01*
X046858Y029106D01*
X046858Y029059D01*
X046905Y029013D01*
X046998Y029013D01*
X047045Y029059D01*
X047153Y029059D02*
X047200Y029013D01*
X047293Y029013D01*
X047340Y029059D01*
X047340Y029246D01*
X047293Y029293D01*
X047200Y029293D01*
X047153Y029246D01*
X047045Y029246D02*
X046998Y029293D01*
X046905Y029293D01*
X046858Y029246D01*
X046858Y029199D01*
X046905Y029153D02*
X046952Y029153D01*
X047422Y028717D02*
X047422Y028530D01*
X047422Y028624D02*
X047703Y028624D01*
X047609Y028530D01*
X047422Y028423D02*
X047422Y028236D01*
X047422Y028329D02*
X047703Y028329D01*
X047609Y028236D01*
X047562Y028128D02*
X047516Y028081D01*
X047516Y027941D01*
X047516Y028034D02*
X047422Y028128D01*
X047562Y028128D02*
X047656Y028128D01*
X047703Y028081D01*
X047703Y027941D01*
X047422Y027941D01*
X048185Y028113D02*
X048185Y028206D01*
X048232Y028253D01*
X048232Y028361D02*
X048185Y028407D01*
X048185Y028501D01*
X048232Y028548D01*
X048278Y028548D01*
X048325Y028501D01*
X048325Y028454D01*
X048325Y028501D02*
X048372Y028548D01*
X048418Y028548D01*
X048465Y028501D01*
X048465Y028407D01*
X048418Y028361D01*
X048418Y028253D02*
X048465Y028206D01*
X048465Y028113D01*
X048418Y028066D01*
X048232Y028066D01*
X048185Y028113D01*
X048232Y028655D02*
X048185Y028702D01*
X048185Y028795D01*
X048232Y028842D01*
X048278Y028842D01*
X048325Y028795D01*
X048325Y028655D01*
X048232Y028655D01*
X048325Y028655D02*
X048418Y028749D01*
X048465Y028842D01*
X049285Y028495D02*
X049285Y028402D01*
X049332Y028355D01*
X049378Y028355D01*
X049425Y028402D01*
X049425Y028495D01*
X049378Y028542D01*
X049332Y028542D01*
X049285Y028495D01*
X049425Y028495D02*
X049472Y028542D01*
X049518Y028542D01*
X049565Y028495D01*
X049565Y028402D01*
X049518Y028355D01*
X049472Y028355D01*
X049425Y028402D01*
X049472Y028248D02*
X049425Y028201D01*
X049378Y028248D01*
X049332Y028248D01*
X049285Y028201D01*
X049285Y028107D01*
X049332Y028061D01*
X049332Y027953D02*
X049285Y027906D01*
X049285Y027813D01*
X049332Y027766D01*
X049518Y027766D01*
X049565Y027813D01*
X049565Y027906D01*
X049518Y027953D01*
X049518Y028061D02*
X049565Y028107D01*
X049565Y028201D01*
X049518Y028248D01*
X049472Y028248D01*
X049425Y028201D02*
X049425Y028154D01*
X050564Y029246D02*
X050751Y029059D01*
X050751Y029013D01*
X050858Y029059D02*
X050905Y029013D01*
X050998Y029013D01*
X051045Y029059D01*
X051153Y029059D02*
X051200Y029013D01*
X051293Y029013D01*
X051340Y029059D01*
X051340Y029246D01*
X051293Y029293D01*
X051200Y029293D01*
X051153Y029246D01*
X051045Y029246D02*
X050998Y029293D01*
X050905Y029293D01*
X050858Y029246D01*
X050858Y029199D01*
X050905Y029153D01*
X050858Y029106D01*
X050858Y029059D01*
X050905Y029153D02*
X050952Y029153D01*
X050751Y029293D02*
X050564Y029293D01*
X050564Y029246D01*
X051422Y028780D02*
X051422Y028593D01*
X051609Y028780D01*
X051656Y028780D01*
X051703Y028733D01*
X051703Y028640D01*
X051656Y028593D01*
X051703Y028392D02*
X051422Y028392D01*
X051422Y028485D02*
X051422Y028298D01*
X051422Y028190D02*
X051516Y028097D01*
X051516Y028144D02*
X051516Y028004D01*
X051422Y028004D02*
X051703Y028004D01*
X051703Y028144D01*
X051656Y028190D01*
X051562Y028190D01*
X051516Y028144D01*
X051609Y028298D02*
X051703Y028392D01*
X052192Y028416D02*
X052239Y028370D01*
X052192Y028416D02*
X052192Y028510D01*
X052239Y028556D01*
X052286Y028556D01*
X052332Y028510D01*
X052332Y028463D01*
X052332Y028510D02*
X052379Y028556D01*
X052426Y028556D01*
X052473Y028510D01*
X052473Y028416D01*
X052426Y028370D01*
X052426Y028262D02*
X052473Y028215D01*
X052473Y028122D01*
X052426Y028075D01*
X052239Y028075D01*
X052192Y028122D01*
X052192Y028215D01*
X052239Y028262D01*
X052239Y028664D02*
X052192Y028711D01*
X052192Y028804D01*
X052239Y028851D01*
X052426Y028851D01*
X052473Y028804D01*
X052473Y028711D01*
X052426Y028664D01*
X052379Y028664D01*
X052332Y028711D01*
X052332Y028851D01*
X056031Y025966D02*
X056078Y026013D01*
X056171Y026013D01*
X056218Y025966D01*
X056326Y025966D02*
X056373Y026013D01*
X056513Y026013D01*
X056513Y025733D01*
X056513Y025826D02*
X056373Y025826D01*
X056326Y025873D01*
X056326Y025966D01*
X056218Y025779D02*
X056171Y025733D01*
X056078Y025733D01*
X056031Y025779D01*
X056031Y025826D01*
X056078Y025873D01*
X056125Y025873D01*
X056078Y025873D02*
X056031Y025919D01*
X056031Y025966D01*
X056621Y026013D02*
X056714Y026013D01*
X056667Y026013D02*
X056667Y025779D01*
X056714Y025733D01*
X056761Y025733D01*
X056807Y025779D01*
X052298Y024372D02*
X052157Y024232D01*
X052157Y024419D01*
X052017Y024372D02*
X052298Y024372D01*
X052251Y024124D02*
X052298Y024078D01*
X052298Y023938D01*
X052017Y023938D01*
X052017Y024078D01*
X052064Y024124D01*
X052251Y024124D01*
X051360Y024078D02*
X051360Y023938D01*
X051080Y023938D01*
X051080Y024078D01*
X051127Y024124D01*
X051313Y024124D01*
X051360Y024078D01*
X051220Y024232D02*
X051220Y024372D01*
X051173Y024419D01*
X051127Y024419D01*
X051080Y024372D01*
X051080Y024279D01*
X051127Y024232D01*
X051220Y024232D01*
X051313Y024326D01*
X051360Y024419D01*
X048965Y023371D02*
X048965Y023184D01*
X048918Y023138D01*
X048825Y023138D01*
X048778Y023184D01*
X048670Y023278D02*
X048483Y023278D01*
X048376Y023184D02*
X048376Y023138D01*
X048376Y023184D02*
X048189Y023371D01*
X048189Y023418D01*
X048376Y023418D01*
X048530Y023418D02*
X048670Y023278D01*
X048778Y023371D02*
X048825Y023418D01*
X048918Y023418D01*
X048965Y023371D01*
X048530Y023418D02*
X048530Y023138D01*
X049960Y022251D02*
X049960Y022204D01*
X050007Y022158D01*
X049960Y022111D01*
X049960Y022064D01*
X050007Y022018D01*
X050100Y022018D01*
X050147Y022064D01*
X050054Y022158D02*
X050007Y022158D01*
X049960Y022251D02*
X050007Y022298D01*
X050100Y022298D01*
X050147Y022251D01*
X050255Y022158D02*
X050442Y022158D01*
X050302Y022298D01*
X050302Y022018D01*
X050549Y022064D02*
X050596Y022018D01*
X050690Y022018D01*
X050736Y022064D01*
X050736Y022251D01*
X050690Y022298D01*
X050596Y022298D01*
X050549Y022251D01*
X050491Y021694D02*
X050491Y021507D01*
X050678Y021694D01*
X050725Y021694D01*
X050771Y021647D01*
X050771Y021554D01*
X050725Y021507D01*
X050725Y021399D02*
X050771Y021353D01*
X050771Y021213D01*
X050491Y021213D01*
X050491Y021353D01*
X050538Y021399D01*
X050725Y021399D01*
X051276Y021107D02*
X050371Y020201D01*
X050371Y017878D01*
X051631Y017878D01*
X052339Y017878D02*
X053599Y017878D01*
X053599Y020201D01*
X052694Y021107D01*
X052339Y021107D01*
X051631Y021107D02*
X051276Y021107D01*
X053485Y021123D02*
X053485Y021263D01*
X053532Y021310D01*
X053718Y021310D01*
X053765Y021263D01*
X053765Y021123D01*
X053485Y021123D01*
X053532Y021418D02*
X053578Y021418D01*
X053625Y021465D01*
X053625Y021558D01*
X053578Y021605D01*
X053532Y021605D01*
X053485Y021558D01*
X053485Y021465D01*
X053532Y021418D01*
X053625Y021465D02*
X053672Y021418D01*
X053718Y021418D01*
X053765Y021465D01*
X053765Y021558D01*
X053718Y021605D01*
X053672Y021605D01*
X053625Y021558D01*
X054422Y021418D02*
X054469Y021418D01*
X054656Y021605D01*
X054703Y021605D01*
X054703Y021418D01*
X054656Y021310D02*
X054703Y021263D01*
X054703Y021123D01*
X054422Y021123D01*
X054422Y021263D01*
X054469Y021310D01*
X054656Y021310D01*
X055980Y020565D02*
X056167Y020565D01*
X056167Y020425D01*
X056074Y020472D01*
X056027Y020472D01*
X055980Y020425D01*
X055980Y020332D01*
X056027Y020285D01*
X056120Y020285D01*
X056167Y020332D01*
X056275Y020425D02*
X056322Y020378D01*
X056462Y020378D01*
X056462Y020285D02*
X056462Y020565D01*
X056322Y020565D01*
X056275Y020519D01*
X056275Y020425D01*
X056569Y020565D02*
X056663Y020565D01*
X056616Y020565D02*
X056616Y020332D01*
X056663Y020285D01*
X056710Y020285D01*
X056756Y020332D01*
X055849Y018410D02*
X055709Y018410D01*
X055662Y018364D01*
X055662Y018270D01*
X055709Y018223D01*
X055849Y018223D01*
X055849Y018130D02*
X055849Y018410D01*
X055755Y018223D02*
X055662Y018130D01*
X055554Y018177D02*
X055507Y018130D01*
X055414Y018130D01*
X055367Y018177D01*
X055367Y018223D01*
X055414Y018270D01*
X055461Y018270D01*
X055414Y018270D02*
X055367Y018317D01*
X055367Y018364D01*
X055414Y018410D01*
X055507Y018410D01*
X055554Y018364D01*
X055259Y018364D02*
X055213Y018410D01*
X055119Y018410D01*
X055073Y018364D01*
X055073Y018317D01*
X055259Y018130D01*
X055073Y018130D01*
X052339Y017977D02*
X052416Y017997D01*
X052491Y018020D01*
X052565Y018048D01*
X052637Y018079D01*
X052708Y018114D01*
X052777Y018152D01*
X052843Y018194D01*
X052908Y018239D01*
X052970Y018287D01*
X053030Y018339D01*
X053087Y018393D01*
X053141Y018450D01*
X053193Y018510D01*
X053241Y018572D01*
X053286Y018637D01*
X053327Y018704D01*
X053365Y018773D01*
X053400Y018844D01*
X053431Y018916D01*
X053459Y018990D01*
X053482Y019065D01*
X053502Y019141D01*
X053518Y019219D01*
X053530Y019297D01*
X053538Y019375D01*
X053542Y019454D01*
X053542Y019532D01*
X053538Y019611D01*
X053530Y019689D01*
X053518Y019767D01*
X053502Y019845D01*
X053482Y019921D01*
X053459Y019996D01*
X053431Y020070D01*
X053400Y020142D01*
X053365Y020213D01*
X053327Y020282D01*
X053286Y020349D01*
X053241Y020414D01*
X053193Y020476D01*
X053141Y020536D01*
X053087Y020593D01*
X053030Y020647D01*
X052970Y020699D01*
X052908Y020747D01*
X052843Y020792D01*
X052777Y020834D01*
X052708Y020872D01*
X052637Y020907D01*
X052565Y020938D01*
X052491Y020966D01*
X052416Y020989D01*
X052339Y021009D01*
X051631Y021009D02*
X051554Y020989D01*
X051479Y020966D01*
X051405Y020938D01*
X051333Y020907D01*
X051262Y020872D01*
X051193Y020834D01*
X051127Y020792D01*
X051062Y020747D01*
X051000Y020699D01*
X050940Y020647D01*
X050883Y020593D01*
X050829Y020536D01*
X050777Y020476D01*
X050729Y020414D01*
X050684Y020349D01*
X050643Y020282D01*
X050605Y020213D01*
X050570Y020142D01*
X050539Y020070D01*
X050511Y019996D01*
X050488Y019921D01*
X050468Y019845D01*
X050452Y019767D01*
X050440Y019689D01*
X050432Y019611D01*
X050428Y019532D01*
X050428Y019454D01*
X050432Y019375D01*
X050440Y019297D01*
X050452Y019219D01*
X050468Y019141D01*
X050488Y019065D01*
X050511Y018990D01*
X050539Y018916D01*
X050570Y018844D01*
X050605Y018773D01*
X050643Y018704D01*
X050684Y018637D01*
X050729Y018572D01*
X050777Y018510D01*
X050829Y018450D01*
X050883Y018393D01*
X050940Y018339D01*
X051000Y018287D01*
X051062Y018239D01*
X051127Y018194D01*
X051193Y018152D01*
X051262Y018114D01*
X051333Y018079D01*
X051405Y018048D01*
X051479Y018020D01*
X051554Y017997D01*
X051631Y017977D01*
X047849Y020177D02*
X047802Y020130D01*
X047709Y020130D01*
X047662Y020177D01*
X047554Y020270D02*
X047414Y020410D01*
X047414Y020130D01*
X047367Y020270D02*
X047554Y020270D01*
X047662Y020364D02*
X047709Y020410D01*
X047802Y020410D01*
X047849Y020364D01*
X047849Y020177D01*
X047942Y020325D02*
X048223Y020325D01*
X048223Y020465D01*
X048176Y020512D01*
X048082Y020512D01*
X048036Y020465D01*
X048036Y020325D01*
X048036Y020418D02*
X047942Y020512D01*
X047942Y020620D02*
X047942Y020806D01*
X047942Y020713D02*
X048223Y020713D01*
X048129Y020620D01*
X048082Y020914D02*
X048129Y021008D01*
X048129Y021054D01*
X048082Y021101D01*
X047989Y021101D01*
X047942Y021054D01*
X047942Y020961D01*
X047989Y020914D01*
X048082Y020914D02*
X048223Y020914D01*
X048223Y021101D01*
X047259Y020364D02*
X047259Y020317D01*
X047213Y020270D01*
X047119Y020270D01*
X047073Y020223D01*
X047073Y020177D01*
X047119Y020130D01*
X047213Y020130D01*
X047259Y020177D01*
X047259Y020223D01*
X047213Y020270D01*
X047119Y020270D02*
X047073Y020317D01*
X047073Y020364D01*
X047119Y020410D01*
X047213Y020410D01*
X047259Y020364D01*
X046724Y020693D02*
X046724Y020973D01*
X046584Y020973D01*
X046537Y020926D01*
X046537Y020833D01*
X046584Y020786D01*
X046724Y020786D01*
X046630Y020786D02*
X046537Y020693D01*
X046429Y020693D02*
X046242Y020693D01*
X046336Y020693D02*
X046336Y020973D01*
X046429Y020879D01*
X046134Y020833D02*
X045994Y020973D01*
X045994Y020693D01*
X045948Y020833D02*
X046134Y020833D01*
X045146Y021338D02*
X045146Y021478D01*
X045100Y021524D01*
X044913Y021524D01*
X044866Y021478D01*
X044866Y021338D01*
X045146Y021338D01*
X045053Y021632D02*
X045146Y021726D01*
X044866Y021726D01*
X044866Y021819D02*
X044866Y021632D01*
X044909Y022018D02*
X044862Y022064D01*
X044909Y022018D02*
X045002Y022018D01*
X045049Y022064D01*
X045049Y022251D01*
X045002Y022298D01*
X044909Y022298D01*
X044862Y022251D01*
X044754Y022158D02*
X044567Y022158D01*
X044459Y022251D02*
X044413Y022298D01*
X044319Y022298D01*
X044273Y022251D01*
X044273Y022204D01*
X044459Y022018D01*
X044273Y022018D01*
X044614Y022018D02*
X044614Y022298D01*
X044754Y022158D01*
X045747Y022254D02*
X046028Y022254D01*
X046028Y022394D01*
X045981Y022440D01*
X045887Y022440D01*
X045841Y022394D01*
X045841Y022254D01*
X045841Y022347D02*
X045747Y022440D01*
X045747Y022548D02*
X045747Y022735D01*
X045747Y022642D02*
X046028Y022642D01*
X045934Y022548D01*
X045981Y022843D02*
X046028Y022890D01*
X046028Y022983D01*
X045981Y023030D01*
X045934Y023030D01*
X045887Y022983D01*
X045841Y023030D01*
X045794Y023030D01*
X045747Y022983D01*
X045747Y022890D01*
X045794Y022843D01*
X045887Y022936D02*
X045887Y022983D01*
X046268Y022055D02*
X046361Y022055D01*
X046408Y022009D01*
X046516Y022055D02*
X046516Y021822D01*
X046562Y021775D01*
X046656Y021775D01*
X046702Y021822D01*
X046702Y022055D01*
X046408Y021775D02*
X046221Y021775D01*
X046408Y021775D02*
X046221Y021962D01*
X046221Y022009D01*
X046268Y022055D01*
X043277Y023184D02*
X043277Y023371D01*
X043231Y023418D01*
X043137Y023418D01*
X043091Y023371D01*
X042983Y023278D02*
X042843Y023418D01*
X042843Y023138D01*
X042796Y023278D02*
X042983Y023278D01*
X043091Y023184D02*
X043137Y023138D01*
X043231Y023138D01*
X043277Y023184D01*
X042688Y023184D02*
X042501Y023371D01*
X042501Y023184D01*
X042548Y023138D01*
X042641Y023138D01*
X042688Y023184D01*
X042688Y023371D01*
X042641Y023418D01*
X042548Y023418D01*
X042501Y023371D01*
X041665Y024213D02*
X041525Y024213D01*
X041478Y024259D01*
X041478Y024446D01*
X041525Y024493D01*
X041665Y024493D01*
X041665Y024213D01*
X041370Y024259D02*
X041323Y024213D01*
X041230Y024213D01*
X041183Y024259D01*
X041183Y024306D01*
X041230Y024353D01*
X041277Y024353D01*
X041230Y024353D02*
X041183Y024399D01*
X041183Y024446D01*
X041230Y024493D01*
X041323Y024493D01*
X041370Y024446D01*
X039410Y024101D02*
X039363Y024008D01*
X039270Y023914D01*
X039270Y024054D01*
X039223Y024101D01*
X039177Y024101D01*
X039130Y024054D01*
X039130Y023961D01*
X039177Y023914D01*
X039270Y023914D01*
X039130Y023806D02*
X039130Y023620D01*
X039130Y023713D02*
X039410Y023713D01*
X039317Y023620D01*
X039363Y023512D02*
X039270Y023512D01*
X039223Y023465D01*
X039223Y023325D01*
X039130Y023325D02*
X039410Y023325D01*
X039410Y023465D01*
X039363Y023512D01*
X039223Y023418D02*
X039130Y023512D01*
X040627Y022055D02*
X040627Y021775D01*
X040720Y021775D02*
X040533Y021775D01*
X040720Y021962D02*
X040627Y022055D01*
X040828Y022055D02*
X040828Y021822D01*
X040875Y021775D01*
X040968Y021775D01*
X041015Y021822D01*
X041015Y022055D01*
X040959Y020973D02*
X040912Y020926D01*
X040912Y020833D01*
X040959Y020786D01*
X041099Y020786D01*
X041099Y020693D02*
X041099Y020973D01*
X040959Y020973D01*
X040804Y020879D02*
X040711Y020973D01*
X040711Y020693D01*
X040804Y020693D02*
X040617Y020693D01*
X040509Y020693D02*
X040509Y020739D01*
X040323Y020926D01*
X040323Y020973D01*
X040509Y020973D01*
X040912Y020693D02*
X041005Y020786D01*
X041416Y020348D02*
X041416Y020068D01*
X041509Y020068D02*
X041323Y020068D01*
X041509Y020254D02*
X041416Y020348D01*
X041617Y020208D02*
X041804Y020208D01*
X041664Y020348D01*
X041664Y020068D01*
X041912Y020114D02*
X041959Y020068D01*
X042052Y020068D01*
X042099Y020114D01*
X042099Y020301D01*
X042052Y020348D01*
X041959Y020348D01*
X041912Y020301D01*
X042317Y020325D02*
X042598Y020325D01*
X042598Y020465D01*
X042551Y020512D01*
X042457Y020512D01*
X042411Y020465D01*
X042411Y020325D01*
X042411Y020418D02*
X042317Y020512D01*
X042317Y020620D02*
X042317Y020806D01*
X042317Y020713D02*
X042598Y020713D01*
X042504Y020620D01*
X042504Y020914D02*
X042551Y020914D01*
X042598Y020961D01*
X042598Y021054D01*
X042551Y021101D01*
X042504Y021101D01*
X042457Y021054D01*
X042457Y020961D01*
X042504Y020914D01*
X042457Y020961D02*
X042411Y020914D01*
X042364Y020914D01*
X042317Y020961D01*
X042317Y021054D01*
X042364Y021101D01*
X042411Y021101D01*
X042457Y021054D01*
X046871Y024259D02*
X046918Y024213D01*
X047011Y024213D01*
X047058Y024259D01*
X047058Y024353D02*
X046964Y024399D01*
X046918Y024399D01*
X046871Y024353D01*
X046871Y024259D01*
X047058Y024353D02*
X047058Y024493D01*
X046871Y024493D01*
X047166Y024446D02*
X047212Y024493D01*
X047352Y024493D01*
X047352Y024213D01*
X047212Y024213D01*
X047166Y024259D01*
X047166Y024446D01*
X035590Y029059D02*
X035543Y029013D01*
X035450Y029013D01*
X035403Y029059D01*
X035295Y029013D02*
X035108Y029199D01*
X035108Y029246D01*
X035155Y029293D01*
X035248Y029293D01*
X035295Y029246D01*
X035403Y029246D02*
X035450Y029293D01*
X035543Y029293D01*
X035590Y029246D01*
X035590Y029059D01*
X035295Y029013D02*
X035108Y029013D01*
X035001Y029059D02*
X034954Y029013D01*
X034860Y029013D01*
X034814Y029059D01*
X034814Y029153D01*
X034860Y029199D01*
X034907Y029199D01*
X035001Y029153D01*
X035001Y029293D01*
X034814Y029293D01*
X023777Y029246D02*
X023777Y029059D01*
X023731Y029013D01*
X023637Y029013D01*
X023591Y029059D01*
X023483Y029013D02*
X023296Y029013D01*
X023389Y029013D02*
X023389Y029293D01*
X023483Y029199D01*
X023591Y029246D02*
X023637Y029293D01*
X023731Y029293D01*
X023777Y029246D01*
X023188Y029153D02*
X023048Y029153D01*
X023001Y029106D01*
X023001Y029059D01*
X023048Y029013D01*
X023141Y029013D01*
X023188Y029059D01*
X023188Y029153D01*
X023095Y029246D01*
X023001Y029293D01*
X017153Y029295D02*
X017153Y029202D01*
X017106Y029155D01*
X017153Y029295D02*
X017106Y029342D01*
X017059Y029342D01*
X016872Y029155D01*
X016872Y029342D01*
X012205Y024785D02*
X012112Y024785D01*
X012159Y024785D02*
X012159Y024505D01*
X012205Y024505D02*
X012112Y024505D01*
X012009Y024552D02*
X011962Y024505D01*
X011869Y024505D01*
X011822Y024552D01*
X011714Y024505D02*
X011527Y024505D01*
X011621Y024505D02*
X011621Y024785D01*
X011714Y024692D01*
X011822Y024739D02*
X011869Y024785D01*
X011962Y024785D01*
X012009Y024739D01*
X012009Y024552D01*
X011419Y024552D02*
X011373Y024505D01*
X011279Y024505D01*
X011233Y024552D01*
X011233Y024598D01*
X011279Y024645D01*
X011419Y024645D01*
X011419Y024552D01*
X011419Y024645D02*
X011326Y024739D01*
X011233Y024785D01*
X010429Y024051D02*
X010429Y023864D01*
X010382Y023818D01*
X010289Y023818D01*
X010242Y023864D01*
X010134Y023864D02*
X010134Y023818D01*
X010134Y023864D02*
X009948Y024051D01*
X009948Y024098D01*
X010134Y024098D01*
X010242Y024051D02*
X010289Y024098D01*
X010382Y024098D01*
X010429Y024051D01*
X010382Y022660D02*
X010429Y022614D01*
X010429Y022427D01*
X010382Y022380D01*
X010289Y022380D01*
X010242Y022427D01*
X010134Y022427D02*
X010088Y022380D01*
X009994Y022380D01*
X009948Y022427D01*
X009948Y022520D01*
X009994Y022567D01*
X010041Y022567D01*
X010134Y022520D01*
X010134Y022660D01*
X009948Y022660D01*
X010242Y022614D02*
X010289Y022660D01*
X010382Y022660D01*
X016255Y023872D02*
X016255Y023965D01*
X016302Y024012D01*
X016302Y024120D02*
X016255Y024166D01*
X016255Y024260D01*
X016302Y024306D01*
X016348Y024306D01*
X016395Y024260D01*
X016395Y024120D01*
X016302Y024120D01*
X016395Y024120D02*
X016488Y024213D01*
X016535Y024306D01*
X016488Y024012D02*
X016535Y023965D01*
X016535Y023872D01*
X016488Y023825D01*
X016302Y023825D01*
X016255Y023872D01*
X024755Y021565D02*
X024755Y021379D01*
X024942Y021565D01*
X024988Y021565D01*
X025035Y021519D01*
X025035Y021425D01*
X024988Y021379D01*
X024988Y021271D02*
X025035Y021224D01*
X025035Y021131D01*
X024988Y021084D01*
X024802Y021084D01*
X024755Y021131D01*
X024755Y021224D01*
X024802Y021271D01*
X024755Y020981D02*
X024755Y020888D01*
X024755Y020934D02*
X025035Y020934D01*
X025035Y020888D02*
X025035Y020981D01*
X018152Y019355D02*
X018059Y019355D01*
X018106Y019355D02*
X018106Y019075D01*
X018152Y019075D02*
X018059Y019075D01*
X017956Y019122D02*
X017909Y019075D01*
X017816Y019075D01*
X017769Y019122D01*
X017661Y019075D02*
X017474Y019075D01*
X017568Y019075D02*
X017568Y019355D01*
X017661Y019262D01*
X017769Y019309D02*
X017816Y019355D01*
X017909Y019355D01*
X017956Y019309D01*
X017956Y019122D01*
X016465Y018605D02*
X016465Y018325D01*
X016465Y018418D02*
X016325Y018418D01*
X016278Y018465D01*
X016278Y018559D01*
X016325Y018605D01*
X016465Y018605D01*
X016371Y018418D02*
X016278Y018325D01*
X016170Y018372D02*
X016123Y018325D01*
X016030Y018325D01*
X015983Y018372D01*
X015983Y018418D01*
X016030Y018465D01*
X016077Y018465D01*
X016030Y018465D02*
X015983Y018512D01*
X015983Y018559D01*
X016030Y018605D01*
X016123Y018605D01*
X016170Y018559D01*
X015876Y018559D02*
X015876Y018372D01*
X015689Y018559D01*
X015689Y018372D01*
X015735Y018325D01*
X015829Y018325D01*
X015876Y018372D01*
X015876Y018559D02*
X015829Y018605D01*
X015735Y018605D01*
X015689Y018559D01*
X034780Y007121D02*
X034780Y006934D01*
X034780Y007027D02*
X035060Y007027D01*
X034967Y006934D01*
X035060Y006826D02*
X034780Y006826D01*
X035060Y006639D01*
X034780Y006639D01*
X034827Y006531D02*
X035013Y006531D01*
X035060Y006485D01*
X035060Y006391D01*
X035013Y006345D01*
X034827Y006345D01*
X034780Y006391D01*
X034780Y006485D01*
X034827Y006531D01*
X034827Y006237D02*
X034780Y006190D01*
X034780Y006097D01*
X034827Y006050D01*
X035013Y006050D01*
X035060Y006097D01*
X035060Y006190D01*
X035013Y006237D01*
X052121Y001762D02*
X052215Y001855D01*
X052313Y001902D02*
X052313Y001715D01*
X052313Y001622D02*
X052313Y001575D01*
X052215Y001575D02*
X052121Y001668D01*
X052121Y001762D01*
X052421Y001762D02*
X052561Y001762D01*
X052608Y001715D01*
X052608Y001622D01*
X052561Y001575D01*
X052421Y001575D01*
X052421Y001855D01*
X052715Y001715D02*
X052715Y001668D01*
X052902Y001668D01*
X052902Y001622D02*
X052902Y001715D01*
X052856Y001762D01*
X052762Y001762D01*
X052715Y001715D01*
X052762Y001575D02*
X052856Y001575D01*
X052902Y001622D01*
X053005Y001575D02*
X053052Y001622D01*
X053052Y001809D01*
X053099Y001762D02*
X053005Y001762D01*
X053207Y001715D02*
X053207Y001575D01*
X053347Y001575D01*
X053393Y001622D01*
X053347Y001668D01*
X053207Y001668D01*
X053207Y001715D02*
X053253Y001762D01*
X053347Y001762D01*
X053543Y001855D02*
X053543Y001575D01*
X053590Y001575D02*
X053496Y001575D01*
X053698Y001622D02*
X053698Y001715D01*
X053744Y001762D01*
X053838Y001762D01*
X053884Y001715D01*
X053884Y001622D01*
X053838Y001575D01*
X053744Y001575D01*
X053698Y001622D01*
X053590Y001855D02*
X053543Y001855D01*
X053992Y001762D02*
X054132Y001762D01*
X054179Y001715D01*
X054132Y001668D01*
X054039Y001668D01*
X053992Y001622D01*
X054039Y001575D01*
X054179Y001575D01*
X054282Y001575D02*
X054376Y001575D01*
X054329Y001575D02*
X054329Y001762D01*
X054376Y001762D01*
X054329Y001855D02*
X054329Y001902D01*
X054773Y001762D02*
X054867Y001762D01*
X054820Y001809D02*
X054820Y001622D01*
X054773Y001575D01*
X054974Y001622D02*
X054974Y001715D01*
X055021Y001762D01*
X055115Y001762D01*
X055161Y001715D01*
X055161Y001622D01*
X055115Y001575D01*
X055021Y001575D01*
X054974Y001622D01*
X055269Y001575D02*
X055269Y001715D01*
X055316Y001762D01*
X055456Y001762D01*
X055456Y001575D01*
X055559Y001575D02*
X055652Y001668D01*
X055652Y001762D01*
X055559Y001855D01*
X055559Y002263D02*
X055559Y002543D01*
X055652Y002543D02*
X055466Y002543D01*
X055358Y002543D02*
X055171Y002263D01*
X055358Y002263D02*
X055171Y002543D01*
X055108Y003200D02*
X055108Y003480D01*
X055001Y003434D02*
X055001Y003247D01*
X054954Y003200D01*
X054860Y003200D01*
X054814Y003247D01*
X054814Y003434D01*
X054860Y003480D01*
X054954Y003480D01*
X055001Y003434D01*
X055202Y003293D02*
X055108Y003200D01*
X055202Y003293D02*
X055295Y003200D01*
X055295Y003480D01*
X055403Y003434D02*
X055403Y003340D01*
X055450Y003293D01*
X055590Y003293D01*
X055590Y003200D02*
X055590Y003480D01*
X055450Y003480D01*
X055403Y003434D01*
X056035Y001174D02*
X056035Y001081D01*
X056082Y001034D01*
X056190Y000988D02*
X056190Y000894D01*
X056237Y000848D01*
X056330Y000848D01*
X056377Y000894D01*
X056377Y000988D02*
X056283Y001034D01*
X056237Y001034D01*
X056190Y000988D01*
X056190Y001128D02*
X056377Y001128D01*
X056377Y000988D01*
X056485Y000988D02*
X056531Y000941D01*
X056671Y000941D01*
X056671Y000848D02*
X056671Y001128D01*
X056531Y001128D01*
X056485Y001081D01*
X056485Y000988D01*
X056779Y001128D02*
X056873Y001128D01*
X056826Y001128D02*
X056826Y000894D01*
X056873Y000848D01*
X056919Y000848D01*
X056966Y000894D01*
X052777Y012263D02*
X052777Y012449D01*
X052684Y012543D01*
X052591Y012449D01*
X052591Y012263D01*
X052483Y012309D02*
X052436Y012263D01*
X052343Y012263D01*
X052296Y012309D01*
X052483Y012309D02*
X052483Y012496D01*
X052436Y012543D01*
X052343Y012543D01*
X052296Y012496D01*
X052591Y012403D02*
X052777Y012403D01*
X052777Y013263D02*
X052777Y013449D01*
X052684Y013543D01*
X052591Y013449D01*
X052591Y013263D01*
X052483Y013309D02*
X052483Y013496D01*
X052436Y013543D01*
X052343Y013543D01*
X052296Y013496D01*
X052296Y013309D02*
X052343Y013263D01*
X052436Y013263D01*
X052483Y013309D01*
X052591Y013403D02*
X052777Y013403D01*
X055752Y014841D02*
X055798Y014794D01*
X055752Y014841D02*
X055752Y014934D01*
X055906Y014841D02*
X055906Y014794D01*
X055953Y014748D01*
X055906Y014701D01*
X055906Y014654D01*
X055953Y014608D01*
X056046Y014608D01*
X056093Y014654D01*
X056000Y014748D02*
X055953Y014748D01*
X055906Y014841D02*
X055953Y014888D01*
X056046Y014888D01*
X056093Y014841D01*
X056201Y014841D02*
X056201Y014748D01*
X056248Y014701D01*
X056388Y014701D01*
X056388Y014608D02*
X056388Y014888D01*
X056248Y014888D01*
X056201Y014841D01*
X056496Y014888D02*
X056589Y014888D01*
X056542Y014888D02*
X056542Y014654D01*
X056589Y014608D01*
X056636Y014608D01*
X056682Y014654D01*
D12*
X048790Y004486D02*
X048790Y003625D01*
X048790Y004055D02*
X048216Y004055D01*
X047869Y003912D02*
X047439Y003912D01*
X047295Y004055D01*
X047295Y004342D01*
X047439Y004486D01*
X047869Y004486D01*
X047869Y003625D01*
X048216Y003625D02*
X048216Y004486D01*
X046948Y004342D02*
X046805Y004486D01*
X046518Y004486D01*
X046374Y004342D01*
X046374Y004199D01*
X046518Y004055D01*
X046374Y003912D01*
X046374Y003768D01*
X046518Y003625D01*
X046805Y003625D01*
X046948Y003768D01*
X046661Y004055D02*
X046518Y004055D01*
X046027Y004055D02*
X045454Y004055D01*
X045107Y004055D02*
X044820Y004199D01*
X044676Y004199D01*
X044533Y004055D01*
X044533Y003768D01*
X044676Y003625D01*
X044963Y003625D01*
X045107Y003768D01*
X045107Y004055D02*
X045107Y004486D01*
X044533Y004486D01*
X044186Y004486D02*
X043612Y004486D01*
X043612Y004342D01*
X044186Y003768D01*
X044186Y003625D01*
X044993Y003048D02*
X045567Y002188D01*
X044993Y002188D02*
X045567Y003048D01*
X044646Y002761D02*
X044646Y002331D01*
X044503Y002188D01*
X044072Y002188D01*
X044072Y002044D02*
X044216Y001901D01*
X044359Y001901D01*
X044072Y002044D02*
X044072Y002761D01*
X043726Y002761D02*
X043295Y002761D01*
X043152Y002618D01*
X043152Y002331D01*
X043295Y002188D01*
X043726Y002188D01*
X043726Y001901D02*
X043726Y002761D01*
X042805Y002618D02*
X042661Y002761D01*
X042374Y002761D01*
X042231Y002618D01*
X042231Y002188D01*
X041884Y002188D02*
X041884Y002761D01*
X041884Y002474D02*
X041597Y002761D01*
X041454Y002761D01*
X041117Y002618D02*
X041117Y002331D01*
X040973Y002188D01*
X040686Y002188D01*
X040543Y002331D01*
X040543Y002618D01*
X040686Y002761D01*
X040973Y002761D01*
X041117Y002618D01*
X042805Y003048D02*
X042805Y002188D01*
X042201Y003625D02*
X041914Y003625D01*
X041771Y003768D01*
X041771Y004342D01*
X041914Y004486D01*
X042201Y004486D01*
X042344Y004342D01*
X042344Y003768D01*
X042201Y003625D01*
X041424Y003625D02*
X040850Y003625D01*
X040503Y003625D02*
X039929Y003625D01*
X039582Y003625D02*
X039152Y003625D01*
X039008Y003768D01*
X039008Y004342D01*
X039152Y004486D01*
X039582Y004486D01*
X039582Y003625D01*
X040216Y004055D02*
X040503Y004055D01*
X040503Y003625D02*
X040503Y004486D01*
X039929Y004486D01*
X041424Y004486D02*
X041424Y003625D01*
X045597Y003625D02*
X045597Y004486D01*
X046027Y004055D01*
X047122Y003048D02*
X047122Y002188D01*
X047409Y002188D02*
X046835Y002188D01*
X047409Y002761D02*
X047122Y003048D01*
X047756Y002905D02*
X047899Y003048D01*
X048186Y003048D01*
X048329Y002905D01*
X048646Y002905D02*
X048790Y002761D01*
X048646Y002905D02*
X048646Y003192D01*
X047756Y002905D02*
X047756Y002761D01*
X048329Y002188D01*
X047756Y002188D01*
D13*
X055860Y002118D02*
X056110Y001868D01*
X056610Y001868D01*
X056860Y002118D01*
X056860Y002618D01*
X056610Y002868D01*
X056860Y003118D01*
X056860Y003618D01*
X056610Y003868D01*
X056860Y004118D01*
X056860Y004618D01*
X056610Y004868D01*
X056110Y004868D01*
X055860Y004618D01*
X055860Y004118D01*
X056110Y003868D01*
X055860Y003618D01*
X055860Y003118D01*
X056110Y002868D01*
X055860Y002618D01*
X055860Y002118D01*
X056110Y002868D02*
X056610Y002868D01*
X056610Y003868D02*
X056110Y003868D01*
X056110Y010868D02*
X055860Y011118D01*
X055860Y011618D01*
X056110Y011868D01*
X055860Y012118D01*
X055860Y012618D01*
X056110Y012868D01*
X055860Y013118D01*
X055860Y013618D01*
X056110Y013868D01*
X056610Y013868D01*
X056860Y013618D01*
X056860Y013118D01*
X056610Y012868D01*
X056110Y012868D01*
X056610Y012868D02*
X056860Y012618D01*
X056860Y012118D01*
X056610Y011868D01*
X056110Y011868D01*
X056610Y011868D02*
X056860Y011618D01*
X056860Y011118D01*
X056610Y010868D01*
X056110Y010868D01*
X056172Y017180D02*
X056672Y017180D01*
X056922Y017430D01*
X056922Y017930D01*
X056672Y018180D01*
X056922Y018430D01*
X056922Y018930D01*
X056672Y019180D01*
X056922Y019430D01*
X056922Y019930D01*
X056672Y020180D01*
X056172Y020180D01*
X055922Y019930D01*
X055922Y019430D01*
X056172Y019180D01*
X055922Y018930D01*
X055922Y018430D01*
X056172Y018180D01*
X055922Y017930D01*
X055922Y017430D01*
X056172Y017180D01*
X056172Y018180D02*
X056672Y018180D01*
X056672Y019180D02*
X056172Y019180D01*
X056172Y026180D02*
X055922Y026430D01*
X055922Y026930D01*
X056172Y027180D01*
X055922Y027430D01*
X055922Y027930D01*
X056172Y028180D01*
X055922Y028430D01*
X055922Y028930D01*
X056172Y029180D01*
X056672Y029180D01*
X056922Y028930D01*
X056922Y028430D01*
X056672Y028180D01*
X056172Y028180D01*
X056672Y028180D02*
X056922Y027930D01*
X056922Y027430D01*
X056672Y027180D01*
X056172Y027180D01*
X056672Y027180D02*
X056922Y026930D01*
X056922Y026430D01*
X056672Y026180D01*
X056172Y026180D01*
X031172Y022805D02*
X031172Y022305D01*
X030922Y022055D01*
X030422Y022055D01*
X030172Y022305D01*
X030172Y022805D01*
X030422Y023055D01*
X030922Y023055D01*
X031172Y022805D01*
X014927Y021613D02*
X012307Y021613D01*
X012167Y021752D01*
X012167Y024372D01*
X014927Y024372D01*
X014927Y021613D01*
X012326Y021913D02*
X012328Y021936D01*
X012334Y021959D01*
X012343Y021980D01*
X012356Y022000D01*
X012372Y022017D01*
X012390Y022031D01*
X012410Y022042D01*
X012432Y022050D01*
X012455Y022054D01*
X012479Y022054D01*
X012502Y022050D01*
X012524Y022042D01*
X012544Y022031D01*
X012562Y022017D01*
X012578Y022000D01*
X012591Y021980D01*
X012600Y021959D01*
X012606Y021936D01*
X012608Y021913D01*
X012606Y021890D01*
X012600Y021867D01*
X012591Y021846D01*
X012578Y021826D01*
X012562Y021809D01*
X012544Y021795D01*
X012524Y021784D01*
X012502Y021776D01*
X012479Y021772D01*
X012455Y021772D01*
X012432Y021776D01*
X012410Y021784D01*
X012390Y021795D01*
X012372Y021809D01*
X012356Y021826D01*
X012343Y021846D01*
X012334Y021867D01*
X012328Y021890D01*
X012326Y021913D01*
X006735Y021805D02*
X006735Y022305D01*
X006485Y022555D01*
X004985Y022555D01*
X004735Y022305D01*
X004735Y021805D01*
X004985Y021555D01*
X006485Y021555D01*
X006735Y021805D01*
X006485Y022555D02*
X006735Y022805D01*
X006735Y023305D01*
X006485Y023555D01*
X004985Y023555D01*
X004735Y023305D01*
X004735Y022805D01*
X004985Y022555D01*
X004985Y023555D02*
X004735Y023805D01*
X004735Y024305D01*
X004985Y024555D01*
X006485Y024555D01*
X006735Y024305D01*
X006735Y023805D01*
X006485Y023555D01*
X005485Y026180D02*
X005735Y026430D01*
X005735Y026930D01*
X005485Y027180D01*
X005735Y027430D01*
X005735Y027930D01*
X005485Y028180D01*
X005735Y028430D01*
X005735Y028930D01*
X005485Y029180D01*
X004985Y029180D01*
X004735Y028930D01*
X004735Y028430D01*
X004985Y028180D01*
X004735Y027930D01*
X004735Y027430D01*
X004985Y027180D01*
X004735Y026930D01*
X004735Y026430D01*
X004985Y026180D01*
X005485Y026180D01*
X005485Y027180D02*
X004985Y027180D01*
X004985Y028180D02*
X005485Y028180D01*
X005485Y020180D02*
X005735Y019930D01*
X005735Y019430D01*
X005485Y019180D01*
X005735Y018930D01*
X005735Y018430D01*
X005485Y018180D01*
X005735Y017930D01*
X005735Y017430D01*
X005485Y017180D01*
X004985Y017180D01*
X004735Y017430D01*
X004735Y017930D01*
X004985Y018180D01*
X005485Y018180D01*
X004985Y018180D02*
X004735Y018430D01*
X004735Y018930D01*
X004985Y019180D01*
X005485Y019180D01*
X004985Y019180D02*
X004735Y019430D01*
X004735Y019930D01*
X004985Y020180D01*
X005485Y020180D01*
X005422Y013868D02*
X004922Y013868D01*
X004672Y013618D01*
X004672Y013118D01*
X004922Y012868D01*
X004672Y012618D01*
X004672Y012118D01*
X004922Y011868D01*
X004672Y011618D01*
X004672Y011118D01*
X004922Y010868D01*
X005422Y010868D01*
X005672Y011118D01*
X005672Y011618D01*
X005422Y011868D01*
X005672Y012118D01*
X005672Y012618D01*
X005422Y012868D01*
X005672Y013118D01*
X005672Y013618D01*
X005422Y013868D01*
X005422Y012868D02*
X004922Y012868D01*
X004922Y011868D02*
X005422Y011868D01*
X005422Y004868D02*
X004922Y004868D01*
X004672Y004618D01*
X004672Y004118D01*
X004922Y003868D01*
X004672Y003618D01*
X004672Y003118D01*
X004922Y002868D01*
X004672Y002618D01*
X004672Y002118D01*
X004922Y001868D01*
X005422Y001868D01*
X005672Y002118D01*
X005672Y002618D01*
X005422Y002868D01*
X005672Y003118D01*
X005672Y003618D01*
X005422Y003868D01*
X005672Y004118D01*
X005672Y004618D01*
X005422Y004868D01*
X005422Y003868D02*
X004922Y003868D01*
X004922Y002868D02*
X005422Y002868D01*
X026610Y006030D02*
X026610Y008330D01*
X034610Y008330D01*
X034610Y007580D01*
X034571Y007578D01*
X034532Y007572D01*
X034494Y007563D01*
X034457Y007550D01*
X034421Y007533D01*
X034388Y007513D01*
X034356Y007489D01*
X034327Y007463D01*
X034301Y007434D01*
X034277Y007402D01*
X034257Y007369D01*
X034240Y007333D01*
X034227Y007296D01*
X034218Y007258D01*
X034212Y007219D01*
X034210Y007180D01*
X034212Y007141D01*
X034218Y007102D01*
X034227Y007064D01*
X034240Y007027D01*
X034257Y006991D01*
X034277Y006958D01*
X034301Y006926D01*
X034327Y006897D01*
X034356Y006871D01*
X034388Y006847D01*
X034421Y006827D01*
X034457Y006810D01*
X034494Y006797D01*
X034532Y006788D01*
X034571Y006782D01*
X034610Y006780D01*
X034610Y006030D01*
X026610Y006030D01*
D14*
X027417Y027963D02*
X027677Y027963D01*
X027677Y028523D01*
X027417Y028523D01*
X027417Y027963D01*
X023740Y027963D02*
X023740Y028523D01*
X023480Y028523D01*
X023480Y027963D01*
X023740Y027963D01*
X019802Y027963D02*
X019802Y028523D01*
X019542Y028523D01*
X019542Y027963D01*
X019802Y027963D01*
X015927Y027963D02*
X015927Y028523D01*
X015667Y028523D01*
X015667Y027963D01*
X015927Y027963D01*
X011927Y027963D02*
X011927Y028523D01*
X011667Y028523D01*
X011667Y027963D01*
X011927Y027963D01*
X007990Y027963D02*
X007990Y028523D01*
X007730Y028523D01*
X007730Y027963D01*
X007990Y027963D01*
X031417Y027963D02*
X031677Y027963D01*
X031677Y028523D01*
X031417Y028523D01*
X031417Y027963D01*
X035292Y027963D02*
X035552Y027963D01*
X035552Y028523D01*
X035292Y028523D01*
X035292Y027963D01*
X039230Y027963D02*
X039490Y027963D01*
X039490Y028523D01*
X039230Y028523D01*
X039230Y027963D01*
X043167Y027963D02*
X043427Y027963D01*
X043427Y028523D01*
X043167Y028523D01*
X043167Y027963D01*
X047042Y027963D02*
X047302Y027963D01*
X047302Y028523D01*
X047042Y028523D01*
X047042Y027963D01*
X051042Y027963D02*
X051302Y027963D01*
X051302Y028523D01*
X051042Y028523D01*
X051042Y027963D01*
D15*
X049333Y021831D02*
X048920Y021555D01*
X049333Y021260D01*
X049333Y021831D01*
X043708Y021831D02*
X043708Y021260D01*
X043295Y021555D01*
X043708Y021831D01*
D16*
X043275Y021555D03*
X048900Y021555D03*
D17*
X052512Y019721D02*
X052882Y019721D01*
X052697Y019535D01*
X052697Y019782D01*
X052697Y019414D02*
X052697Y019167D01*
X052882Y019352D01*
X052512Y019352D01*
X052573Y019046D02*
X052512Y018984D01*
X052512Y018861D01*
X052573Y018799D01*
X052820Y018799D01*
X052882Y018861D01*
X052882Y018984D01*
X052820Y019046D01*
X019415Y018353D02*
X019415Y018159D01*
X019270Y018159D01*
X019318Y018256D01*
X019318Y018304D01*
X019270Y018353D01*
X019173Y018353D01*
X019125Y018304D01*
X019125Y018208D01*
X019173Y018159D01*
X019270Y018058D02*
X019270Y017865D01*
X019415Y018010D01*
X019125Y018010D01*
X019173Y017763D02*
X019125Y017715D01*
X019125Y017618D01*
X019173Y017570D01*
X019367Y017570D01*
X019415Y017618D01*
X019415Y017715D01*
X019367Y017763D01*
D18*
X017102Y018305D02*
X017098Y018305D01*
D19*
X017350Y017805D02*
X017350Y018809D01*
X017866Y018809D01*
X017866Y017805D01*
X017350Y017805D01*
D20*
X020442Y019420D02*
X024528Y019420D01*
M02*
