G75*
%MOIN*%
%OFA0B0*%
%FSLAX24Y24*%
%IPPOS*%
%LPD*%
%AMOC8*
5,1,8,0,0,1.08239X$1,22.5*
%
%ADD10R,0.0126X0.1181*%
D10*
X007359Y026885D03*
X007603Y026885D03*
X007847Y026885D03*
X008091Y026885D03*
X008335Y026885D03*
X008579Y026885D03*
X008823Y026885D03*
X009068Y026885D03*
X009312Y026885D03*
X009556Y026885D03*
X009800Y026885D03*
X010044Y026885D03*
X010288Y026885D03*
X010532Y026885D03*
X011296Y026885D03*
X011540Y026885D03*
X011785Y026885D03*
X012029Y026885D03*
X012273Y026885D03*
X012517Y026885D03*
X012761Y026885D03*
X013005Y026885D03*
X013249Y026885D03*
X013493Y026885D03*
X013737Y026885D03*
X013981Y026885D03*
X014225Y026885D03*
X014470Y026885D03*
X015296Y026885D03*
X015540Y026885D03*
X015785Y026885D03*
X016029Y026885D03*
X016273Y026885D03*
X016517Y026885D03*
X016761Y026885D03*
X017005Y026885D03*
X017249Y026885D03*
X017493Y026885D03*
X017737Y026885D03*
X017981Y026885D03*
X018225Y026885D03*
X018470Y026885D03*
X019171Y026885D03*
X019415Y026885D03*
X019660Y026885D03*
X019904Y026885D03*
X020148Y026885D03*
X020392Y026885D03*
X020636Y026885D03*
X020880Y026885D03*
X021124Y026885D03*
X021368Y026885D03*
X021612Y026885D03*
X021856Y026885D03*
X022100Y026885D03*
X022345Y026885D03*
X023109Y026885D03*
X023353Y026885D03*
X023597Y026885D03*
X023841Y026885D03*
X024085Y026885D03*
X024329Y026885D03*
X024573Y026885D03*
X024818Y026885D03*
X025062Y026885D03*
X025306Y026885D03*
X025550Y026885D03*
X025794Y026885D03*
X026038Y026885D03*
X026282Y026885D03*
X027046Y026885D03*
X027290Y026885D03*
X027535Y026885D03*
X027779Y026885D03*
X028023Y026885D03*
X028267Y026885D03*
X028511Y026885D03*
X028755Y026885D03*
X028999Y026885D03*
X029243Y026885D03*
X029487Y026885D03*
X029731Y026885D03*
X029975Y026885D03*
X030220Y026885D03*
X031046Y026885D03*
X031290Y026885D03*
X031535Y026885D03*
X031779Y026885D03*
X032023Y026885D03*
X032267Y026885D03*
X032511Y026885D03*
X032755Y026885D03*
X032999Y026885D03*
X033243Y026885D03*
X033487Y026885D03*
X033731Y026885D03*
X033975Y026885D03*
X034220Y026885D03*
X034921Y026885D03*
X035165Y026885D03*
X035410Y026885D03*
X035654Y026885D03*
X035898Y026885D03*
X036142Y026885D03*
X036386Y026885D03*
X036630Y026885D03*
X036874Y026885D03*
X037118Y026885D03*
X037362Y026885D03*
X037606Y026885D03*
X037850Y026885D03*
X038095Y026885D03*
X038859Y026885D03*
X039103Y026885D03*
X039347Y026885D03*
X039591Y026885D03*
X039835Y026885D03*
X040079Y026885D03*
X040323Y026885D03*
X040568Y026885D03*
X040812Y026885D03*
X041056Y026885D03*
X041300Y026885D03*
X041544Y026885D03*
X041788Y026885D03*
X042032Y026885D03*
X042796Y026885D03*
X043040Y026885D03*
X043285Y026885D03*
X043529Y026885D03*
X043773Y026885D03*
X044017Y026885D03*
X044261Y026885D03*
X044505Y026885D03*
X044749Y026885D03*
X044993Y026885D03*
X045237Y026885D03*
X045481Y026885D03*
X045725Y026885D03*
X045970Y026885D03*
X046671Y026885D03*
X046915Y026885D03*
X047160Y026885D03*
X047404Y026885D03*
X047648Y026885D03*
X047892Y026885D03*
X048136Y026885D03*
X048380Y026885D03*
X048624Y026885D03*
X048868Y026885D03*
X049112Y026885D03*
X049356Y026885D03*
X049600Y026885D03*
X049845Y026885D03*
X050671Y026885D03*
X050915Y026885D03*
X051160Y026885D03*
X051404Y026885D03*
X051648Y026885D03*
X051892Y026885D03*
X052136Y026885D03*
X052380Y026885D03*
X052624Y026885D03*
X052868Y026885D03*
X053112Y026885D03*
X053356Y026885D03*
X053600Y026885D03*
X053845Y026885D03*
M02*
